{
DisplayStrings = (
/uniF029
);
copyright = Tworog;
customParameters = (
{
name = glyphOrder;
value = (
    ".notdef",
    space,
    uni0000,
    uni000D,
    uniE002,
    uniE003,
    uniE004,
    uniE005,
    uniE006,
    uniE007,
    uniE008,
    uniE009,
    uniE00A,
    uniE00B,
    uniE00C,
    uniE00D,
    uniE00E,
    uniE00F,
    uniF000,
    uniF001,
    uniF002,
    uniF003,
    uniF004,
    uniF005,
    uniF006,
    uniF007,
    uniF008,
    uniF009,
    uniF011,
    uniF012,
    uniF013,
    uniF014,
    uniF015,
    uniF016,
    uniF017,
    uniF018,
    uniF019,
    uniF020,
    uniF021,
    uniF022,
    uniE00G,
    uniE00H,
    uniE00I,
    uniE00J,
    uniE00K,
    uniE00L,
    uniE00M,
    uniE00N,
    uniE00O,
    uniE00P,
    uniE00Q,
    uniE00R,
    uniE00S,
    uniE00T,
    uniE00U,
    uniE00V,
    uniE00W,
    uniE00X,
    uniE00Y,
    uniE00Z,
    uniF023
);
}
);
date = "2016-09-15 00:00:43 +0000";
designer = Tworog;
designerURL = "http://tworog.ru";
familyName = "e:mgicons";
fontMaster = (
{
ascender = 1707;
capHeight = 0;
customParameters = (
{
name = typoAscender;
value = 1707;
},
{
name = typoDescender;
value = -427;
},
{
name = typoLineGap;
value = 324;
},
{
name = underlinePosition;
value = -213;
},
{
name = underlineThickness;
value = 106;
}
);
descender = -427;
id = "3FC06E6C-760F-451F-9A2A-A44F9A2B57A0";
weightValue = 400;
widthValue = 5;
xHeight = 0;
}
);
glyphs = (
{
glyphname = .notdef;
layers = (
{
layerId = "3FC06E6C-760F-451F-9A2A-A44F9A2B57A0";
name = Regular;
paths = (
{
closed = 1;
nodes = (
"197.98 1706.99 LINE",
"874.98 1706.99 LINE",
"874.98 -427 LINE",
"197.98 -427 LINE"
);
},
{
closed = 1;
nodes = (
"709.98 1493 LINE",
"709.98 1564 LINE",
"357.99 1564 LINE",
"357.99 1493 LINE",
"496.99 1493 LINE",
"496.99 1413.99 LINE",
"355.99 1413.99 LINE",
"355.99 1344.01 LINE",
"709.99 1344.01 LINE",
"709.99 1413.99 LINE",
"570 1413.99 LINE",
"570 1493 LINE"
);
},
{
closed = 1;
nodes = (
"570 1139 LINE",
"570 1289 LINE",
"355.98 1289 LINE",
"355.98 1067 LINE",
"709.98 1067 LINE",
"709.98 1139.01 LINE"
);
},
{
closed = 1;
nodes = (
"426.98 1216.01 LINE",
"496.98 1216.01 LINE",
"496.98 1139.01 LINE",
"426.98 1139.01 LINE"
);
},
{
closed = 1;
nodes = (
"709.98 939.01 LINE",
"709.98 1009.01 LINE",
"355.98 1009.01 LINE",
"355.98 939.01 LINE",
"496.98 939.01 LINE",
"496.98 860.02 LINE",
"355.98 860.02 LINE",
"355.98 789.02 LINE",
"570 789.02 LINE",
"570 939.02 LINE"
);
},
{
closed = 1;
nodes = (
"709.99 668.03 LINE",
"709.99 881.02 LINE",
"640.01 881.02 LINE",
"640.01 740.02 LINE",
"355.99 740.02 LINE",
"355.99 668.03 LINE"
);
},
{
closed = 1;
nodes = (
"709.99 380.02 LINE",
"709.99 621.02 LINE",
"496.99 621.02 LINE",
"496.99 501.01 LINE",
"570 501.01 LINE",
"570 550.01 LINE",
"640 550.01 LINE",
"640 450.01 LINE",
"426.98 450.01 LINE",
"426.98 621.01 LINE",
"355.98 621.01 LINE",
"355.98 380.01 LINE"
);
},
{
closed = 1;
nodes = (
"709.98 11.02 LINE",
"709.98 252.01 LINE",
"355.98 252.01 LINE",
"355.98 11.02 LINE"
);
},
{
closed = 1;
nodes = (
"426.98 181.01 LINE",
"640 181.01 LINE",
"640 81.02 LINE",
"426.98 81.02 LINE"
);
},
{
closed = 1;
nodes = (
"709.98 -108.97 LINE",
"709.98 -37.97 LINE",
"355.98 -37.97 LINE",
"355.98 -108.97 LINE",
"506 -108.97 LINE",
"355.98 -208.97 LINE",
"355.98 -278.97 LINE",
"709.98 -278.97 LINE",
"709.98 -208.97 LINE",
"492.99 -208.97 LINE",
"641.99 -108.97 LINE"
);
}
);
width = 1066;
}
);
note = .notdef;
},
{
glyphname = uniE003;
lastChange = "2016-11-27 22:38:30 +0000";
layers = (
{
layerId = "3FC06E6C-760F-451F-9A2A-A44F9A2B57A0";
name = Regular;
paths = (
{
closed = 1;
nodes = (
"1143 346 OFFCURVE",
"1131 350 OFFCURVE",
"1120 357 CURVE SMOOTH",
"1088 380 LINE SMOOTH",
"992 445 OFFCURVE",
"718 632 OFFCURVE",
"651 678 CURVE",
"595 640 OFFCURVE",
"435 533 OFFCURVE",
"315 453 CURVE SMOOTH",
"240 403 OFFCURVE",
"180 364 OFFCURVE",
"174 359 CURVE SMOOTH",
"144 338 OFFCURVE",
"107 345 OFFCURVE",
"86 374 CURVE",
"85 376 OFFCURVE",
"77 385 OFFCURVE",
"67 395 CURVE SMOOTH",
"38 428 OFFCURVE",
"23 445 OFFCURVE",
"18 453 CURVE SMOOTH",
"2 477 OFFCURVE",
"-4 522 OFFCURVE",
"25 543 CURVE SMOOTH",
"62 568 OFFCURVE",
"285 714 OFFCURVE",
"433 810 CURVE SMOOTH",
"496 851 OFFCURVE",
"545 883 OFFCURVE",
"556 890 CURVE",
"587 918 OFFCURVE",
"627 924 OFFCURVE",
"654 924 CURVE SMOOTH",
"683 924 OFFCURVE",
"712 917 OFFCURVE",
"727 907 CURVE SMOOTH",
"728 906 OFFCURVE",
"817 846 OFFCURVE",
"882 797 CURVE",
"882 815 OFFCURVE",
"882 832 OFFCURVE",
"882 843 CURVE SMOOTH",
"882 880 OFFCURVE",
"900 898 OFFCURVE",
"937 899 CURVE SMOOTH",
"953 899 LINE SMOOTH",
"970 899 OFFCURVE",
"991 898 OFFCURVE",
"1009 898 CURVE SMOOTH",
"1030 898 LINE SMOOTH",
"1074 898 OFFCURVE",
"1083 869 OFFCURVE",
"1083 845 CURVE SMOOTH",
"1083 821 LINE SMOOTH",
"1083 772 OFFCURVE",
"1083 709 OFFCURVE",
"1083 667 CURVE",
"1083 660 LINE",
"1092 651 OFFCURVE",
"1111 633 OFFCURVE",
"1128 621 CURVE SMOOTH",
"1164 596 LINE SMOOTH",
"1188 579 OFFCURVE",
"1212 562 OFFCURVE",
"1236 545 CURVE SMOOTH",
"1253 532 OFFCURVE",
"1269 517 OFFCURVE",
"1273 494 CURVE SMOOTH",
"1276 471 OFFCURVE",
"1263 454 OFFCURVE",
"1258 447 CURVE",
"1258 447 LINE SMOOTH",
"1258 447 OFFCURVE",
"1219 393 OFFCURVE",
"1208 378 CURVE SMOOTH",
"1206 375 OFFCURVE",
"1204 372 OFFCURVE",
"1201 370 CURVE",
"1188 354 OFFCURVE",
"1172 346 OFFCURVE",
"1155 346 CURVE SMOOTH"
);
},
{
closed = 1;
nodes = (
"92 479 OFFCURVE",
"111 457 OFFCURVE",
"123 445 CURVE SMOOTH",
"129 438 OFFCURVE",
"135 431 OFFCURVE",
"140 426 CURVE",
"160 440 OFFCURVE",
"212 474 OFFCURVE",
"274 515 CURVE SMOOTH",
"406 603 OFFCURVE",
"586 723 OFFCURVE",
"621 748 CURVE SMOOTH",
"626 751 OFFCURVE",
"636 759 OFFCURVE",
"651 759 CURVE SMOOTH",
"666 759 OFFCURVE",
"676 751 OFFCURVE",
"681 748 CURVE SMOOTH",
"710 727 OFFCURVE",
"1026 512 OFFCURVE",
"1130 441 CURVE SMOOTH",
"1151 426 LINE",
"1162 441 OFFCURVE",
"1183 471 OFFCURVE",
"1193 484 CURVE",
"1193 484 OFFCURVE",
"1193 484 OFFCURVE",
"1192 485 CURVE",
"1169 501 OFFCURVE",
"1145 518 OFFCURVE",
"1121 535 CURVE SMOOTH",
"1085 561 LINE SMOOTH",
"1059 579 OFFCURVE",
"1032 605 OFFCURVE",
"1025 612 CURVE",
"1006 628 OFFCURVE",
"1008 653 OFFCURVE",
"1008 664 CURVE",
"1009 709 OFFCURVE",
"1009 772 OFFCURVE",
"1009 820 CURVE",
"1008 824 LINE",
"992 824 OFFCURVE",
"972 824 OFFCURVE",
"957 824 CURVE",
"957 798 OFFCURVE",
"957 765 OFFCURVE",
"956 749 CURVE SMOOTH",
"957 724 LINE SMOOTH",
"957 707 OFFCURVE",
"945 692 OFFCURVE",
"928 687 CURVE SMOOTH",
"916 685 OFFCURVE",
"905 688 OFFCURVE",
"896 695 CURVE",
"882 706 OFFCURVE",
"703 834 OFFCURVE",
"686 845 CURVE",
"684 846 OFFCURVE",
"671 849 OFFCURVE",
"654 849 CURVE SMOOTH",
"642 849 OFFCURVE",
"619 847 OFFCURVE",
"604 834 CURVE SMOOTH",
"603 833 OFFCURVE",
"602 831 OFFCURVE",
"600 830 CURVE SMOOTH",
"594 826 OFFCURVE",
"542 792 OFFCURVE",
"473 748 CURVE SMOOTH",
"348 666 OFFCURVE",
"145 534 OFFCURVE",
"83 492 CURVE"
);
},
{
closed = 1;
nodes = (
"451 -123 OFFCURVE",
"435 -107 OFFCURVE",
"435 -86 CURVE",
"435 -60 LINE",
"435 209 LINE SMOOTH",
"435 225 OFFCURVE",
"439 241 OFFCURVE",
"445 258 CURVE SMOOTH",
"459 293 OFFCURVE",
"483 320 OFFCURVE",
"515 339 CURVE SMOOTH",
"559 363 OFFCURVE",
"722 364 OFFCURVE",
"764 349 CURVE SMOOTH",
"795 339 OFFCURVE",
"821 317 OFFCURVE",
"843 286 CURVE SMOOTH",
"856 266 OFFCURVE",
"865 242 OFFCURVE",
"866 217 CURVE SMOOTH",
"867 201 OFFCURVE",
"867 184 OFFCURVE",
"867 168 CURVE SMOOTH",
"867 -25 LINE SMOOTH",
"867 -39 OFFCURVE",
"867 -53 OFFCURVE",
"867 -67 CURVE SMOOTH",
"867 -86 LINE SMOOTH",
"868 -106 OFFCURVE",
"851 -123 OFFCURVE",
"831 -123 CURVE",
"810 -126 OFFCURVE",
"793 -107 OFFCURVE",
"793 -87 CURVE SMOOTH",
"793 -68 LINE SMOOTH",
"793 -54 OFFCURVE",
"792 -39 OFFCURVE",
"792 -25 CURVE SMOOTH",
"793 168 LINE SMOOTH",
"793 183 OFFCURVE",
"793 198 OFFCURVE",
"792 212 CURVE SMOOTH",
"791 224 OFFCURVE",
"788 235 OFFCURVE",
"781 244 CURVE SMOOTH",
"769 262 OFFCURVE",
"755 274 OFFCURVE",
"740 279 CURVE SMOOTH",
"715 288 OFFCURVE",
"577 286 OFFCURVE",
"551 274 CURVE",
"534 264 OFFCURVE",
"522 250 OFFCURVE",
"514 230 CURVE SMOOTH",
"511 223 OFFCURVE",
"510 216 OFFCURVE",
"510 209 CURVE SMOOTH",
"509 -60 LINE",
"509 -86 LINE SMOOTH",
"509 -107 OFFCURVE",
"492 -123 OFFCURVE",
"472 -123 CURVE SMOOTH"
);
},
{
closed = 1;
nodes = (
"885 -128 OFFCURVE",
"758 -128 OFFCURVE",
"632 -127 CURVE SMOOTH",
"464 -127 OFFCURVE",
"299 -127 OFFCURVE",
"263 -127 CURVE",
"243 -128 OFFCURVE",
"226 -119 OFFCURVE",
"212 -105 CURVE SMOOTH",
"199 -91 OFFCURVE",
"192 -73 OFFCURVE",
"192 -54 CURVE SMOOTH",
"193 -45 OFFCURVE",
"193 -35 OFFCURVE",
"193 -26 CURVE SMOOTH",
"193 262 LINE",
"193 298 LINE SMOOTH",
"193 337 OFFCURVE",
"193 376 OFFCURVE",
"192 415 CURVE",
"189 426 LINE",
"185 446 OFFCURVE",
"197 466 OFFCURVE",
"217 471 CURVE SMOOTH",
"237 475 OFFCURVE",
"257 463 OFFCURVE",
"262 443 CURVE",
"264 433 OFFCURVE",
"267 425 OFFCURVE",
"267 416 CURVE SMOOTH",
"267 376 OFFCURVE",
"267 337 OFFCURVE",
"267 298 CURVE SMOOTH",
"267 -12 LINE",
"267 -25 LINE SMOOTH",
"267 -34 OFFCURVE",
"267 -44 OFFCURVE",
"267 -53 CURVE",
"311 -53 OFFCURVE",
"470 -53 OFFCURVE",
"632 -53 CURVE SMOOTH",
"809 -53 OFFCURVE",
"988 -53 OFFCURVE",
"1024 -53 CURVE",
"1024 -53 OFFCURVE",
"1024 -53 OFFCURVE",
"1024 -53 CURVE SMOOTH",
"1024 -53 OFFCURVE",
"1029 -53 OFFCURVE",
"1029 -53 CURVE",
"1031 -53 OFFCURVE",
"1033 -53 OFFCURVE",
"1035 -53 CURVE",
"1035 240 LINE",
"1035 281 LINE",
"1035 327 OFFCURVE",
"1035 373 OFFCURVE",
"1035 419 CURVE SMOOTH",
"1035 439 OFFCURVE",
"1052 456 OFFCURVE",
"1072 456 CURVE",
"1072 456 OFFCURVE",
"1072 456 OFFCURVE",
"1072 456 CURVE",
"1093 456 OFFCURVE",
"1110 439 OFFCURVE",
"1110 418 CURVE SMOOTH",
"1109 372 OFFCURVE",
"1109 327 OFFCURVE",
"1109 281 CURVE SMOOTH",
"1109 180 LINE",
"1109 -58 LINE SMOOTH",
"1109 -73 OFFCURVE",
"1104 -95 OFFCURVE",
"1082 -113 CURVE SMOOTH",
"1062 -128 OFFCURVE",
"1041 -128 OFFCURVE",
"1028 -128 CURVE SMOOTH",
"1017 -128 OFFCURVE",
"994 -128 OFFCURVE",
"962 -128 CURVE SMOOTH"
);
}
);
width = 1280;
}
);
note = uniE003;
unicode = E003;
},
{
glyphname = uniE004;
lastChange = "2016-11-28 20:05:44 +0000";
layers = (
{
layerId = "3FC06E6C-760F-451F-9A2A-A44F9A2B57A0";
name = Regular;
paths = (
{
closed = 1;
nodes = (
"579 -116 OFFCURVE",
"410 -116 OFFCURVE",
"216 -116 CURVE SMOOTH",
"203 -116 OFFCURVE",
"188 -115 OFFCURVE",
"172 -112 CURVE SMOOTH",
"99 -100 OFFCURVE",
"41 -30 OFFCURVE",
"41 45 CURVE SMOOTH",
"40 115 OFFCURVE",
"40 185 OFFCURVE",
"40 255 CURVE SMOOTH",
"40 343 LINE SMOOTH",
"40 366 OFFCURVE",
"59 383 OFFCURVE",
"80 383 CURVE SMOOTH",
"103 383 OFFCURVE",
"121 366 OFFCURVE",
"121 343 CURVE SMOOTH",
"121 254 LINE SMOOTH",
"121 185 OFFCURVE",
"121 115 OFFCURVE",
"121 46 CURVE SMOOTH",
"122 6 OFFCURVE",
"154 -27 OFFCURVE",
"186 -33 CURVE SMOOTH",
"196 -35 OFFCURVE",
"207 -36 OFFCURVE",
"217 -36 CURVE SMOOTH",
"523 -36 OFFCURVE",
"765 -36 OFFCURVE",
"1070 -36 CURVE SMOOTH",
"1112 -36 OFFCURVE",
"1149 -3 OFFCURVE",
"1154 36 CURVE SMOOTH",
"1155 48 OFFCURVE",
"1156 60 OFFCURVE",
"1156 71 CURVE SMOOTH",
"1156 149 OFFCURVE",
"1156 227 OFFCURVE",
"1156 305 CURVE SMOOTH",
"1156 312 OFFCURVE",
"1156 321 OFFCURVE",
"1155 328 CURVE SMOOTH",
"1155 339 LINE SMOOTH",
"1154 362 OFFCURVE",
"1171 381 OFFCURVE",
"1193 381 CURVE",
"1216 380 OFFCURVE",
"1233 365 OFFCURVE",
"1234 342 CURVE SMOOTH",
"1235 332 LINE SMOOTH",
"1235 322 OFFCURVE",
"1235 314 OFFCURVE",
"1236 305 CURVE SMOOTH",
"1236 227 OFFCURVE",
"1236 149 OFFCURVE",
"1235 71 CURVE SMOOTH",
"1235 56 OFFCURVE",
"1234 42 OFFCURVE",
"1233 28 CURVE SMOOTH",
"1224 -53 OFFCURVE",
"1153 -116 OFFCURVE",
"1070 -116 CURVE SMOOTH",
"959 -116 OFFCURVE",
"855 -116 OFFCURVE",
"753 -116 CURVE SMOOTH"
);
},
{
closed = 1;
nodes = (
"715 268 OFFCURVE",
"697 285 OFFCURVE",
"696 307 CURVE SMOOTH",
"696 329 OFFCURVE",
"713 348 OFFCURVE",
"736 349 CURVE SMOOTH",
"752 349 LINE SMOOTH",
"762 349 OFFCURVE",
"772 349 OFFCURVE",
"783 350 CURVE SMOOTH",
"809 351 LINE SMOOTH",
"833 351 OFFCURVE",
"858 352 OFFCURVE",
"881 356 CURVE SMOOTH",
"898 358 OFFCURVE",
"905 360 OFFCURVE",
"916 364 CURVE SMOOTH",
"925 366 OFFCURVE",
"936 369 OFFCURVE",
"953 373 CURVE SMOOTH",
"1022 387 OFFCURVE",
"1086 410 OFFCURVE",
"1158 436 CURVE",
"1157 465 OFFCURVE",
"1157 493 OFFCURVE",
"1156 521 CURVE SMOOTH",
"1156 536 OFFCURVE",
"1156 550 OFFCURVE",
"1156 564 CURVE SMOOTH",
"1156 581 OFFCURVE",
"1156 598 OFFCURVE",
"1156 615 CURVE SMOOTH",
"1156 623 OFFCURVE",
"1154 633 OFFCURVE",
"1152 641 CURVE SMOOTH",
"1144 674 OFFCURVE",
"1112 705 OFFCURVE",
"1067 706 CURVE SMOOTH",
"995 705 OFFCURVE",
"957 705 OFFCURVE",
"886 706 CURVE SMOOTH",
"869 707 OFFCURVE",
"853 707 OFFCURVE",
"837 706 CURVE SMOOTH",
"705 705 OFFCURVE",
"573 705 OFFCURVE",
"442 706 CURVE SMOOTH",
"425 707 OFFCURVE",
"409 707 OFFCURVE",
"393 706 CURVE SMOOTH",
"347 706 OFFCURVE",
"315 706 OFFCURVE",
"278 706 CURVE SMOOTH",
"212 706 LINE SMOOTH",
"205 706 OFFCURVE",
"198 705 OFFCURVE",
"190 704 CURVE SMOOTH",
"156 698 OFFCURVE",
"121 665 OFFCURVE",
"121 621 CURVE SMOOTH",
"121 577 OFFCURVE",
"121 533 OFFCURVE",
"121 489 CURVE SMOOTH",
"121 441 LINE",
"151 431 OFFCURVE",
"180 422 OFFCURVE",
"210 413 CURVE SMOOTH",
"228 408 OFFCURVE",
"246 403 OFFCURVE",
"263 397 CURVE SMOOTH",
"316 381 OFFCURVE",
"358 368 OFFCURVE",
"419 360 CURVE SMOOTH",
"462 353 OFFCURVE",
"500 350 OFFCURVE",
"538 350 CURVE SMOOTH",
"560 350 OFFCURVE",
"578 331 OFFCURVE",
"577 308 CURVE SMOOTH",
"577 287 OFFCURVE",
"559 269 OFFCURVE",
"537 269 CURVE SMOOTH",
"537 269 OFFCURVE",
"537 269 OFFCURVE",
"537 269 CURVE SMOOTH",
"496 270 OFFCURVE",
"453 274 OFFCURVE",
"408 280 CURVE SMOOTH",
"340 291 OFFCURVE",
"293 305 OFFCURVE",
"240 321 CURVE SMOOTH",
"223 326 OFFCURVE",
"206 331 OFFCURVE",
"187 336 CURVE SMOOTH",
"153 347 OFFCURVE",
"121 357 OFFCURVE",
"87 367 CURVE SMOOTH",
"52 378 OFFCURVE",
"40 395 OFFCURVE",
"40 431 CURVE",
"40 489 LINE SMOOTH",
"40 533 OFFCURVE",
"40 577 OFFCURVE",
"41 622 CURVE SMOOTH",
"41 701 OFFCURVE",
"101 771 OFFCURVE",
"178 783 CURVE SMOOTH",
"189 785 OFFCURVE",
"200 786 OFFCURVE",
"212 786 CURVE SMOOTH",
"278 786 LINE SMOOTH",
"314 786 OFFCURVE",
"347 786 OFFCURVE",
"392 786 CURVE SMOOTH",
"408 786 OFFCURVE",
"425 786 OFFCURVE",
"442 786 CURVE SMOOTH",
"573 786 OFFCURVE",
"705 786 OFFCURVE",
"836 786 CURVE SMOOTH",
"853 786 OFFCURVE",
"870 786 OFFCURVE",
"887 786 CURVE SMOOTH",
"957 786 OFFCURVE",
"995 786 OFFCURVE",
"1065 786 CURVE SMOOTH",
"1066 786 OFFCURVE",
"1067 786 OFFCURVE",
"1068 786 CURVE SMOOTH",
"1144 786 OFFCURVE",
"1215 731 OFFCURVE",
"1230 658 CURVE SMOOTH",
"1233 646 OFFCURVE",
"1235 632 OFFCURVE",
"1235 617 CURVE SMOOTH",
"1236 599 OFFCURVE",
"1236 581 OFFCURVE",
"1236 564 CURVE SMOOTH",
"1236 550 OFFCURVE",
"1235 536 OFFCURVE",
"1236 523 CURVE SMOOTH",
"1236 492 OFFCURVE",
"1237 461 OFFCURVE",
"1238 430 CURVE SMOOTH",
"1240 399 OFFCURVE",
"1224 375 OFFCURVE",
"1195 365 CURVE SMOOTH",
"1116 336 OFFCURVE",
"1046 310 OFFCURVE",
"969 294 CURVE SMOOTH",
"955 291 OFFCURVE",
"948 290 OFFCURVE",
"940 287 CURVE SMOOTH",
"928 283 OFFCURVE",
"915 279 OFFCURVE",
"891 276 CURVE SMOOTH",
"865 273 OFFCURVE",
"839 272 OFFCURVE",
"813 271 CURVE SMOOTH",
"787 269 LINE SMOOTH",
"776 269 OFFCURVE",
"765 269 OFFCURVE",
"753 268 CURVE SMOOTH",
"738 268 LINE SMOOTH",
"738 268 OFFCURVE",
"738 268 OFFCURVE",
"737 268 CURVE SMOOTH"
);
},
{
closed = 1;
nodes = (
"839 711 OFFCURVE",
"821 728 OFFCURVE",
"821 751 CURVE SMOOTH",
"820 783 LINE SMOOTH",
"820 807 OFFCURVE",
"819 832 OFFCURVE",
"818 857 CURVE SMOOTH",
"817 868 OFFCURVE",
"812 878 OFFCURVE",
"800 890 CURVE SMOOTH",
"784 905 OFFCURVE",
"763 914 OFFCURVE",
"728 921 CURVE SMOOTH",
"693 930 OFFCURVE",
"657 932 OFFCURVE",
"616 929 CURVE SMOOTH",
"575 926 OFFCURVE",
"533 921 OFFCURVE",
"498 901 CURVE SMOOTH",
"469 885 OFFCURVE",
"458 866 OFFCURVE",
"458 837 CURVE SMOOTH",
"458 777 LINE",
"458 752 LINE SMOOTH",
"458 729 OFFCURVE",
"440 711 OFFCURVE",
"418 711 CURVE SMOOTH",
"396 711 OFFCURVE",
"378 729 OFFCURVE",
"378 752 CURVE SMOOTH",
"378 777 LINE",
"378 837 LINE SMOOTH",
"378 894 OFFCURVE",
"406 940 OFFCURVE",
"457 970 CURVE SMOOTH",
"508 999 OFFCURVE",
"560 1006 OFFCURVE",
"610 1009 CURVE SMOOTH",
"659 1012 OFFCURVE",
"704 1010 OFFCURVE",
"745 1000 CURVE SMOOTH",
"779 993 OFFCURVE",
"821 981 OFFCURVE",
"856 948 CURVE SMOOTH",
"882 922 OFFCURVE",
"896 892 OFFCURVE",
"898 861 CURVE SMOOTH",
"900 835 OFFCURVE",
"900 810 OFFCURVE",
"901 784 CURVE SMOOTH",
"901 752 LINE SMOOTH",
"902 730 OFFCURVE",
"884 711 OFFCURVE",
"861 711 CURVE SMOOTH",
"861 711 OFFCURVE",
"861 711 OFFCURVE",
"860 711 CURVE SMOOTH"
);
},
{
closed = 1;
nodes = (
"617 89 OFFCURVE",
"596 89 OFFCURVE",
"576 90 CURVE SMOOTH",
"555 91 OFFCURVE",
"504 100 OFFCURVE",
"504 169 CURVE SMOOTH",
"504 199 LINE SMOOTH",
"504 226 OFFCURVE",
"505 253 OFFCURVE",
"504 281 CURVE SMOOTH",
"504 282 OFFCURVE",
"503 287 OFFCURVE",
"502 290 CURVE SMOOTH",
"501 295 LINE",
"497 306 OFFCURVE",
"498 319 OFFCURVE",
"504 330 CURVE",
"504 332 OFFCURVE",
"504 337 OFFCURVE",
"504 342 CURVE",
"504 342 OFFCURVE",
"504 348 OFFCURVE",
"504 348 CURVE",
"505 387 OFFCURVE",
"537 419 OFFCURVE",
"576 419 CURVE SMOOTH",
"699 419 LINE SMOOTH",
"739 419 OFFCURVE",
"768 392 OFFCURVE",
"769 352 CURVE SMOOTH",
"769 348 OFFCURVE",
"770 342 OFFCURVE",
"771 337 CURVE SMOOTH",
"773 323 OFFCURVE",
"776 305 OFFCURVE",
"770 283 CURVE",
"770 253 LINE",
"770 166 LINE SMOOTH",
"770 121 OFFCURVE",
"743 92 OFFCURVE",
"700 90 CURVE SMOOTH",
"679 89 OFFCURVE",
"658 89 OFFCURVE",
"637 89 CURVE SMOOTH"
);
},
{
closed = 1;
nodes = (
"620 169 OFFCURVE",
"655 169 OFFCURVE",
"691 170 CURVE",
"691 283 LINE",
"690 285 OFFCURVE",
"690 293 OFFCURVE",
"693 304 CURVE SMOOTH",
"694 307 OFFCURVE",
"693 316 OFFCURVE",
"692 325 CURVE SMOOTH",
"691 329 OFFCURVE",
"691 334 OFFCURVE",
"690 338 CURVE",
"585 338 LINE",
"585 328 OFFCURVE",
"584 318 OFFCURVE",
"581 306 CURVE",
"583 300 OFFCURVE",
"585 291 OFFCURVE",
"585 282 CURVE SMOOTH",
"585 254 OFFCURVE",
"585 226 OFFCURVE",
"585 199 CURVE SMOOTH",
"585 170 LINE"
);
}
);
width = 1278;
}
);
note = uniE004;
unicode = E004;
},
{
glyphname = uniE005;
lastChange = "2016-11-27 22:39:54 +0000";
layers = (
{
layerId = "3FC06E6C-760F-451F-9A2A-A44F9A2B57A0";
name = Regular;
paths = (
{
closed = 1;
nodes = (
"606 69 OFFCURVE",
"604 69 OFFCURVE",
"603 69 CURVE SMOOTH",
"410 88 OFFCURVE",
"264 249 OFFCURVE",
"264 443 CURVE SMOOTH",
"264 495 OFFCURVE",
"275 545 OFFCURVE",
"295 592 CURVE SMOOTH",
"304 612 OFFCURVE",
"327 621 OFFCURVE",
"347 613 CURVE SMOOTH",
"367 604 OFFCURVE",
"376 581 OFFCURVE",
"368 561 CURVE SMOOTH",
"352 523 OFFCURVE",
"343 484 OFFCURVE",
"343 443 CURVE SMOOTH",
"343 290 OFFCURVE",
"458 163 OFFCURVE",
"611 148 CURVE SMOOTH",
"632 146 OFFCURVE",
"648 126 OFFCURVE",
"646 104 CURVE SMOOTH",
"644 84 OFFCURVE",
"627 69 OFFCURVE",
"607 69 CURVE SMOOTH"
);
},
{
closed = 1;
nodes = (
"904 596 OFFCURVE",
"892 602 OFFCURVE",
"884 613 CURVE SMOOTH",
"829 692 OFFCURVE",
"737 740 OFFCURVE",
"640 740 CURVE SMOOTH",
"543 740 OFFCURVE",
"452 692 OFFCURVE",
"397 613 CURVE SMOOTH",
"384 595 OFFCURVE",
"360 590 OFFCURVE",
"342 603 CURVE SMOOTH",
"324 615 OFFCURVE",
"319 640 OFFCURVE",
"332 658 CURVE SMOOTH",
"402 759 OFFCURVE",
"518 819 OFFCURVE",
"640 819 CURVE SMOOTH",
"763 819 OFFCURVE",
"879 759 OFFCURVE",
"949 658 CURVE SMOOTH",
"962 640 OFFCURVE",
"957 615 OFFCURVE",
"939 603 CURVE SMOOTH",
"932 598 OFFCURVE",
"924 596 OFFCURVE",
"917 596 CURVE SMOOTH"
);
},
{
closed = 1;
nodes = (
"654 69 OFFCURVE",
"637 84 OFFCURVE",
"635 104 CURVE SMOOTH",
"633 126 OFFCURVE",
"648 146 OFFCURVE",
"670 148 CURVE SMOOTH",
"822 163 OFFCURVE",
"937 290 OFFCURVE",
"937 443 CURVE SMOOTH",
"937 484 OFFCURVE",
"929 523 OFFCURVE",
"913 561 CURVE SMOOTH",
"904 581 OFFCURVE",
"914 604 OFFCURVE",
"934 613 CURVE SMOOTH",
"954 621 OFFCURVE",
"977 612 OFFCURVE",
"986 592 CURVE SMOOTH",
"1006 545 OFFCURVE",
"1016 495 OFFCURVE",
"1016 443 CURVE SMOOTH",
"1016 249 OFFCURVE",
"871 88 OFFCURVE",
"678 69 CURVE SMOOTH",
"677 69 OFFCURVE",
"675 69 OFFCURVE",
"674 69 CURVE SMOOTH"
);
},
{
closed = 1;
nodes = (
"710 1004 OFFCURVE",
"710 1004 OFFCURVE",
"710 1004 CURVE",
"724 946 LINE SMOOTH",
"729 926 OFFCURVE",
"745 910 OFFCURVE",
"764 905 CURVE SMOOTH",
"804 894 OFFCURVE",
"843 878 OFFCURVE",
"879 857 CURVE SMOOTH",
"888 852 OFFCURVE",
"898 850 OFFCURVE",
"907 850 CURVE SMOOTH",
"917 850 OFFCURVE",
"927 853 OFFCURVE",
"936 858 CURVE SMOOTH",
"988 889 LINE",
"1086 791 LINE",
"1086 791 OFFCURVE",
"1086 791 OFFCURVE",
"1086 791 CURVE",
"1055 739 LINE SMOOTH",
"1045 722 OFFCURVE",
"1044 700 OFFCURVE",
"1055 682 CURVE SMOOTH",
"1076 646 OFFCURVE",
"1092 607 OFFCURVE",
"1103 567 CURVE SMOOTH",
"1108 547 OFFCURVE",
"1123 532 OFFCURVE",
"1143 527 CURVE SMOOTH",
"1201 513 LINE",
"1201 374 LINE",
"1201 374 OFFCURVE",
"1201 374 OFFCURVE",
"1201 374 CURVE",
"1143 359 LINE SMOOTH",
"1123 355 OFFCURVE",
"1108 339 OFFCURVE",
"1103 320 CURVE SMOOTH",
"1092 279 OFFCURVE",
"1076 240 OFFCURVE",
"1055 204 CURVE SMOOTH",
"1044 187 OFFCURVE",
"1045 165 OFFCURVE",
"1055 147 CURVE SMOOTH",
"1086 96 LINE",
"988 -2 LINE",
"988 -2 OFFCURVE",
"988 -2 OFFCURVE",
"988 -2 CURVE",
"936 29 LINE SMOOTH",
"927 34 OFFCURVE",
"917 37 OFFCURVE",
"907 37 CURVE SMOOTH",
"898 37 OFFCURVE",
"888 34 OFFCURVE",
"879 29 CURVE SMOOTH",
"843 8 OFFCURVE",
"804 -8 OFFCURVE",
"764 -18 CURVE SMOOTH",
"745 -24 OFFCURVE",
"729 -39 OFFCURVE",
"724 -59 CURVE SMOOTH",
"710 -117 LINE",
"710 -117 OFFCURVE",
"710 -117 OFFCURVE",
"710 -117 CURVE SMOOTH",
"571 -118 LINE",
"556 -59 LINE SMOOTH",
"552 -39 OFFCURVE",
"536 -24 OFFCURVE",
"517 -18 CURVE SMOOTH",
"476 -8 OFFCURVE",
"438 8 OFFCURVE",
"401 29 CURVE SMOOTH",
"393 34 OFFCURVE",
"383 37 OFFCURVE",
"373 37 CURVE SMOOTH",
"363 37 OFFCURVE",
"353 34 OFFCURVE",
"345 29 CURVE SMOOTH",
"293 -2 LINE",
"293 -2 OFFCURVE",
"293 -2 OFFCURVE",
"293 -2 CURVE",
"195 96 LINE",
"226 147 LINE SMOOTH",
"236 165 OFFCURVE",
"236 187 OFFCURVE",
"226 204 CURVE SMOOTH",
"205 240 OFFCURVE",
"189 279 OFFCURVE",
"178 320 CURVE SMOOTH",
"173 339 OFFCURVE",
"157 355 OFFCURVE",
"138 359 CURVE SMOOTH",
"80 374 LINE",
"80 374 OFFCURVE",
"80 374 OFFCURVE",
"80 374 CURVE",
"80 513 LINE",
"138 527 LINE SMOOTH",
"157 532 OFFCURVE",
"173 547 OFFCURVE",
"178 567 CURVE SMOOTH",
"189 607 OFFCURVE",
"205 646 OFFCURVE",
"226 682 CURVE SMOOTH",
"236 700 OFFCURVE",
"236 722 OFFCURVE",
"226 739 CURVE SMOOTH",
"195 790 LINE",
"195 791 OFFCURVE",
"195 791 OFFCURVE",
"195 791 CURVE",
"293 889 LINE",
"345 858 LINE SMOOTH",
"353 853 OFFCURVE",
"363 850 OFFCURVE",
"373 850 CURVE SMOOTH",
"383 850 OFFCURVE",
"393 852 OFFCURVE",
"402 857 CURVE SMOOTH",
"438 878 OFFCURVE",
"476 894 OFFCURVE",
"517 905 CURVE SMOOTH",
"536 910 OFFCURVE",
"552 926 OFFCURVE",
"556 946 CURVE SMOOTH",
"571 1004 LINE",
"710 1004 LINE"
);
},
{
closed = 1;
nodes = (
"571 1083 LINE SMOOTH",
"535 1083 OFFCURVE",
"503 1059 OFFCURVE",
"494 1023 CURVE SMOOTH",
"483 978 LINE",
"445 967 OFFCURVE",
"409 952 OFFCURVE",
"374 933 CURVE",
"334 957 LINE SMOOTH",
"321 964 OFFCURVE",
"307 968 OFFCURVE",
"293 968 CURVE SMOOTH",
"272 968 OFFCURVE",
"252 960 OFFCURVE",
"237 945 CURVE SMOOTH",
"139 847 LINE SMOOTH",
"114 822 OFFCURVE",
"109 784 OFFCURVE",
"125 754 CURVE SMOOTH",
"126 752 OFFCURVE",
"126 751 OFFCURVE",
"127 750 CURVE SMOOTH",
"151 710 LINE",
"132 675 OFFCURVE",
"117 639 OFFCURVE",
"105 601 CURVE",
"60 589 LINE SMOOTH",
"25 581 OFFCURVE",
"0 549 OFFCURVE",
"0 513 CURVE SMOOTH",
"0 374 LINE SMOOTH",
"0 342 OFFCURVE",
"20 313 OFFCURVE",
"50 301 CURVE SMOOTH",
"54 299 OFFCURVE",
"57 298 OFFCURVE",
"61 297 CURVE",
"61 297 LINE",
"105 286 LINE",
"117 248 OFFCURVE",
"132 211 OFFCURVE",
"151 176 CURVE",
"127 136 LINE SMOOTH",
"108 105 OFFCURVE",
"113 65 OFFCURVE",
"139 40 CURVE SMOOTH",
"237 -58 LINE SMOOTH",
"252 -73 OFFCURVE",
"272 -81 OFFCURVE",
"293 -81 CURVE SMOOTH",
"302 -81 OFFCURVE",
"311 -80 OFFCURVE",
"320 -77 CURVE SMOOTH",
"324 -75 OFFCURVE",
"329 -73 OFFCURVE",
"333 -71 CURVE SMOOTH",
"374 -46 LINE",
"409 -65 OFFCURVE",
"445 -80 OFFCURVE",
"483 -91 CURVE",
"494 -137 LINE SMOOTH",
"503 -172 OFFCURVE",
"535 -197 OFFCURVE",
"571 -197 CURVE SMOOTH",
"710 -197 LINE SMOOTH",
"744 -197 OFFCURVE",
"774 -175 OFFCURVE",
"785 -143 CURVE",
"786 -140 OFFCURVE",
"786 -139 OFFCURVE",
"787 -136 CURVE SMOOTH",
"798 -91 LINE",
"836 -80 OFFCURVE",
"872 -65 OFFCURVE",
"907 -46 CURVE",
"947 -70 LINE SMOOTH",
"951 -72 OFFCURVE",
"956 -75 OFFCURVE",
"961 -76 CURVE SMOOTH",
"970 -80 OFFCURVE",
"979 -81 OFFCURVE",
"988 -81 CURVE SMOOTH",
"1009 -81 OFFCURVE",
"1029 -73 OFFCURVE",
"1044 -58 CURVE SMOOTH",
"1142 40 LINE SMOOTH",
"1168 65 OFFCURVE",
"1173 105 OFFCURVE",
"1154 136 CURVE SMOOTH",
"1130 176 LINE",
"1149 211 OFFCURVE",
"1164 248 OFFCURVE",
"1175 286 CURVE",
"1220 297 LINE",
"1220 297 LINE",
"1224 298 OFFCURVE",
"1228 299 OFFCURVE",
"1232 301 CURVE SMOOTH",
"1261 313 OFFCURVE",
"1280 342 OFFCURVE",
"1280 374 CURVE SMOOTH",
"1280 513 LINE SMOOTH",
"1280 549 OFFCURVE",
"1256 581 OFFCURVE",
"1220 589 CURVE SMOOTH",
"1175 601 LINE",
"1164 639 OFFCURVE",
"1149 675 OFFCURVE",
"1130 710 CURVE",
"1154 750 LINE SMOOTH",
"1155 751 OFFCURVE",
"1155 753 OFFCURVE",
"1156 755 CURVE",
"1156 755 LINE",
"1172 785 OFFCURVE",
"1166 823 OFFCURVE",
"1142 847 CURVE SMOOTH",
"1044 945 LINE SMOOTH",
"1029 960 OFFCURVE",
"1008 968 OFFCURVE",
"988 968 CURVE SMOOTH",
"974 968 OFFCURVE",
"960 964 OFFCURVE",
"947 957 CURVE SMOOTH",
"907 933 LINE",
"872 952 OFFCURVE",
"836 967 OFFCURVE",
"798 978 CURVE",
"787 1023 LINE SMOOTH",
"786 1026 OFFCURVE",
"785 1028 OFFCURVE",
"784 1031 CURVE SMOOTH",
"773 1062 OFFCURVE",
"743 1083 OFFCURVE",
"710 1083 CURVE SMOOTH"
);
},
{
closed = 1;
nodes = (
"569 314 OFFCURVE",
"512 372 OFFCURVE",
"512 443 CURVE SMOOTH",
"512 514 OFFCURVE",
"569 572 OFFCURVE",
"640 572 CURVE SMOOTH",
"711 572 OFFCURVE",
"769 514 OFFCURVE",
"769 443 CURVE SMOOTH",
"769 372 OFFCURVE",
"711 314 OFFCURVE",
"640 314 CURVE SMOOTH"
);
},
{
closed = 1;
nodes = (
"613 493 OFFCURVE",
"591 470 OFFCURVE",
"591 443 CURVE SMOOTH",
"591 416 OFFCURVE",
"613 394 OFFCURVE",
"640 394 CURVE SMOOTH",
"668 394 OFFCURVE",
"690 416 OFFCURVE",
"690 443 CURVE SMOOTH",
"690 470 OFFCURVE",
"668 493 OFFCURVE",
"640 493 CURVE SMOOTH"
);
},
{
closed = 1;
nodes = (
"702 449 OFFCURVE",
"689 457 OFFCURVE",
"682 470 CURVE SMOOTH",
"671 489 OFFCURVE",
"679 513 OFFCURVE",
"698 524 CURVE SMOOTH",
"867 614 LINE SMOOTH",
"886 624 OFFCURVE",
"910 617 OFFCURVE",
"920 597 CURVE SMOOTH",
"930 578 OFFCURVE",
"923 554 OFFCURVE",
"904 544 CURVE SMOOTH",
"735 454 LINE SMOOTH",
"729 451 OFFCURVE",
"723 449 OFFCURVE",
"717 449 CURVE SMOOTH"
);
},
{
closed = 1;
nodes = (
"551 455 OFFCURVE",
"544 457 OFFCURVE",
"538 460 CURVE SMOOTH",
"370 550 LINE SMOOTH",
"350 560 OFFCURVE",
"343 584 OFFCURVE",
"353 604 CURVE SMOOTH",
"364 623 OFFCURVE",
"388 630 OFFCURVE",
"407 620 CURVE SMOOTH",
"575 530 LINE SMOOTH",
"595 520 OFFCURVE",
"602 496 OFFCURVE",
"592 476 CURVE SMOOTH",
"585 463 OFFCURVE",
"571 455 OFFCURVE",
"557 455 CURVE SMOOTH"
);
},
{
closed = 1;
nodes = (
"619 85 OFFCURVE",
"601 103 OFFCURVE",
"601 124 CURVE SMOOTH",
"600 315 LINE SMOOTH",
"600 337 OFFCURVE",
"618 355 OFFCURVE",
"640 355 CURVE",
"640 355 OFFCURVE",
"640 355 OFFCURVE",
"640 355 CURVE",
"662 355 OFFCURVE",
"680 338 OFFCURVE",
"680 316 CURVE SMOOTH",
"680 125 LINE SMOOTH",
"680 103 OFFCURVE",
"663 85 OFFCURVE",
"641 85 CURVE SMOOTH",
"641 85 OFFCURVE",
"641 85 OFFCURVE",
"641 85 CURVE SMOOTH"
);
}
);
width = 1280;
}
);
note = uniE005;
unicode = E005;
},
{
glyphname = uniE006;
lastChange = "2016-11-27 22:41:30 +0000";
layers = (
{
layerId = "3FC06E6C-760F-451F-9A2A-A44F9A2B57A0";
name = Regular;
paths = (
{
closed = 1;
nodes = (
"116 -77 OFFCURVE",
"50 -50 OFFCURVE",
"51 23 CURVE SMOOTH",
"52 216 OFFCURVE",
"52 396 OFFCURVE",
"52 581 CURVE SMOOTH",
"51 1056 LINE",
"51 1078 OFFCURVE",
"70 1097 OFFCURVE",
"91 1097 CURVE SMOOTH",
"221 1097 LINE SMOOTH",
"244 1097 OFFCURVE",
"262 1078 OFFCURVE",
"262 1056 CURVE SMOOTH",
"262 1034 OFFCURVE",
"244 1015 OFFCURVE",
"221 1015 CURVE SMOOTH",
"132 1015 LINE",
"132 581 LINE SMOOTH",
"132 396 OFFCURVE",
"132 216 OFFCURVE",
"132 23 CURVE SMOOTH",
"132 6 OFFCURVE",
"150 0 OFFCURVE",
"159 -2 CURVE",
"1122 -2 LINE",
"1130 0 OFFCURVE",
"1149 6 OFFCURVE",
"1149 23 CURVE SMOOTH",
"1148 216 OFFCURVE",
"1148 396 OFFCURVE",
"1148 581 CURVE SMOOTH",
"1148 1015 LINE",
"1053 1015 LINE SMOOTH",
"1031 1015 OFFCURVE",
"1014 1034 OFFCURVE",
"1014 1056 CURVE SMOOTH",
"1014 1078 OFFCURVE",
"1031 1097 OFFCURVE",
"1053 1097 CURVE SMOOTH",
"1189 1097 LINE SMOOTH",
"1210 1097 OFFCURVE",
"1229 1078 OFFCURVE",
"1229 1056 CURVE SMOOTH",
"1229 581 LINE SMOOTH",
"1229 396 OFFCURVE",
"1229 216 OFFCURVE",
"1230 23 CURVE SMOOTH",
"1230 -50 OFFCURVE",
"1164 -77 OFFCURVE",
"1131 -81 CURVE",
"155 -82 LINE"
);
},
{
closed = 1;
nodes = (
"102 807 LINE SMOOTH",
"80 807 OFFCURVE",
"62 823 OFFCURVE",
"62 847 CURVE SMOOTH",
"62 869 OFFCURVE",
"80 886 OFFCURVE",
"102 886 CURVE SMOOTH",
"1173 886 LINE SMOOTH",
"1195 886 OFFCURVE",
"1213 869 OFFCURVE",
"1213 847 CURVE SMOOTH",
"1213 823 OFFCURVE",
"1195 807 OFFCURVE",
"1173 807 CURVE SMOOTH"
);
},
{
closed = 1;
nodes = (
"397 1015 LINE SMOOTH",
"375 1015 OFFCURVE",
"356 1034 OFFCURVE",
"356 1056 CURVE SMOOTH",
"356 1078 OFFCURVE",
"375 1097 OFFCURVE",
"397 1097 CURVE SMOOTH",
"879 1097 LINE SMOOTH",
"901 1097 OFFCURVE",
"919 1078 OFFCURVE",
"919 1056 CURVE SMOOTH",
"919 1034 OFFCURVE",
"901 1015 OFFCURVE",
"879 1015 CURVE SMOOTH"
);
},
{
closed = 1;
nodes = (
"357 92 LINE SMOOTH",
"335 92 OFFCURVE",
"316 110 OFFCURVE",
"316 132 CURVE SMOOTH",
"316 695 LINE SMOOTH",
"316 717 OFFCURVE",
"335 735 OFFCURVE",
"357 735 CURVE SMOOTH",
"544 735 LINE SMOOTH",
"545 735 OFFCURVE",
"547 735 OFFCURVE",
"549 735 CURVE SMOOTH",
"612 735 LINE SMOOTH",
"655 735 OFFCURVE",
"697 735 OFFCURVE",
"738 735 CURVE SMOOTH",
"798 735 OFFCURVE",
"810 735 OFFCURVE",
"822 735 CURVE SMOOTH",
"833 735 OFFCURVE",
"843 735 OFFCURVE",
"901 735 CURVE",
"910 735 OFFCURVE",
"921 737 OFFCURVE",
"933 734 CURVE SMOOTH",
"952 729 OFFCURVE",
"964 713 OFFCURVE",
"964 695 CURVE SMOOTH",
"964 132 LINE SMOOTH",
"964 110 OFFCURVE",
"946 92 OFFCURVE",
"924 92 CURVE SMOOTH"
);
},
{
closed = 1;
nodes = (
"884 173 LINE",
"884 654 LINE",
"840 653 OFFCURVE",
"829 654 OFFCURVE",
"819 654 CURVE SMOOTH",
"808 654 OFFCURVE",
"796 655 OFFCURVE",
"739 654 CURVE SMOOTH",
"697 653 OFFCURVE",
"655 654 OFFCURVE",
"612 654 CURVE SMOOTH",
"549 654 LINE SMOOTH",
"547 654 OFFCURVE",
"545 654 OFFCURVE",
"544 654 CURVE SMOOTH",
"397 654 LINE",
"397 173 LINE"
);
},
{
closed = 1;
nodes = (
"364 279 LINE SMOOTH",
"341 279 OFFCURVE",
"323 296 OFFCURVE",
"323 320 CURVE SMOOTH",
"323 342 OFFCURVE",
"341 359 OFFCURVE",
"364 359 CURVE SMOOTH",
"912 359 LINE SMOOTH",
"934 359 OFFCURVE",
"952 342 OFFCURVE",
"952 320 CURVE SMOOTH",
"952 296 OFFCURVE",
"934 279 OFFCURVE",
"912 279 CURVE SMOOTH"
);
},
{
closed = 1;
nodes = (
"712 97 OFFCURVE",
"693 114 OFFCURVE",
"693 136 CURVE SMOOTH",
"693 695 LINE SMOOTH",
"693 717 OFFCURVE",
"712 735 OFFCURVE",
"734 735 CURVE SMOOTH",
"756 735 OFFCURVE",
"775 717 OFFCURVE",
"775 695 CURVE SMOOTH",
"775 136 LINE SMOOTH",
"775 114 OFFCURVE",
"756 97 OFFCURVE",
"734 97 CURVE SMOOTH"
);
},
{
closed = 1;
nodes = (
"521 104 OFFCURVE",
"503 122 OFFCURVE",
"503 145 CURVE SMOOTH",
"503 695 LINE SMOOTH",
"503 717 OFFCURVE",
"521 735 OFFCURVE",
"544 735 CURVE SMOOTH",
"566 735 OFFCURVE",
"584 717 OFFCURVE",
"584 695 CURVE SMOOTH",
"584 145 LINE SMOOTH",
"584 122 OFFCURVE",
"566 104 OFFCURVE",
"544 104 CURVE SMOOTH"
);
},
{
closed = 1;
nodes = (
"364 469 LINE SMOOTH",
"341 469 OFFCURVE",
"323 487 OFFCURVE",
"323 510 CURVE SMOOTH",
"323 532 OFFCURVE",
"341 550 OFFCURVE",
"364 550 CURVE SMOOTH",
"912 550 LINE SMOOTH",
"934 550 OFFCURVE",
"952 532 OFFCURVE",
"952 510 CURVE SMOOTH",
"952 487 OFFCURVE",
"934 469 OFFCURVE",
"912 469 CURVE SMOOTH"
);
},
{
closed = 1;
nodes = (
"230 934 LINE SMOOTH",
"207 934 OFFCURVE",
"190 952 OFFCURVE",
"190 974 CURVE SMOOTH",
"190 1143 LINE SMOOTH",
"190 1166 OFFCURVE",
"207 1183 OFFCURVE",
"230 1183 CURVE SMOOTH",
"385 1183 LINE SMOOTH",
"409 1183 OFFCURVE",
"427 1166 OFFCURVE",
"427 1143 CURVE SMOOTH",
"427 974 LINE SMOOTH",
"427 952 OFFCURVE",
"409 934 OFFCURVE",
"385 934 CURVE SMOOTH"
);
},
{
closed = 1;
nodes = (
"346 1015 LINE",
"346 1104 LINE",
"270 1104 LINE",
"270 1015 LINE"
);
},
{
closed = 1;
nodes = (
"879 934 LINE SMOOTH",
"856 934 OFFCURVE",
"839 952 OFFCURVE",
"839 974 CURVE SMOOTH",
"839 1143 LINE SMOOTH",
"839 1166 OFFCURVE",
"856 1183 OFFCURVE",
"879 1183 CURVE SMOOTH",
"1034 1183 LINE SMOOTH",
"1057 1183 OFFCURVE",
"1076 1166 OFFCURVE",
"1076 1143 CURVE SMOOTH",
"1076 974 LINE SMOOTH",
"1076 952 OFFCURVE",
"1057 934 OFFCURVE",
"1034 934 CURVE SMOOTH"
);
},
{
closed = 1;
nodes = (
"994 1015 LINE",
"994 1104 LINE",
"919 1104 LINE",
"919 1015 LINE"
);
}
);
width = 1279;
}
);
note = uniE006;
unicode = E006;
},
{
glyphname = uniE007;
lastChange = "2016-11-27 22:42:23 +0000";
layers = (
{
layerId = "3FC06E6C-760F-451F-9A2A-A44F9A2B57A0";
name = Regular;
paths = (
{
closed = 1;
nodes = (
"1034 -101 OFFCURVE",
"1034 -101 OFFCURVE",
"1034 -101 CURVE SMOOTH",
"270 -101 LINE SMOOTH",
"115 -101 OFFCURVE",
"35 88 OFFCURVE",
"32 96 CURVE",
"1 151 OFFCURVE",
"-4 199 OFFCURVE",
"18 236 CURVE SMOOTH",
"42 275 OFFCURVE",
"92 293 OFFCURVE",
"167 291 CURVE SMOOTH",
"211 291 LINE",
"211 894 LINE",
"209 957 OFFCURVE",
"211 1013 OFFCURVE",
"248 1051 CURVE SMOOTH",
"283 1087 OFFCURVE",
"339 1093 OFFCURVE",
"411 1092 CURVE SMOOTH",
"1100 1092 LINE SMOOTH",
"1158 1093 OFFCURVE",
"1201 1080 OFFCURVE",
"1231 1050 CURVE SMOOTH",
"1262 1021 OFFCURVE",
"1276 978 OFFCURVE",
"1276 916 CURVE SMOOTH",
"1275 160 LINE SMOOTH",
"1275 59 OFFCURVE",
"1267 -7 OFFCURVE",
"1224 -50 CURVE SMOOTH",
"1183 -92 OFFCURVE",
"1118 -101 OFFCURVE",
"1034 -101 CURVE SMOOTH"
);
},
{
closed = 1;
nodes = (
"109 211 OFFCURVE",
"91 201 OFFCURVE",
"87 194 CURVE SMOOTH",
"83 187 OFFCURVE",
"85 166 OFFCURVE",
"105 131 CURVE",
"107 125 OFFCURVE",
"169 -20 OFFCURVE",
"270 -20 CURVE SMOOTH",
"1033 -20 LINE",
"1033 -20 OFFCURVE",
"1033 -20 OFFCURVE",
"1033 -20 CURVE",
"1109 -20 OFFCURVE",
"1148 -12 OFFCURVE",
"1167 7 CURVE SMOOTH",
"1187 27 OFFCURVE",
"1195 70 OFFCURVE",
"1194 160 CURVE",
"1195 916 LINE SMOOTH",
"1195 954 OFFCURVE",
"1188 979 OFFCURVE",
"1175 993 CURVE SMOOTH",
"1161 1006 OFFCURVE",
"1137 1012 OFFCURVE",
"1101 1011 CURVE SMOOTH",
"411 1012 LINE SMOOTH",
"352 1012 OFFCURVE",
"318 1007 OFFCURVE",
"305 994 CURVE SMOOTH",
"292 981 OFFCURVE",
"290 945 OFFCURVE",
"292 895 CURVE SMOOTH",
"292 291 LINE",
"677 291 LINE SMOOTH",
"849 294 OFFCURVE",
"893 253 OFFCURVE",
"917 178 CURVE SMOOTH",
"925 151 OFFCURVE",
"930 135 OFFCURVE",
"988 125 CURVE SMOOTH",
"1010 121 OFFCURVE",
"1025 100 OFFCURVE",
"1021 78 CURVE SMOOTH",
"1017 56 OFFCURVE",
"996 42 OFFCURVE",
"974 46 CURVE SMOOTH",
"876 63 OFFCURVE",
"854 109 OFFCURVE",
"840 154 CURVE SMOOTH",
"830 185 OFFCURVE",
"822 212 OFFCURVE",
"677 211 CURVE SMOOTH",
"166 211 LINE SMOOTH",
"162 211 OFFCURVE",
"159 211 OFFCURVE",
"156 211 CURVE SMOOTH"
);
},
{
closed = 1;
nodes = (
"524 644 OFFCURVE",
"513 648 OFFCURVE",
"505 656 CURVE SMOOTH",
"415 746 LINE SMOOTH",
"400 762 OFFCURVE",
"400 787 OFFCURVE",
"415 803 CURVE SMOOTH",
"431 819 OFFCURVE",
"457 819 OFFCURVE",
"472 803 CURVE SMOOTH",
"534 741 LINE",
"668 872 LINE SMOOTH",
"684 887 OFFCURVE",
"709 887 OFFCURVE",
"725 871 CURVE SMOOTH",
"740 855 OFFCURVE",
"740 830 OFFCURVE",
"724 814 CURVE SMOOTH",
"562 655 LINE SMOOTH",
"554 648 OFFCURVE",
"544 644 OFFCURVE",
"534 644 CURVE SMOOTH"
);
},
{
closed = 1;
nodes = (
"506 383 OFFCURVE",
"496 387 OFFCURVE",
"488 395 CURVE SMOOTH",
"398 485 LINE SMOOTH",
"383 501 OFFCURVE",
"383 526 OFFCURVE",
"398 542 CURVE SMOOTH",
"414 558 OFFCURVE",
"440 558 OFFCURVE",
"455 542 CURVE SMOOTH",
"517 480 LINE",
"651 611 LINE SMOOTH",
"667 626 OFFCURVE",
"692 626 OFFCURVE",
"708 610 CURVE SMOOTH",
"723 594 OFFCURVE",
"723 569 OFFCURVE",
"707 553 CURVE SMOOTH",
"545 395 LINE SMOOTH",
"537 387 OFFCURVE",
"527 383 OFFCURVE",
"517 383 CURVE SMOOTH"
);
},
{
closed = 1;
nodes = (
"835 721 LINE SMOOTH",
"813 721 OFFCURVE",
"795 740 OFFCURVE",
"795 762 CURVE SMOOTH",
"795 784 OFFCURVE",
"813 802 OFFCURVE",
"835 802 CURVE SMOOTH",
"1075 802 LINE SMOOTH",
"1097 802 OFFCURVE",
"1115 784 OFFCURVE",
"1115 762 CURVE SMOOTH",
"1115 740 OFFCURVE",
"1097 721 OFFCURVE",
"1075 721 CURVE SMOOTH"
);
},
{
closed = 1;
nodes = (
"835 436 LINE SMOOTH",
"813 436 OFFCURVE",
"795 454 OFFCURVE",
"795 476 CURVE SMOOTH",
"795 498 OFFCURVE",
"813 517 OFFCURVE",
"835 517 CURVE SMOOTH",
"1075 517 LINE SMOOTH",
"1097 517 OFFCURVE",
"1115 498 OFFCURVE",
"1115 476 CURVE SMOOTH",
"1115 454 OFFCURVE",
"1097 436 OFFCURVE",
"1075 436 CURVE SMOOTH"
);
}
);
width = 1280;
}
);
note = uniE007;
unicode = E007;
},
{
glyphname = uniE008;
lastChange = "2016-11-28 20:05:59 +0000";
layers = (
{
layerId = "3FC06E6C-760F-451F-9A2A-A44F9A2B57A0";
name = Regular;
paths = (
{
closed = 1;
nodes = (
"156 268 OFFCURVE",
"139 285 OFFCURVE",
"139 305 CURVE SMOOTH",
"139 1087 LINE",
"177 1124 LINE",
"1078 1124 LINE SMOOTH",
"1135 1124 OFFCURVE",
"1159 1101 OFFCURVE",
"1159 1043 CURVE SMOOTH",
"1159 895 LINE SMOOTH",
"1159 874 OFFCURVE",
"1142 858 OFFCURVE",
"1122 858 CURVE SMOOTH",
"1101 858 OFFCURVE",
"1084 874 OFFCURVE",
"1084 895 CURVE SMOOTH",
"1084 944 LINE",
"1084 1043 LINE",
"1084 1045 OFFCURVE",
"1084 1047 OFFCURVE",
"1084 1049 CURVE",
"1082 1049 OFFCURVE",
"1080 1049 OFFCURVE",
"1078 1049 CURVE SMOOTH",
"215 1049 LINE",
"215 305 LINE SMOOTH",
"215 285 OFFCURVE",
"198 268 OFFCURVE",
"177 268 CURVE SMOOTH"
);
},
{
closed = 1;
nodes = (
"499 539 OFFCURVE",
"485 546 OFFCURVE",
"474 555 CURVE SMOOTH",
"459 570 OFFCURVE",
"455 590 OFFCURVE",
"454 604 CURVE SMOOTH",
"454 655 OFFCURVE",
"454 707 OFFCURVE",
"454 758 CURVE",
"454 868 LINE SMOOTH",
"454 891 OFFCURVE",
"463 905 OFFCURVE",
"471 913 CURVE SMOOTH",
"488 930 OFFCURVE",
"511 930 OFFCURVE",
"519 930 CURVE SMOOTH",
"544 930 OFFCURVE",
"570 930 OFFCURVE",
"596 930 CURVE SMOOTH",
"631 930 LINE",
"700 930 LINE SMOOTH",
"757 930 OFFCURVE",
"813 930 OFFCURVE",
"870 930 CURVE SMOOTH",
"880 930 OFFCURVE",
"911 930 OFFCURVE",
"931 908 CURVE SMOOTH",
"945 894 OFFCURVE",
"950 874 OFFCURVE",
"949 849 CURVE SMOOTH",
"947 828 OFFCURVE",
"928 813 OFFCURVE",
"908 814 CURVE SMOOTH",
"888 815 OFFCURVE",
"872 834 OFFCURVE",
"874 854 CURVE",
"874 855 OFFCURVE",
"874 855 OFFCURVE",
"874 855 CURVE",
"873 855 OFFCURVE",
"872 855 OFFCURVE",
"871 855 CURVE SMOOTH",
"814 854 OFFCURVE",
"757 854 OFFCURVE",
"700 854 CURVE SMOOTH",
"631 855 LINE",
"596 855 LINE SMOOTH",
"573 855 OFFCURVE",
"552 854 OFFCURVE",
"529 855 CURVE",
"530 758 LINE SMOOTH",
"530 711 OFFCURVE",
"530 662 OFFCURVE",
"530 615 CURVE",
"620 616 LINE",
"620 616 OFFCURVE",
"620 616 OFFCURVE",
"620 616 CURVE",
"641 616 OFFCURVE",
"658 599 OFFCURVE",
"658 578 CURVE SMOOTH",
"658 558 OFFCURVE",
"641 540 OFFCURVE",
"621 540 CURVE SMOOTH",
"516 539 LINE SMOOTH",
"515 539 OFFCURVE",
"515 539 OFFCURVE",
"514 539 CURVE SMOOTH"
);
},
{
closed = 1;
nodes = (
"316 265 OFFCURVE",
"299 281 OFFCURVE",
"299 301 CURVE",
"299 1036 LINE",
"299 1043 OFFCURVE",
"298 1050 OFFCURVE",
"297 1057 CURVE SMOOTH",
"296 1070 LINE SMOOTH",
"294 1090 OFFCURVE",
"309 1109 OFFCURVE",
"330 1111 CURVE SMOOTH",
"350 1112 OFFCURVE",
"369 1097 OFFCURVE",
"371 1076 CURVE SMOOTH",
"371 1066 LINE SMOOTH",
"373 1056 OFFCURVE",
"374 1046 OFFCURVE",
"374 1036 CURVE SMOOTH",
"374 301 LINE SMOOTH",
"374 281 OFFCURVE",
"357 265 OFFCURVE",
"336 265 CURVE SMOOTH"
);
},
{
closed = 1;
nodes = (
"126 -156 LINE",
"89 -123 LINE",
"89 -123 OFFCURVE",
"86 -97 OFFCURVE",
"86 -85 CURVE SMOOTH",
"86 -47 LINE SMOOTH",
"86 12 OFFCURVE",
"86 19 OFFCURVE",
"86 101 CURVE SMOOTH",
"86 159 OFFCURVE",
"106 179 OFFCURVE",
"164 179 CURVE SMOOTH",
"261 179 LINE SMOOTH",
"301 179 OFFCURVE",
"338 179 OFFCURVE",
"393 179 CURVE SMOOTH",
"446 180 OFFCURVE",
"490 194 OFFCURVE",
"526 222 CURVE SMOOTH",
"573 259 OFFCURVE",
"610 308 OFFCURVE",
"640 374 CURVE SMOOTH",
"666 431 LINE SMOOTH",
"694 491 OFFCURVE",
"721 552 OFFCURVE",
"749 612 CURVE SMOOTH",
"778 673 OFFCURVE",
"828 755 OFFCURVE",
"932 755 CURVE SMOOTH",
"934 755 OFFCURVE",
"935 755 OFFCURVE",
"937 755 CURVE",
"937 755 OFFCURVE",
"938 755 OFFCURVE",
"939 755 CURVE SMOOTH",
"994 755 LINE SMOOTH",
"1038 755 OFFCURVE",
"1081 755 OFFCURVE",
"1124 756 CURVE SMOOTH",
"1149 756 OFFCURVE",
"1173 755 OFFCURVE",
"1191 737 CURVE SMOOTH",
"1209 720 OFFCURVE",
"1210 695 OFFCURVE",
"1210 670 CURVE SMOOTH",
"1210 473 OFFCURVE",
"1210 326 OFFCURVE",
"1210 159 CURVE SMOOTH",
"1210 -78 LINE SMOOTH",
"1210 -116 OFFCURVE",
"1186 -156 OFFCURVE",
"1142 -156 CURVE SMOOTH"
);
},
{
closed = 1;
nodes = (
"1134 -82 LINE",
"1135 -80 OFFCURVE",
"1135 -79 OFFCURVE",
"1135 -78 CURVE SMOOTH",
"1135 159 LINE",
"1135 326 OFFCURVE",
"1135 473 OFFCURVE",
"1135 670 CURVE SMOOTH",
"1135 675 OFFCURVE",
"1135 677 OFFCURVE",
"1135 680 CURVE",
"1132 680 OFFCURVE",
"1130 680 OFFCURVE",
"1125 680 CURVE SMOOTH",
"1081 679 OFFCURVE",
"1038 680 OFFCURVE",
"994 680 CURVE SMOOTH",
"939 680 LINE",
"937 680 OFFCURVE",
"936 680 OFFCURVE",
"935 680 CURVE SMOOTH",
"934 680 OFFCURVE",
"933 680 OFFCURVE",
"932 680 CURVE SMOOTH",
"884 680 OFFCURVE",
"850 651 OFFCURVE",
"817 580 CURVE SMOOTH",
"789 520 OFFCURVE",
"761 460 OFFCURVE",
"734 400 CURVE SMOOTH",
"709 344 LINE SMOOTH",
"674 266 OFFCURVE",
"629 207 OFFCURVE",
"573 163 CURVE SMOOTH",
"523 125 OFFCURVE",
"463 105 OFFCURVE",
"393 105 CURVE SMOOTH",
"338 105 OFFCURVE",
"301 105 OFFCURVE",
"261 105 CURVE SMOOTH",
"164 105 LINE SMOOTH",
"162 105 OFFCURVE",
"161 105 OFFCURVE",
"161 105 CURVE",
"161 104 OFFCURVE",
"161 102 OFFCURVE",
"161 101 CURVE SMOOTH",
"161 19 OFFCURVE",
"161 12 OFFCURVE",
"161 -47 CURVE SMOOTH",
"161 -82 LINE"
);
}
);
width = 1280;
}
);
note = uniE008;
unicode = E008;
},
{
glyphname = uniE009;
lastChange = "2016-11-27 22:44:22 +0000";
layers = (
{
layerId = "3FC06E6C-760F-451F-9A2A-A44F9A2B57A0";
name = Regular;
paths = (
{
closed = 1;
nodes = (
"1068 177 OFFCURVE",
"1050 195 OFFCURVE",
"1050 218 CURVE",
"1050 257 LINE SMOOTH",
"1050 287 OFFCURVE",
"1050 318 OFFCURVE",
"1051 348 CURVE SMOOTH",
"1051 353 OFFCURVE",
"1050 357 OFFCURVE",
"1048 358 CURVE SMOOTH",
"1047 360 OFFCURVE",
"1042 361 OFFCURVE",
"1037 361 CURVE SMOOTH",
"967 361 OFFCURVE",
"897 361 OFFCURVE",
"827 361 CURVE SMOOTH",
"774 361 OFFCURVE",
"721 361 OFFCURVE",
"668 361 CURVE",
"666 360 OFFCURVE",
"664 360 OFFCURVE",
"662 359 CURVE SMOOTH",
"656 358 OFFCURVE",
"647 355 OFFCURVE",
"636 355 CURVE SMOOTH",
"626 355 OFFCURVE",
"617 358 OFFCURVE",
"611 359 CURVE SMOOTH",
"609 360 OFFCURVE",
"607 360 OFFCURVE",
"606 361 CURVE",
"484 361 OFFCURVE",
"361 361 OFFCURVE",
"238 361 CURVE SMOOTH",
"238 361 LINE SMOOTH",
"234 361 OFFCURVE",
"231 360 OFFCURVE",
"230 358 CURVE SMOOTH",
"228 357 OFFCURVE",
"227 354 OFFCURVE",
"228 351 CURVE SMOOTH",
"228 320 OFFCURVE",
"228 289 OFFCURVE",
"228 258 CURVE SMOOTH",
"228 218 LINE SMOOTH",
"228 195 OFFCURVE",
"210 177 OFFCURVE",
"187 177 CURVE SMOOTH",
"165 177 OFFCURVE",
"147 195 OFFCURVE",
"147 218 CURVE SMOOTH",
"147 258 LINE SMOOTH",
"147 289 OFFCURVE",
"147 319 OFFCURVE",
"147 350 CURVE SMOOTH",
"146 375 OFFCURVE",
"155 398 OFFCURVE",
"172 415 CURVE SMOOTH",
"189 432 OFFCURVE",
"213 442 OFFCURVE",
"238 442 CURVE",
"238 442 OFFCURVE",
"238 442 OFFCURVE",
"238 442 CURVE",
"361 441 OFFCURVE",
"484 442 OFFCURVE",
"607 441 CURVE SMOOTH",
"617 441 OFFCURVE",
"625 439 OFFCURVE",
"632 437 CURVE SMOOTH",
"634 437 OFFCURVE",
"636 436 OFFCURVE",
"637 436 CURVE",
"638 436 OFFCURVE",
"640 437 OFFCURVE",
"642 438 CURVE SMOOTH",
"649 439 OFFCURVE",
"658 441 OFFCURVE",
"668 441 CURVE SMOOTH",
"721 442 OFFCURVE",
"774 441 OFFCURVE",
"827 442 CURVE SMOOTH",
"897 442 OFFCURVE",
"966 442 OFFCURVE",
"1036 442 CURVE",
"1064 444 OFFCURVE",
"1089 433 OFFCURVE",
"1106 415 CURVE SMOOTH",
"1118 403 OFFCURVE",
"1132 381 OFFCURVE",
"1131 346 CURVE SMOOTH",
"1131 316 OFFCURVE",
"1131 287 OFFCURVE",
"1131 257 CURVE SMOOTH",
"1131 218 LINE SMOOTH",
"1131 195 OFFCURVE",
"1113 177 OFFCURVE",
"1091 177 CURVE SMOOTH"
);
},
{
closed = 1;
nodes = (
"634 659 OFFCURVE",
"631 659 OFFCURVE",
"628 660 CURVE SMOOTH",
"614 663 LINE SMOOTH",
"608 665 OFFCURVE",
"601 666 OFFCURVE",
"594 668 CURVE SMOOTH",
"529 680 OFFCURVE",
"472 721 OFFCURVE",
"439 779 CURVE SMOOTH",
"406 837 OFFCURVE",
"399 905 OFFCURVE",
"421 968 CURVE SMOOTH",
"460 1081 OFFCURVE",
"573 1144 OFFCURVE",
"691 1118 CURVE SMOOTH",
"782 1098 OFFCURVE",
"873 1008 OFFCURVE",
"869 892 CURVE SMOOTH",
"869 891 OFFCURVE",
"869 889 OFFCURVE",
"869 888 CURVE SMOOTH",
"869 879 LINE SMOOTH",
"868 870 OFFCURVE",
"868 858 OFFCURVE",
"865 847 CURVE SMOOTH",
"846 767 OFFCURVE",
"798 710 OFFCURVE",
"726 681 CURVE SMOOTH",
"708 674 OFFCURVE",
"689 669 OFFCURVE",
"672 665 CURVE SMOOTH",
"665 664 OFFCURVE",
"658 662 OFFCURVE",
"651 660 CURVE SMOOTH",
"647 659 OFFCURVE",
"643 659 OFFCURVE",
"638 659 CURVE SMOOTH"
);
},
{
closed = 1;
nodes = (
"576 1043 OFFCURVE",
"519 1004 OFFCURVE",
"497 942 CURVE SMOOTH",
"483 901 OFFCURVE",
"487 857 OFFCURVE",
"509 819 CURVE SMOOTH",
"531 782 OFFCURVE",
"567 755 OFFCURVE",
"609 747 CURVE SMOOTH",
"618 745 OFFCURVE",
"626 743 OFFCURVE",
"634 741 CURVE SMOOTH",
"638 740 LINE",
"643 742 OFFCURVE",
"648 743 OFFCURVE",
"653 744 CURVE SMOOTH",
"669 748 OFFCURVE",
"683 751 OFFCURVE",
"696 756 CURVE SMOOTH",
"744 775 OFFCURVE",
"773 811 OFFCURVE",
"787 866 CURVE SMOOTH",
"788 869 OFFCURVE",
"788 875 OFFCURVE",
"788 881 CURVE SMOOTH",
"788 885 OFFCURVE",
"788 889 OFFCURVE",
"788 892 CURVE",
"788 893 OFFCURVE",
"788 893 OFFCURVE",
"788 894 CURVE SMOOTH",
"791 968 OFFCURVE",
"731 1027 OFFCURVE",
"674 1039 CURVE SMOOTH",
"662 1042 OFFCURVE",
"651 1043 OFFCURVE",
"639 1043 CURVE SMOOTH"
);
},
{
closed = 1;
nodes = (
"1082 -114 OFFCURVE",
"1071 -113 OFFCURVE",
"1060 -111 CURVE SMOOTH",
"960 -93 OFFCURVE",
"895 -4 OFFCURVE",
"910 97 CURVE SMOOTH",
"919 161 OFFCURVE",
"959 212 OFFCURVE",
"1022 238 CURVE SMOOTH",
"1035 243 OFFCURVE",
"1049 247 OFFCURVE",
"1062 251 CURVE SMOOTH",
"1078 255 LINE SMOOTH",
"1083 257 OFFCURVE",
"1087 257 OFFCURVE",
"1092 257 CURVE",
"1096 257 OFFCURVE",
"1100 256 OFFCURVE",
"1104 255 CURVE SMOOTH",
"1111 253 LINE SMOOTH",
"1114 252 OFFCURVE",
"1117 251 OFFCURVE",
"1120 250 CURVE SMOOTH",
"1167 240 OFFCURVE",
"1203 219 OFFCURVE",
"1232 186 CURVE SMOOTH",
"1258 156 OFFCURVE",
"1272 118 OFFCURVE",
"1275 71 CURVE SMOOTH",
"1277 49 OFFCURVE",
"1271 28 OFFCURVE",
"1264 8 CURVE SMOOTH",
"1237 -67 OFFCURVE",
"1169 -114 OFFCURVE",
"1093 -114 CURVE SMOOTH"
);
},
{
closed = 1;
nodes = (
"1084 173 LINE SMOOTH",
"1073 170 OFFCURVE",
"1063 167 OFFCURVE",
"1053 163 CURVE SMOOTH",
"1016 148 OFFCURVE",
"995 122 OFFCURVE",
"990 85 CURVE SMOOTH",
"982 28 OFFCURVE",
"1017 -22 OFFCURVE",
"1074 -32 CURVE SMOOTH",
"1123 -41 OFFCURVE",
"1170 -13 OFFCURVE",
"1188 36 CURVE SMOOTH",
"1190 42 OFFCURVE",
"1195 57 OFFCURVE",
"1195 65 CURVE SMOOTH",
"1192 95 OFFCURVE",
"1185 117 OFFCURVE",
"1170 134 CURVE SMOOTH",
"1154 153 OFFCURVE",
"1132 165 OFFCURVE",
"1103 171 CURVE SMOOTH",
"1099 172 OFFCURVE",
"1094 173 OFFCURVE",
"1090 175 CURVE"
);
},
{
closed = 1;
nodes = (
"625 -115 OFFCURVE",
"610 -113 OFFCURVE",
"595 -109 CURVE SMOOTH",
"501 -84 OFFCURVE",
"443 3 OFFCURVE",
"458 98 CURVE SMOOTH",
"469 163 OFFCURVE",
"508 213 OFFCURVE",
"571 238 CURVE SMOOTH",
"584 243 OFFCURVE",
"597 247 OFFCURVE",
"610 251 CURVE SMOOTH",
"626 255 LINE SMOOTH",
"630 256 OFFCURVE",
"635 257 OFFCURVE",
"639 257 CURVE",
"643 257 OFFCURVE",
"648 256 OFFCURVE",
"653 255 CURVE SMOOTH",
"662 252 LINE SMOOTH",
"666 250 OFFCURVE",
"670 249 OFFCURVE",
"675 248 CURVE SMOOTH",
"773 228 OFFCURVE",
"836 138 OFFCURVE",
"820 38 CURVE SMOOTH",
"811 -15 OFFCURVE",
"782 -58 OFFCURVE",
"736 -86 CURVE SMOOTH",
"705 -105 OFFCURVE",
"673 -115 OFFCURVE",
"640 -115 CURVE SMOOTH"
);
},
{
closed = 1;
nodes = (
"632 173 LINE SMOOTH",
"621 170 OFFCURVE",
"611 167 OFFCURVE",
"601 163 CURVE SMOOTH",
"565 148 OFFCURVE",
"544 123 OFFCURVE",
"538 86 CURVE SMOOTH",
"530 31 OFFCURVE",
"561 -17 OFFCURVE",
"615 -31 CURVE SMOOTH",
"642 -38 OFFCURVE",
"668 -33 OFFCURVE",
"694 -17 CURVE SMOOTH",
"720 -1 OFFCURVE",
"735 21 OFFCURVE",
"740 50 CURVE SMOOTH",
"749 107 OFFCURVE",
"715 157 OFFCURVE",
"659 169 CURVE SMOOTH",
"652 170 OFFCURVE",
"645 172 OFFCURVE",
"638 175 CURVE"
);
},
{
closed = 1;
nodes = (
"108 -114 OFFCURVE",
"41 -68 OFFCURVE",
"15 8 CURVE SMOOTH",
"-3 59 OFFCURVE",
"1 112 OFFCURVE",
"26 157 CURVE SMOOTH",
"51 202 OFFCURVE",
"96 235 OFFCURVE",
"148 247 CURVE SMOOTH",
"154 249 OFFCURVE",
"160 251 OFFCURVE",
"166 252 CURVE SMOOTH",
"175 255 LINE SMOOTH",
"179 256 OFFCURVE",
"183 257 OFFCURVE",
"187 257 CURVE SMOOTH",
"192 257 OFFCURVE",
"196 256 OFFCURVE",
"200 255 CURVE SMOOTH",
"216 251 LINE SMOOTH",
"229 247 OFFCURVE",
"243 243 OFFCURVE",
"256 238 CURVE SMOOTH",
"319 212 OFFCURVE",
"359 162 OFFCURVE",
"368 97 CURVE SMOOTH",
"383 -4 OFFCURVE",
"318 -94 OFFCURVE",
"218 -111 CURVE SMOOTH",
"207 -113 OFFCURVE",
"196 -114 OFFCURVE",
"184 -114 CURVE SMOOTH"
);
},
{
closed = 1;
nodes = (
"181 173 OFFCURVE",
"173 170 OFFCURVE",
"166 169 CURVE SMOOTH",
"136 162 OFFCURVE",
"111 144 OFFCURVE",
"97 118 CURVE SMOOTH",
"83 93 OFFCURVE",
"81 63 OFFCURVE",
"91 34 CURVE SMOOTH",
"108 -14 OFFCURVE",
"153 -41 OFFCURVE",
"204 -32 CURVE SMOOTH",
"262 -22 OFFCURVE",
"297 27 OFFCURVE",
"288 85 CURVE SMOOTH",
"283 122 OFFCURVE",
"262 148 OFFCURVE",
"225 163 CURVE SMOOTH",
"215 167 OFFCURVE",
"205 170 OFFCURVE",
"194 173 CURVE"
);
},
{
closed = 1;
nodes = (
"617 177 OFFCURVE",
"599 195 OFFCURVE",
"599 218 CURVE SMOOTH",
"599 393 LINE SMOOTH",
"599 415 OFFCURVE",
"617 433 OFFCURVE",
"639 433 CURVE SMOOTH",
"661 433 OFFCURVE",
"679 415 OFFCURVE",
"679 393 CURVE SMOOTH",
"679 218 LINE SMOOTH",
"679 195 OFFCURVE",
"661 177 OFFCURVE",
"639 177 CURVE SMOOTH"
);
},
{
closed = 1;
nodes = (
"617 456 OFFCURVE",
"599 474 OFFCURVE",
"599 497 CURVE SMOOTH",
"599 697 LINE SMOOTH",
"599 719 OFFCURVE",
"617 737 OFFCURVE",
"639 737 CURVE SMOOTH",
"661 737 OFFCURVE",
"679 719 OFFCURVE",
"679 697 CURVE SMOOTH",
"679 497 LINE SMOOTH",
"679 474 OFFCURVE",
"661 456 OFFCURVE",
"639 456 CURVE SMOOTH"
);
}
);
width = 1280;
}
);
note = uniE009;
unicode = E009;
},
{
glyphname = uniE00A;
lastChange = "2016-11-27 22:45:07 +0000";
layers = (
{
layerId = "3FC06E6C-760F-451F-9A2A-A44F9A2B57A0";
name = Regular;
paths = (
{
closed = 1;
nodes = (
"1004 17 OFFCURVE",
"1004 17 OFFCURVE",
"1003 17 CURVE SMOOTH",
"820 18 OFFCURVE",
"638 18 OFFCURVE",
"456 18 CURVE SMOOTH",
"288 18 LINE SMOOTH",
"224 18 OFFCURVE",
"203 35 OFFCURVE",
"189 99 CURVE SMOOTH",
"183 127 OFFCURVE",
"177 156 OFFCURVE",
"170 185 CURVE SMOOTH",
"163 216 OFFCURVE",
"156 247 OFFCURVE",
"149 278 CURVE SMOOTH",
"139 325 OFFCURVE",
"130 372 OFFCURVE",
"121 419 CURVE SMOOTH",
"109 480 LINE SMOOTH",
"105 501 OFFCURVE",
"118 520 OFFCURVE",
"138 524 CURVE SMOOTH",
"158 528 OFFCURVE",
"178 515 OFFCURVE",
"182 495 CURVE SMOOTH",
"194 434 LINE SMOOTH",
"203 387 OFFCURVE",
"212 340 OFFCURVE",
"222 294 CURVE SMOOTH",
"229 263 OFFCURVE",
"236 232 OFFCURVE",
"243 201 CURVE SMOOTH",
"249 172 OFFCURVE",
"256 143 OFFCURVE",
"262 114 CURVE SMOOTH",
"264 103 OFFCURVE",
"266 97 OFFCURVE",
"267 93 CURVE",
"271 93 OFFCURVE",
"277 92 OFFCURVE",
"288 92 CURVE SMOOTH",
"455 92 LINE SMOOTH",
"638 93 OFFCURVE",
"821 93 OFFCURVE",
"1003 92 CURVE",
"1012 93 OFFCURVE",
"1015 92 OFFCURVE",
"1016 93 CURVE",
"1016 93 OFFCURVE",
"1017 96 OFFCURVE",
"1019 103 CURVE SMOOTH",
"1036 180 OFFCURVE",
"1054 257 OFFCURVE",
"1071 334 CURVE SMOOTH",
"1099 452 LINE SMOOTH",
"1101 462 OFFCURVE",
"1102 471 OFFCURVE",
"1104 481 CURVE SMOOTH",
"1106 497 LINE SMOOTH",
"1109 517 OFFCURVE",
"1128 531 OFFCURVE",
"1148 528 CURVE SMOOTH",
"1168 525 OFFCURVE",
"1182 506 OFFCURVE",
"1179 486 CURVE SMOOTH",
"1177 471 LINE SMOOTH",
"1176 459 OFFCURVE",
"1174 447 OFFCURVE",
"1171 436 CURVE SMOOTH",
"1144 318 LINE SMOOTH",
"1126 241 OFFCURVE",
"1108 164 OFFCURVE",
"1091 87 CURVE SMOOTH",
"1081 40 OFFCURVE",
"1053 17 OFFCURVE",
"1004 17 CURVE SMOOTH"
);
},
{
closed = 1;
nodes = (
"1123 462 OFFCURVE",
"1108 472 OFFCURVE",
"1103 487 CURVE",
"1089 488 OFFCURVE",
"1077 497 OFFCURVE",
"1071 511 CURVE SMOOTH",
"1069 516 OFFCURVE",
"1067 521 OFFCURVE",
"1065 526 CURVE SMOOTH",
"1052 555 OFFCURVE",
"1033 599 OFFCURVE",
"1063 647 CURVE SMOOTH",
"1086 684 OFFCURVE",
"1148 719 OFFCURVE",
"1189 707 CURVE SMOOTH",
"1246 691 OFFCURVE",
"1282 645 OFFCURVE",
"1282 590 CURVE SMOOTH",
"1282 537 OFFCURVE",
"1243 487 OFFCURVE",
"1192 474 CURVE SMOOTH",
"1148 463 LINE SMOOTH",
"1145 462 OFFCURVE",
"1142 462 OFFCURVE",
"1139 462 CURVE SMOOTH"
);
},
{
closed = 1;
nodes = (
"1162 635 OFFCURVE",
"1134 621 OFFCURVE",
"1126 607 CURVE SMOOTH",
"1118 594 OFFCURVE",
"1120 585 OFFCURVE",
"1133 556 CURVE SMOOTH",
"1135 550 OFFCURVE",
"1138 544 OFFCURVE",
"1141 538 CURVE",
"1141 538 OFFCURVE",
"1141 538 OFFCURVE",
"1141 538 CURVE",
"1174 546 LINE SMOOTH",
"1193 551 OFFCURVE",
"1208 571 OFFCURVE",
"1208 590 CURVE SMOOTH",
"1208 612 OFFCURVE",
"1193 628 OFFCURVE",
"1169 635 CURVE"
);
},
{
closed = 1;
nodes = (
"233 -143 LINE SMOOTH",
"213 -143 OFFCURVE",
"196 -127 OFFCURVE",
"196 -106 CURVE SMOOTH",
"196 -86 OFFCURVE",
"213 -69 OFFCURVE",
"233 -69 CURVE SMOOTH",
"1054 -69 LINE SMOOTH",
"1075 -69 OFFCURVE",
"1092 -86 OFFCURVE",
"1092 -106 CURVE SMOOTH",
"1092 -127 OFFCURVE",
"1075 -143 OFFCURVE",
"1054 -143 CURVE SMOOTH"
);
},
{
closed = 1;
nodes = (
"424 323 OFFCURVE",
"417 325 OFFCURVE",
"411 329 CURVE SMOOTH",
"179 477 LINE",
"171 465 OFFCURVE",
"155 459 OFFCURVE",
"140 463 CURVE SMOOTH",
"127 466 LINE SMOOTH",
"116 468 OFFCURVE",
"105 471 OFFCURVE",
"94 474 CURVE SMOOTH",
"45 489 OFFCURVE",
"8 534 OFFCURVE",
"5 581 CURVE SMOOTH",
"2 641 OFFCURVE",
"37 687 OFFCURVE",
"102 706 CURVE SMOOTH",
"151 721 OFFCURVE",
"208 682 OFFCURVE",
"230 636 CURVE SMOOTH",
"249 598 OFFCURVE",
"241 565 OFFCURVE",
"228 535 CURVE",
"417 413 LINE",
"424 425 OFFCURVE",
"429 435 OFFCURVE",
"434 446 CURVE SMOOTH",
"464 505 LINE SMOOTH",
"501 580 OFFCURVE",
"538 655 OFFCURVE",
"573 731 CURVE SMOOTH",
"596 781 OFFCURVE",
"631 799 OFFCURVE",
"678 783 CURVE SMOOTH",
"697 777 OFFCURVE",
"708 756 OFFCURVE",
"701 736 CURVE SMOOTH",
"695 717 OFFCURVE",
"674 706 OFFCURVE",
"654 713 CURVE SMOOTH",
"651 714 OFFCURVE",
"649 714 OFFCURVE",
"648 714 CURVE",
"648 714 OFFCURVE",
"645 710 OFFCURVE",
"640 700 CURVE SMOOTH",
"605 623 OFFCURVE",
"568 548 OFFCURVE",
"530 472 CURVE SMOOTH",
"501 413 LINE SMOOTH",
"494 399 OFFCURVE",
"486 385 OFFCURVE",
"478 369 CURVE SMOOTH",
"463 343 LINE SMOOTH",
"458 334 OFFCURVE",
"450 327 OFFCURVE",
"440 324 CURVE SMOOTH",
"437 324 OFFCURVE",
"434 323 OFFCURVE",
"431 323 CURVE SMOOTH"
);
},
{
closed = 1;
nodes = (
"124 635 OFFCURVE",
"124 635 OFFCURVE",
"123 635 CURVE",
"83 623 OFFCURVE",
"79 602 OFFCURVE",
"80 585 CURVE SMOOTH",
"80 571 OFFCURVE",
"95 551 OFFCURVE",
"115 546 CURVE SMOOTH",
"125 543 OFFCURVE",
"135 540 OFFCURVE",
"145 538 CURVE SMOOTH",
"147 538 LINE",
"147 538 OFFCURVE",
"147 538 OFFCURVE",
"147 538 CURVE SMOOTH",
"166 575 OFFCURVE",
"171 588 OFFCURVE",
"163 603 CURVE SMOOTH",
"154 623 OFFCURVE",
"132 635 OFFCURVE",
"124 635 CURVE SMOOTH"
);
},
{
closed = 1;
nodes = (
"850 327 OFFCURVE",
"840 332 OFFCURVE",
"832 341 CURVE SMOOTH",
"828 346 OFFCURVE",
"824 350 OFFCURVE",
"821 355 CURVE SMOOTH",
"811 365 OFFCURVE",
"801 377 OFFCURVE",
"794 391 CURVE SMOOTH",
"772 437 OFFCURVE",
"751 482 OFFCURVE",
"729 528 CURVE SMOOTH",
"701 589 OFFCURVE",
"672 649 OFFCURVE",
"643 709 CURVE SMOOTH",
"642 712 OFFCURVE",
"641 714 OFFCURVE",
"640 716 CURVE",
"626 708 OFFCURVE",
"608 710 OFFCURVE",
"596 722 CURVE SMOOTH",
"582 735 LINE SMOOTH",
"571 746 OFFCURVE",
"559 757 OFFCURVE",
"549 769 CURVE SMOOTH",
"517 809 OFFCURVE",
"518 864 OFFCURVE",
"552 910 CURVE SMOOTH",
"581 948 OFFCURVE",
"631 964 OFFCURVE",
"678 948 CURVE SMOOTH",
"721 934 OFFCURVE",
"750 904 OFFCURVE",
"760 866 CURVE SMOOTH",
"769 827 OFFCURVE",
"755 785 OFFCURVE",
"721 751 CURVE SMOOTH",
"719 749 OFFCURVE",
"716 746 OFFCURVE",
"714 744 CURVE SMOOTH",
"713 743 OFFCURVE",
"711 742 OFFCURVE",
"710 741 CURVE",
"740 679 OFFCURVE",
"768 619 OFFCURVE",
"796 560 CURVE SMOOTH",
"818 514 OFFCURVE",
"839 469 OFFCURVE",
"861 423 CURVE SMOOTH",
"863 420 OFFCURVE",
"865 417 OFFCURVE",
"869 413 CURVE",
"1083 545 LINE SMOOTH",
"1100 556 OFFCURVE",
"1123 550 OFFCURVE",
"1134 533 CURVE SMOOTH",
"1145 516 OFFCURVE",
"1139 493 OFFCURVE",
"1122 482 CURVE SMOOTH",
"881 333 LINE SMOOTH",
"875 329 OFFCURVE",
"868 327 OFFCURVE",
"861 327 CURVE SMOOTH"
);
},
{
closed = 1;
nodes = (
"629 880 OFFCURVE",
"618 875 OFFCURVE",
"611 865 CURVE SMOOTH",
"606 858 OFFCURVE",
"591 835 OFFCURVE",
"607 816 CURVE SMOOTH",
"615 806 OFFCURVE",
"624 797 OFFCURVE",
"634 788 CURVE SMOOTH",
"637 785 OFFCURVE",
"641 781 OFFCURVE",
"645 778 CURVE",
"651 787 OFFCURVE",
"658 794 OFFCURVE",
"663 799 CURVE SMOOTH",
"669 804 LINE SMOOTH",
"684 819 OFFCURVE",
"690 835 OFFCURVE",
"687 849 CURVE SMOOTH",
"684 861 OFFCURVE",
"672 872 OFFCURVE",
"654 878 CURVE SMOOTH",
"650 879 OFFCURVE",
"645 880 OFFCURVE",
"641 880 CURVE SMOOTH"
);
}
);
width = 1280;
}
);
note = uniE00A;
unicode = E00A;
},
{
glyphname = uniE00B;
lastChange = "2016-11-27 22:45:54 +0000";
layers = (
{
layerId = "3FC06E6C-760F-451F-9A2A-A44F9A2B57A0";
name = Regular;
paths = (
{
closed = 1;
nodes = (
"560 126 OFFCURVE",
"549 127 OFFCURVE",
"538 128 CURVE SMOOTH",
"429 137 OFFCURVE",
"340 186 OFFCURVE",
"273 275 CURVE SMOOTH",
"219 346 OFFCURVE",
"195 432 OFFCURVE",
"202 523 CURVE SMOOTH",
"211 625 OFFCURVE",
"255 709 OFFCURVE",
"333 775 CURVE SMOOTH",
"410 839 OFFCURVE",
"502 867 OFFCURVE",
"605 858 CURVE SMOOTH",
"684 852 OFFCURVE",
"754 820 OFFCURVE",
"815 766 CURVE SMOOTH",
"872 713 OFFCURVE",
"912 643 OFFCURVE",
"928 567 CURVE SMOOTH",
"944 489 OFFCURVE",
"937 418 OFFCURVE",
"908 356 CURVE SMOOTH",
"895 327 OFFCURVE",
"881 298 OFFCURVE",
"861 270 CURVE SMOOTH",
"859 268 LINE",
"830 234 OFFCURVE",
"814 218 OFFCURVE",
"786 198 CURVE SMOOTH",
"721 150 OFFCURVE",
"649 126 OFFCURVE",
"571 126 CURVE SMOOTH"
);
},
{
closed = 1;
nodes = (
"497 784 OFFCURVE",
"437 761 OFFCURVE",
"383 716 CURVE SMOOTH",
"321 664 OFFCURVE",
"286 597 OFFCURVE",
"279 516 CURVE SMOOTH",
"272 444 OFFCURVE",
"291 378 OFFCURVE",
"334 321 CURVE SMOOTH",
"388 250 OFFCURVE",
"457 211 OFFCURVE",
"544 204 CURVE SMOOTH",
"616 198 OFFCURVE",
"682 216 OFFCURVE",
"740 259 CURVE SMOOTH",
"762 275 OFFCURVE",
"774 286 OFFCURVE",
"800 317 CURVE",
"815 338 OFFCURVE",
"826 361 OFFCURVE",
"838 386 CURVE SMOOTH",
"861 436 OFFCURVE",
"866 489 OFFCURVE",
"853 552 CURVE SMOOTH",
"840 612 OFFCURVE",
"809 667 OFFCURVE",
"763 709 CURVE SMOOTH",
"715 752 OFFCURVE",
"660 777 OFFCURVE",
"598 782 CURVE SMOOTH",
"588 783 OFFCURVE",
"577 784 OFFCURVE",
"567 784 CURVE SMOOTH"
);
},
{
closed = 1;
nodes = (
"831 293 LINE"
);
},
{
closed = 1;
nodes = (
"945 55 OFFCURVE",
"939 58 OFFCURVE",
"927 68 CURVE",
"926 67 LINE",
"926 68 OFFCURVE",
"925 69 OFFCURVE",
"924 70 CURVE",
"909 83 OFFCURVE",
"886 106 OFFCURVE",
"847 145 CURVE SMOOTH",
"771 222 LINE SMOOTH",
"756 238 OFFCURVE",
"757 262 OFFCURVE",
"772 277 CURVE SMOOTH",
"787 291 OFFCURVE",
"811 291 OFFCURVE",
"826 276 CURVE SMOOTH",
"901 199 LINE SMOOTH",
"931 169 OFFCURVE",
"966 135 OFFCURVE",
"977 125 CURVE",
"977 124 OFFCURVE",
"978 124 OFFCURVE",
"979 123 CURVE SMOOTH",
"989 113 OFFCURVE",
"995 97 OFFCURVE",
"991 84 CURVE SMOOTH",
"988 71 OFFCURVE",
"977 60 OFFCURVE",
"964 57 CURVE SMOOTH",
"959 56 OFFCURVE",
"956 55 OFFCURVE",
"952 55 CURVE SMOOTH"
);
}
);
width = 1280;
}
);
note = uniE00B;
unicode = E00B;
},
{
glyphname = uniE00C;
lastChange = "2016-11-27 23:06:38 +0000";
layers = (
{
layerId = "3FC06E6C-760F-451F-9A2A-A44F9A2B57A0";
name = Regular;
paths = (
{
closed = 1;
nodes = (
"635 -10 LINE SMOOTH",
"508 -10 OFFCURVE",
"435 75 OFFCURVE",
"435 222 CURVE SMOOTH",
"435 596 LINE SMOOTH",
"435 730 OFFCURVE",
"529 790 OFFCURVE",
"623 790 CURVE SMOOTH",
"640 790 LINE SMOOTH",
"676 790 OFFCURVE",
"704 781 OFFCURVE",
"721 763 CURVE SMOOTH",
"749 735 OFFCURVE",
"749 694 OFFCURVE",
"749 650 CURVE SMOOTH",
"748 635 LINE",
"748 280 LINE SMOOTH",
"748 160 OFFCURVE",
"689 129 OFFCURVE",
"640 124 CURVE",
"627 123 LINE SMOOTH",
"599 123 OFFCURVE",
"577 131 OFFCURVE",
"563 146 CURVE SMOOTH",
"538 172 OFFCURVE",
"540 209 OFFCURVE",
"541 249 CURVE SMOOTH",
"541 259 OFFCURVE",
"541 269 OFFCURVE",
"541 280 CURVE SMOOTH",
"541 635 LINE SMOOTH",
"541 652 OFFCURVE",
"555 666 OFFCURVE",
"572 666 CURVE SMOOTH",
"589 666 OFFCURVE",
"604 652 OFFCURVE",
"604 635 CURVE SMOOTH",
"604 280 LINE SMOOTH",
"604 269 OFFCURVE",
"603 257 OFFCURVE",
"603 247 CURVE SMOOTH",
"602 224 OFFCURVE",
"600 196 OFFCURVE",
"607 189 CURVE SMOOTH",
"609 187 OFFCURVE",
"616 185 OFFCURVE",
"627 185 CURVE SMOOTH",
"636 185 LINE",
"651 187 OFFCURVE",
"686 190 OFFCURVE",
"686 280 CURVE SMOOTH",
"686 652 LINE SMOOTH",
"687 681 OFFCURVE",
"687 709 OFFCURVE",
"677 719 CURVE SMOOTH",
"670 727 OFFCURVE",
"652 729 OFFCURVE",
"640 729 CURVE SMOOTH",
"623 729 LINE SMOOTH",
"602 729 OFFCURVE",
"497 722 OFFCURVE",
"497 596 CURVE SMOOTH",
"497 222 LINE SMOOTH",
"497 52 OFFCURVE",
"600 52 OFFCURVE",
"635 52 CURVE SMOOTH",
"647 52 LINE SMOOTH",
"699 52 OFFCURVE",
"796 124 OFFCURVE",
"796 225 CURVE SMOOTH",
"796 637 LINE SMOOTH",
"796 653 OFFCURVE",
"810 667 OFFCURVE",
"827 667 CURVE SMOOTH",
"844 667 OFFCURVE",
"858 653 OFFCURVE",
"858 637 CURVE SMOOTH",
"858 225 LINE SMOOTH",
"858 84 OFFCURVE",
"731 -10 OFFCURVE",
"647 -10 CURVE SMOOTH"
);
}
);
width = 1280;
}
);
note = uniE00C;
unicode = E00C;
},
{
glyphname = uniE00D;
lastChange = "2016-11-27 22:51:28 +0000";
layers = (
{
layerId = "3FC06E6C-760F-451F-9A2A-A44F9A2B57A0";
name = Regular;
paths = (
{
closed = 1;
nodes = (
"201 -71 LINE SMOOTH",
"181 -71 OFFCURVE",
"165 -55 OFFCURVE",
"165 -35 CURVE SMOOTH",
"165 165 LINE SMOOTH",
"165 174 OFFCURVE",
"169 183 OFFCURVE",
"175 190 CURVE SMOOTH",
"878 893 LINE SMOOTH",
"880 894 OFFCURVE",
"881 896 OFFCURVE",
"883 897 CURVE SMOOTH",
"907 914 OFFCURVE",
"934 922 OFFCURVE",
"968 922 CURVE SMOOTH",
"1043 922 OFFCURVE",
"1145 824 OFFCURVE",
"1156 761 CURVE SMOOTH",
"1165 711 OFFCURVE",
"1160 669 OFFCURVE",
"1106 606 CURVE",
"442 -60 LINE SMOOTH",
"435 -67 OFFCURVE",
"426 -71 OFFCURVE",
"416 -71 CURVE SMOOTH"
);
},
{
closed = 1;
nodes = (
"402 0 LINE",
"1053 655 LINE",
"1092 700 OFFCURVE",
"1091 720 OFFCURVE",
"1086 749 CURVE SMOOTH",
"1080 781 OFFCURVE",
"1005 850 OFFCURVE",
"968 851 CURVE SMOOTH",
"968 851 LINE SMOOTH",
"947 851 OFFCURVE",
"936 847 OFFCURVE",
"927 840 CURVE",
"236 150 LINE",
"236 0 LINE"
);
},
{
closed = 1;
nodes = (
"992 547 OFFCURVE",
"983 551 OFFCURVE",
"976 558 CURVE SMOOTH",
"791 745 LINE SMOOTH",
"777 759 OFFCURVE",
"777 782 OFFCURVE",
"791 796 CURVE SMOOTH",
"805 809 OFFCURVE",
"827 809 OFFCURVE",
"841 795 CURVE SMOOTH",
"1027 608 LINE SMOOTH",
"1041 594 OFFCURVE",
"1041 571 OFFCURVE",
"1027 557 CURVE SMOOTH",
"1020 551 OFFCURVE",
"1011 547 OFFCURVE",
"1002 547 CURVE SMOOTH"
);
},
{
closed = 1;
nodes = (
"923 448 OFFCURVE",
"914 452 OFFCURVE",
"907 459 CURVE SMOOTH",
"718 648 LINE SMOOTH",
"704 662 OFFCURVE",
"704 684 OFFCURVE",
"718 698 CURVE SMOOTH",
"732 712 OFFCURVE",
"754 712 OFFCURVE",
"768 698 CURVE SMOOTH",
"957 509 LINE SMOOTH",
"971 495 OFFCURVE",
"971 473 OFFCURVE",
"957 459 CURVE SMOOTH",
"950 452 OFFCURVE",
"941 448 OFFCURVE",
"932 448 CURVE SMOOTH"
);
}
);
width = 1280;
}
);
note = uniE00D;
unicode = E00D;
},
{
glyphname = uniE00E;
lastChange = "2016-11-27 22:50:44 +0000";
layers = (
{
layerId = "3FC06E6C-760F-451F-9A2A-A44F9A2B57A0";
name = Regular;
paths = (
{
closed = 1;
nodes = (
"336 -72 LINE SMOOTH",
"258 -72 OFFCURVE",
"240 -54 OFFCURVE",
"240 24 CURVE SMOOTH",
"240 793 LINE SMOOTH",
"240 813 OFFCURVE",
"256 828 OFFCURVE",
"277 828 CURVE SMOOTH",
"296 828 OFFCURVE",
"313 813 OFFCURVE",
"313 793 CURVE SMOOTH",
"313 24 LINE SMOOTH",
"313 18 OFFCURVE",
"313 7 OFFCURVE",
"313 0 CURVE",
"320 0 OFFCURVE",
"330 0 OFFCURVE",
"336 0 CURVE SMOOTH",
"938 0 LINE SMOOTH",
"947 0 OFFCURVE",
"952 0 OFFCURVE",
"956 0 CURVE",
"957 4 OFFCURVE",
"957 10 OFFCURVE",
"957 19 CURVE SMOOTH",
"957 793 LINE SMOOTH",
"957 813 OFFCURVE",
"973 828 OFFCURVE",
"993 828 CURVE SMOOTH",
"1013 828 OFFCURVE",
"1029 813 OFFCURVE",
"1029 793 CURVE SMOOTH",
"1029 19 LINE SMOOTH",
"1029 -50 OFFCURVE",
"1007 -72 OFFCURVE",
"938 -72 CURVE SMOOTH",
"537 -72 LINE"
);
},
{
closed = 1;
nodes = (
"759 757 OFFCURVE",
"742 773 OFFCURVE",
"742 793 CURVE SMOOTH",
"742 884 LINE",
"527 884 LINE",
"527 793 LINE SMOOTH",
"527 773 OFFCURVE",
"511 757 OFFCURVE",
"491 757 CURVE SMOOTH",
"471 757 OFFCURVE",
"455 773 OFFCURVE",
"455 793 CURVE SMOOTH",
"455 957 LINE",
"815 957 LINE",
"815 793 LINE SMOOTH",
"815 773 OFFCURVE",
"798 757 OFFCURVE",
"779 757 CURVE SMOOTH"
);
},
{
closed = 1;
nodes = (
"427 115 OFFCURVE",
"411 132 OFFCURVE",
"411 152 CURVE SMOOTH",
"411 611 LINE SMOOTH",
"411 631 OFFCURVE",
"427 647 OFFCURVE",
"447 647 CURVE SMOOTH",
"467 647 OFFCURVE",
"483 631 OFFCURVE",
"483 611 CURVE SMOOTH",
"483 152 LINE SMOOTH",
"483 132 OFFCURVE",
"467 115 OFFCURVE",
"447 115 CURVE SMOOTH"
);
},
{
closed = 1;
nodes = (
"615 115 OFFCURVE",
"598 132 OFFCURVE",
"598 152 CURVE SMOOTH",
"598 611 LINE SMOOTH",
"598 631 OFFCURVE",
"615 647 OFFCURVE",
"634 647 CURVE SMOOTH",
"655 647 OFFCURVE",
"671 631 OFFCURVE",
"671 611 CURVE SMOOTH",
"671 152 LINE SMOOTH",
"671 132 OFFCURVE",
"655 115 OFFCURVE",
"634 115 CURVE SMOOTH"
);
},
{
closed = 1;
nodes = (
"802 115 OFFCURVE",
"786 132 OFFCURVE",
"786 152 CURVE SMOOTH",
"786 611 LINE SMOOTH",
"786 631 OFFCURVE",
"802 647 OFFCURVE",
"823 647 CURVE SMOOTH",
"842 647 OFFCURVE",
"859 631 OFFCURVE",
"859 611 CURVE SMOOTH",
"859 152 LINE SMOOTH",
"859 132 OFFCURVE",
"842 115 OFFCURVE",
"823 115 CURVE SMOOTH"
);
},
{
closed = 1;
nodes = (
"171 757 LINE SMOOTH",
"151 757 OFFCURVE",
"134 773 OFFCURVE",
"134 793 CURVE SMOOTH",
"134 813 OFFCURVE",
"151 828 OFFCURVE",
"171 828 CURVE SMOOTH",
"1098 828 LINE SMOOTH",
"1119 828 OFFCURVE",
"1134 813 OFFCURVE",
"1134 793 CURVE SMOOTH",
"1134 773 OFFCURVE",
"1119 757 OFFCURVE",
"1098 757 CURVE SMOOTH"
);
}
);
width = 1280;
}
);
note = uniE00E;
unicode = E00E;
},
{
glyphname = uniE00F;
lastChange = "2016-11-27 22:52:51 +0000";
layers = (
{
layerId = "3FC06E6C-760F-451F-9A2A-A44F9A2B57A0";
name = Regular;
paths = (
{
closed = 1;
nodes = (
"603 238 OFFCURVE",
"567 253 OFFCURVE",
"541 279 CURVE SMOOTH",
"514 306 OFFCURVE",
"499 342 OFFCURVE",
"500 380 CURVE SMOOTH",
"500 458 OFFCURVE",
"563 520 OFFCURVE",
"642 521 CURVE SMOOTH",
"679 522 OFFCURVE",
"718 505 OFFCURVE",
"745 477 CURVE SMOOTH",
"770 450 OFFCURVE",
"784 415 OFFCURVE",
"782 378 CURVE",
"782 378 OFFCURVE",
"782 378 OFFCURVE",
"782 378 CURVE",
"782 298 OFFCURVE",
"721 238 OFFCURVE",
"639 238 CURVE SMOOTH",
"639 238 OFFCURVE",
"639 238 OFFCURVE",
"638 238 CURVE SMOOTH"
);
},
{
closed = 1;
nodes = (
"643 448 OFFCURVE",
"643 448 OFFCURVE",
"643 448 CURVE SMOOTH",
"603 448 OFFCURVE",
"573 418 OFFCURVE",
"572 379 CURVE SMOOTH",
"572 361 OFFCURVE",
"579 343 OFFCURVE",
"592 330 CURVE SMOOTH",
"605 318 OFFCURVE",
"622 310 OFFCURVE",
"638 310 CURVE",
"638 310 OFFCURVE",
"638 310 OFFCURVE",
"638 310 CURVE",
"681 310 OFFCURVE",
"710 338 OFFCURVE",
"710 378 CURVE",
"710 378 OFFCURVE",
"710 378 OFFCURVE",
"710 379 CURVE SMOOTH",
"710 379 OFFCURVE",
"710 380 OFFCURVE",
"710 381 CURVE SMOOTH",
"711 403 OFFCURVE",
"701 418 OFFCURVE",
"692 426 CURVE SMOOTH",
"679 440 OFFCURVE",
"660 448 OFFCURVE",
"643 448 CURVE SMOOTH"
);
},
{
closed = 1;
nodes = (
"936 237 OFFCURVE",
"882 274 OFFCURVE",
"860 332 CURVE SMOOTH",
"844 373 OFFCURVE",
"850 420 OFFCURVE",
"876 458 CURVE SMOOTH",
"902 497 OFFCURVE",
"946 520 OFFCURVE",
"992 521 CURVE SMOOTH",
"999 521 LINE SMOOTH",
"1000 521 OFFCURVE",
"1001 521 OFFCURVE",
"1002 521 CURVE",
"1005 521 OFFCURVE",
"1008 521 OFFCURVE",
"1011 520 CURVE SMOOTH",
"1048 513 OFFCURVE",
"1079 495 OFFCURVE",
"1103 467 CURVE SMOOTH",
"1132 432 OFFCURVE",
"1142 384 OFFCURVE",
"1129 339 CURVE SMOOTH",
"1115 293 OFFCURVE",
"1080 258 OFFCURVE",
"1033 243 CURVE SMOOTH",
"1020 239 OFFCURVE",
"1006 237 OFFCURVE",
"993 237 CURVE SMOOTH"
);
},
{
closed = 1;
nodes = (
"970 448 OFFCURVE",
"949 437 OFFCURVE",
"936 417 CURVE SMOOTH",
"923 399 OFFCURVE",
"920 376 OFFCURVE",
"927 357 CURVE SMOOTH",
"941 322 OFFCURVE",
"978 302 OFFCURVE",
"1011 312 CURVE SMOOTH",
"1044 322 OFFCURVE",
"1055 346 OFFCURVE",
"1059 360 CURVE SMOOTH",
"1066 381 OFFCURVE",
"1061 404 OFFCURVE",
"1047 420 CURVE SMOOTH",
"1035 435 OFFCURVE",
"1020 444 OFFCURVE",
"1001 448 CURVE"
);
},
{
closed = 1;
nodes = (
"219 237 OFFCURVE",
"159 290 OFFCURVE",
"151 362 CURVE SMOOTH",
"142 439 OFFCURVE",
"193 505 OFFCURVE",
"272 520 CURVE SMOOTH",
"281 522 OFFCURVE",
"289 521 OFFCURVE",
"296 521 CURVE SMOOTH",
"302 521 LINE SMOOTH",
"302 521 OFFCURVE",
"303 521 OFFCURVE",
"303 521 CURVE SMOOTH",
"306 521 OFFCURVE",
"309 521 OFFCURVE",
"311 520 CURVE SMOOTH",
"344 512 OFFCURVE",
"371 498 OFFCURVE",
"393 476 CURVE SMOOTH",
"428 442 OFFCURVE",
"441 377 OFFCURVE",
"423 329 CURVE SMOOTH",
"403 276 OFFCURVE",
"350 239 OFFCURVE",
"294 237 CURVE SMOOTH",
"293 237 OFFCURVE",
"292 237 OFFCURVE",
"291 237 CURVE SMOOTH"
);
},
{
closed = 1;
nodes = (
"287 449 OFFCURVE",
"286 449 OFFCURVE",
"285 449 CURVE SMOOTH",
"243 441 OFFCURVE",
"218 410 OFFCURVE",
"223 370 CURVE SMOOTH",
"226 340 OFFCURVE",
"251 310 OFFCURVE",
"293 310 CURVE SMOOTH",
"321 311 OFFCURVE",
"347 333 OFFCURVE",
"355 354 CURVE SMOOTH",
"363 376 OFFCURVE",
"357 410 OFFCURVE",
"342 425 CURVE SMOOTH",
"331 436 OFFCURVE",
"317 444 OFFCURVE",
"298 449 CURVE",
"292 449 LINE SMOOTH",
"291 449 OFFCURVE",
"289 449 OFFCURVE",
"287 449 CURVE SMOOTH"
);
}
);
width = 1280;
}
);
note = uniE00F;
unicode = E00F;
},
{
glyphname = uniF000;
layers = (
{
layerId = "3FC06E6C-760F-451F-9A2A-A44F9A2B57A0";
name = Regular;
paths = (
{
closed = 1;
nodes = (
"825.99 944.99 LINE SMOOTH",
"882.99 943.99 OFFCURVE",
"908.98 906 OFFCURVE",
"908.98 866 CURVE SMOOTH",
"908.98 843 LINE",
"971 843 LINE SMOOTH",
"1006 843 OFFCURVE",
"1030.99 831 OFFCURVE",
"1047.01 806 CURVE",
"1074.01 776 OFFCURVE",
"1079.01 721.01 OFFCURVE",
"1060.01 640.01 CURVE SMOOTH",
"1047.02 579.01 OFFCURVE",
"1027.02 545.01 OFFCURVE",
"974.02 516.01 CURVE SMOOTH",
"947.03 501 OFFCURVE",
"921.02 494.01 OFFCURVE",
"894.02 495 CURVE",
"883.02 495 LINE",
"866.02 460 OFFCURVE",
"844 431 OFFCURVE",
"817 410 CURVE",
"780 376 OFFCURVE",
"737.01 354.98 OFFCURVE",
"687.01 348 CURVE",
"683.01 348 LINE",
"683.01 246.99 LINE",
"781.01 246.99 LINE",
"806.02 245.99 OFFCURVE",
"826.02 227.99 OFFCURVE",
"826.02 203.99 CURVE SMOOTH",
"826.02 180 OFFCURVE",
"806.02 157.98 OFFCURVE",
"781.01 157.98 CURVE SMOOTH",
"497.01 157.98 LINE SMOOTH",
"474.01 157.98 OFFCURVE",
"454.01 180 OFFCURVE",
"454.01 203.99 CURVE SMOOTH",
"454.01 227.99 OFFCURVE",
"474.01 248 OFFCURVE",
"497.01 247 CURVE",
"593.02 247 LINE",
"593.02 346 LINE",
"587.02 346 OFFCURVE",
"583 347 OFFCURVE",
"582 348 CURVE",
"519 360.99 OFFCURVE",
"467 392.99 OFFCURVE",
"425 443.99 CURVE SMOOTH",
"416 454.99 OFFCURVE",
"395.01 486 OFFCURVE",
"389.99 494.99 CURVE",
"382 494.99 LINE SMOOTH",
"349 494.99 OFFCURVE",
"320 502.99 OFFCURVE",
"293.99 517.99 CURVE SMOOTH",
"242.99 547.99 OFFCURVE",
"214.99 593.99 OFFCURVE",
"210.97 654.99 CURVE",
"210.97 754.99 LINE SMOOTH",
"210.97 794.99 OFFCURVE",
"229.98 822.99 OFFCURVE",
"266.98 837.99 CURVE",
"283.98 840.99 OFFCURVE",
"296.97 841.99 OFFCURVE",
"304.97 842.99 CURVE",
"364.97 842.99 LINE",
"363.97 846.99 OFFCURVE",
"363.97 851.99 OFFCURVE",
"364.97 857.99 CURVE",
"364.97 915.99 OFFCURVE",
"395.96 944.99 OFFCURVE",
"456.96 944.99 CURVE SMOOTH"
);
},
{
closed = 1;
nodes = (
"820.95 622.99 LINE",
"820.95 768.01 LINE SMOOTH",
"820.95 777 OFFCURVE",
"822.95 786.99 OFFCURVE",
"825.95 797.99 CURVE",
"822.95 812 OFFCURVE",
"821.95 823 OFFCURVE",
"820.95 830 CURVE",
"820.98 854.99 LINE",
"453.98 854.99 LINE",
"453.98 842.99 LINE SMOOTH",
"453.98 824.99 OFFCURVE",
"452.99 808.97 OFFCURVE",
"449.99 795.98 CURVE",
"452.99 788.98 OFFCURVE",
"453.98 780.97 OFFCURVE",
"453.98 771.98 CURVE SMOOTH",
"453.98 616.99 LINE",
"459 566.99 LINE",
"459 558.99 LINE",
"467.99 540 OFFCURVE",
"478.99 519.99 OFFCURVE",
"492.99 499 CURVE",
"522.99 465 OFFCURVE",
"558.98 443.99 OFFCURVE",
"601.98 435 CURVE",
"602.98 434 OFFCURVE",
"605.97 433 OFFCURVE",
"609.99 433 CURVE",
"639.99 427 LINE",
"641.98 427 LINE",
"669.98 433 LINE SMOOTH",
"734.98 445 OFFCURVE",
"786.98 496 OFFCURVE",
"799.98 528 CURVE SMOOTH",
"806.98 544 OFFCURVE",
"811.98 554 OFFCURVE",
"816.98 559 CURVE",
"816.98 576.02 LINE",
"818.98 595 LINE"
);
},
{
closed = 1;
nodes = (
"362.97 753.01 LINE",
"302.97 753.01 LINE",
"300.98 723.01 LINE",
"300.98 679.02 OFFCURVE",
"289.98 626.02 OFFCURVE",
"340.98 595.01 CURVE",
"346.98 591.02 OFFCURVE",
"355.97 588.02 OFFCURVE",
"366.97 585.03 CURVE",
"363.98 600.02 OFFCURVE",
"362.98 644.02 OFFCURVE",
"362.98 719.02 CURVE"
);
},
{
closed = 1;
nodes = (
"908.97 753.02 LINE",
"908.97 742.02 LINE SMOOTH",
"909.97 705.02 OFFCURVE",
"909.97 665.02 OFFCURVE",
"908.97 621.02 CURVE SMOOTH",
"908.97 585.02 LINE",
"952.99 593.02 OFFCURVE",
"962.99 619.01 OFFCURVE",
"974.99 659.01 CURVE",
"984.99 712.01 OFFCURVE",
"985.99 742.01 OFFCURVE",
"977.99 750.01 CURVE SMOOTH",
"977 751 OFFCURVE",
"977 752 OFFCURVE",
"977 753 CURVE"
);
}
);
width = 1280;
}
);
note = uniF000;
unicode = F000;
},
{
glyphname = uniF001;
lastChange = "2016-11-27 22:47:28 +0000";
layers = (
{
layerId = "3FC06E6C-760F-451F-9A2A-A44F9A2B57A0";
name = Regular;
paths = (
{
closed = 1;
nodes = (
"626 -105 OFFCURVE",
"608 -104 OFFCURVE",
"589 -102 CURVE SMOOTH",
"502 -93 OFFCURVE",
"422 -63 OFFCURVE",
"349 -12 CURVE SMOOTH",
"343 -7 OFFCURVE",
"337 -3 OFFCURVE",
"331 2 CURVE SMOOTH",
"319 11 OFFCURVE",
"308 20 OFFCURVE",
"295 27 CURVE SMOOTH",
"269 40 OFFCURVE",
"258 63 OFFCURVE",
"251 77 CURVE SMOOTH",
"248 82 OFFCURVE",
"246 87 OFFCURVE",
"244 90 CURVE SMOOTH",
"148 208 OFFCURVE",
"113 345 OFFCURVE",
"140 496 CURVE SMOOTH",
"159 605 OFFCURVE",
"209 698 OFFCURVE",
"289 774 CURVE SMOOTH",
"415 892 OFFCURVE",
"564 938 OFFCURVE",
"732 908 CURVE SMOOTH",
"855 887 OFFCURVE",
"959 825 OFFCURVE",
"1041 723 CURVE SMOOTH",
"1191 539 OFFCURVE",
"1191 272 OFFCURVE",
"1041 89 CURVE SMOOTH",
"1037 83 OFFCURVE",
"1032 74 OFFCURVE",
"1027 64 CURVE SMOOTH",
"1025 58 OFFCURVE",
"1022 52 OFFCURVE",
"1019 47 CURVE SMOOTH",
"1013 36 OFFCURVE",
"1004 29 OFFCURVE",
"993 26 CURVE",
"990 24 OFFCURVE",
"987 23 OFFCURVE",
"984 21 CURVE SMOOTH",
"974 16 OFFCURVE",
"965 10 OFFCURVE",
"956 4 CURVE SMOOTH",
"862 -68 OFFCURVE",
"758 -105 OFFCURVE",
"644 -105 CURVE SMOOTH"
);
},
{
closed = 1;
nodes = (
"529 831 OFFCURVE",
"432 791 OFFCURVE",
"347 711 CURVE SMOOTH",
"281 649 OFFCURVE",
"240 572 OFFCURVE",
"224 481 CURVE SMOOTH",
"202 356 OFFCURVE",
"231 242 OFFCURVE",
"310 143 CURVE SMOOTH",
"318 134 OFFCURVE",
"323 124 OFFCURVE",
"327 116 CURVE SMOOTH",
"330 110 OFFCURVE",
"333 103 OFFCURVE",
"336 102 CURVE SMOOTH",
"353 92 OFFCURVE",
"368 81 OFFCURVE",
"383 70 CURVE SMOOTH",
"399 58 LINE SMOOTH",
"459 15 OFFCURVE",
"526 -10 OFFCURVE",
"598 -17 CURVE SMOOTH",
"712 -28 OFFCURVE",
"812 1 OFFCURVE",
"904 72 CURVE SMOOTH",
"916 81 OFFCURVE",
"929 88 OFFCURVE",
"942 96 CURVE SMOOTH",
"950 100 LINE",
"950 101 OFFCURVE",
"950 101 OFFCURVE",
"951 102 CURVE SMOOTH",
"957 115 OFFCURVE",
"964 129 OFFCURVE",
"975 143 CURVE SMOOTH",
"1099 295 OFFCURVE",
"1099 516 OFFCURVE",
"975 669 CURVE SMOOTH",
"905 756 OFFCURVE",
"821 806 OFFCURVE",
"718 824 CURVE SMOOTH",
"690 829 OFFCURVE",
"663 831 OFFCURVE",
"637 831 CURVE SMOOTH"
);
},
{
closed = 1;
nodes = (
"88 698 LINE",
"26 743 OFFCURVE",
"17 809 OFFCURVE",
"15 855 CURVE SMOOTH",
"9 986 OFFCURVE",
"105 1096 OFFCURVE",
"238 1111 CURVE SMOOTH",
"307 1119 OFFCURVE",
"369 1101 OFFCURVE",
"411 1056 CURVE",
"449 1005 LINE",
"422 969 LINE SMOOTH",
"414 958 OFFCURVE",
"406 946 OFFCURVE",
"397 937 CURVE SMOOTH",
"328 867 OFFCURVE",
"259 798 OFFCURVE",
"189 729 CURVE SMOOTH",
"180 720 OFFCURVE",
"169 712 OFFCURVE",
"157 704 CURVE SMOOTH",
"129 683 LINE"
);
},
{
closed = 1;
nodes = (
"262 1027 OFFCURVE",
"255 1027 OFFCURVE",
"247 1026 CURVE SMOOTH",
"160 1016 OFFCURVE",
"97 944 OFFCURVE",
"100 859 CURVE SMOOTH",
"102 824 OFFCURVE",
"108 801 OFFCURVE",
"121 783 CURVE",
"124 785 OFFCURVE",
"127 788 OFFCURVE",
"129 790 CURVE SMOOTH",
"199 859 OFFCURVE",
"268 928 OFFCURVE",
"336 997 CURVE SMOOTH",
"338 999 OFFCURVE",
"341 1002 OFFCURVE",
"343 1005 CURVE",
"327 1019 OFFCURVE",
"302 1027 OFFCURVE",
"270 1027 CURVE SMOOTH"
);
},
{
closed = 1;
nodes = (
"1127 704 LINE SMOOTH",
"1116 712 OFFCURVE",
"1105 720 OFFCURVE",
"1095 729 CURVE SMOOTH",
"1025 798 OFFCURVE",
"956 867 OFFCURVE",
"887 937 CURVE SMOOTH",
"878 946 OFFCURVE",
"870 958 OFFCURVE",
"862 969 CURVE SMOOTH",
"835 1006 LINE",
"873 1056 LINE",
"883 1072 OFFCURVE",
"898 1079 OFFCURVE",
"908 1084 CURVE SMOOTH",
"1030 1145 OFFCURVE",
"1166 1101 OFFCURVE",
"1234 992 CURVE SMOOTH",
"1289 904 OFFCURVE",
"1281 780 OFFCURVE",
"1215 715 CURVE",
"1210 711 LINE",
"1164 677 LINE"
);
},
{
closed = 1;
nodes = (
"944 1002 OFFCURVE",
"946 1000 OFFCURVE",
"948 997 CURVE SMOOTH",
"1017 928 OFFCURVE",
"1086 859 OFFCURVE",
"1155 790 CURVE SMOOTH",
"1157 788 OFFCURVE",
"1160 786 OFFCURVE",
"1162 784 CURVE",
"1189 820 OFFCURVE",
"1196 891 OFFCURVE",
"1162 946 CURVE SMOOTH",
"1130 997 OFFCURVE",
"1079 1027 OFFCURVE",
"1023 1027 CURVE SMOOTH",
"998 1027 OFFCURVE",
"972 1020 OFFCURVE",
"949 1009 CURVE SMOOTH",
"945 1007 OFFCURVE",
"943 1006 OFFCURVE",
"942 1005 CURVE"
);
},
{
closed = 1;
nodes = (
"766 222 OFFCURVE",
"757 224 OFFCURVE",
"750 229 CURVE SMOOTH",
"731 243 OFFCURVE",
"706 262 OFFCURVE",
"683 281 CURVE SMOOTH",
"666 295 OFFCURVE",
"649 308 OFFCURVE",
"636 318 CURVE SMOOTH",
"611 337 OFFCURVE",
"599 364 OFFCURVE",
"599 399 CURVE SMOOTH",
"600 459 OFFCURVE",
"600 539 OFFCURVE",
"599 609 CURVE SMOOTH",
"599 675 LINE",
"599 699 OFFCURVE",
"619 718 OFFCURVE",
"642 718 CURVE SMOOTH",
"666 718 OFFCURVE",
"685 699 OFFCURVE",
"685 675 CURVE SMOOTH",
"685 609 LINE SMOOTH",
"685 539 OFFCURVE",
"685 458 OFFCURVE",
"685 398 CURVE SMOOTH",
"684 389 OFFCURVE",
"686 388 OFFCURVE",
"687 387 CURVE SMOOTH",
"701 376 OFFCURVE",
"718 362 OFFCURVE",
"736 348 CURVE SMOOTH",
"758 330 OFFCURVE",
"781 312 OFFCURVE",
"799 299 CURVE SMOOTH",
"819 286 OFFCURVE",
"823 259 OFFCURVE",
"810 240 CURVE SMOOTH",
"801 228 OFFCURVE",
"788 222 OFFCURVE",
"775 222 CURVE SMOOTH"
);
},
{
closed = 1;
nodes = (
"182 -88 OFFCURVE",
"172 -85 OFFCURVE",
"164 -78 CURVE SMOOTH",
"146 -62 OFFCURVE",
"144 -35 OFFCURVE",
"160 -17 CURVE SMOOTH",
"185 11 OFFCURVE",
"212 38 OFFCURVE",
"238 63 CURVE SMOOTH",
"249 74 OFFCURVE",
"260 84 OFFCURVE",
"271 95 CURVE SMOOTH",
"287 112 OFFCURVE",
"314 112 OFFCURVE",
"331 95 CURVE SMOOTH",
"348 78 OFFCURVE",
"348 51 OFFCURVE",
"331 34 CURVE SMOOTH",
"320 23 OFFCURVE",
"309 13 OFFCURVE",
"298 2 CURVE SMOOTH",
"272 -24 OFFCURVE",
"247 -48 OFFCURVE",
"224 -74 CURVE SMOOTH",
"216 -83 OFFCURVE",
"204 -88 OFFCURVE",
"192 -88 CURVE SMOOTH"
);
},
{
closed = 1;
nodes = (
"1081 -88 OFFCURVE",
"1069 -83 OFFCURVE",
"1060 -74 CURVE SMOOTH",
"1038 -48 OFFCURVE",
"1013 -24 OFFCURVE",
"986 2 CURVE SMOOTH",
"975 13 OFFCURVE",
"964 23 OFFCURVE",
"953 34 CURVE SMOOTH",
"937 51 OFFCURVE",
"937 78 OFFCURVE",
"953 95 CURVE SMOOTH",
"970 112 OFFCURVE",
"997 112 OFFCURVE",
"1014 95 CURVE SMOOTH",
"1024 84 OFFCURVE",
"1035 74 OFFCURVE",
"1046 63 CURVE SMOOTH",
"1072 38 OFFCURVE",
"1100 11 OFFCURVE",
"1125 -17 CURVE SMOOTH",
"1140 -35 OFFCURVE",
"1138 -62 OFFCURVE",
"1121 -78 CURVE SMOOTH",
"1112 -85 OFFCURVE",
"1102 -88 OFFCURVE",
"1093 -88 CURVE SMOOTH"
);
}
);
width = 1280;
}
);
note = uniF001;
unicode = F001;
},
{
glyphname = uniF002;
lastChange = "2016-11-27 22:47:56 +0000";
layers = (
{
layerId = "3FC06E6C-760F-451F-9A2A-A44F9A2B57A0";
name = Regular;
paths = (
{
closed = 1;
nodes = (
"958 -61 LINE SMOOTH",
"927 -61 OFFCURVE",
"898 -47 OFFCURVE",
"880 -37 CURVE SMOOTH",
"834 -11 OFFCURVE",
"791 13 OFFCURVE",
"748 36 CURVE SMOOTH",
"721 51 OFFCURVE",
"695 65 OFFCURVE",
"668 81 CURVE SMOOTH",
"648 92 OFFCURVE",
"634 93 OFFCURVE",
"615 85 CURVE SMOOTH",
"569 64 OFFCURVE",
"524 39 OFFCURVE",
"480 15 CURVE SMOOTH",
"444 -5 OFFCURVE",
"408 -24 OFFCURVE",
"371 -42 CURVE SMOOTH",
"353 -52 OFFCURVE",
"333 -53 OFFCURVE",
"319 -53 CURVE SMOOTH",
"299 -53 OFFCURVE",
"280 -49 OFFCURVE",
"265 -41 CURVE SMOOTH",
"233 -24 OFFCURVE",
"208 20 OFFCURVE",
"211 55 CURVE SMOOTH",
"214 103 OFFCURVE",
"228 192 OFFCURVE",
"239 264 CURVE SMOOTH",
"246 307 OFFCURVE",
"253 355 OFFCURVE",
"253 365 CURVE",
"253 369 OFFCURVE",
"246 377 OFFCURVE",
"233 389 CURVE SMOOTH",
"229 393 OFFCURVE",
"224 398 OFFCURVE",
"220 402 CURVE SMOOTH",
"195 429 OFFCURVE",
"168 455 OFFCURVE",
"142 481 CURVE SMOOTH",
"111 511 OFFCURVE",
"81 541 OFFCURVE",
"52 572 CURVE SMOOTH",
"12 616 OFFCURVE",
"-2 666 OFFCURVE",
"13 710 CURVE SMOOTH",
"27 751 OFFCURVE",
"64 779 OFFCURVE",
"114 788 CURVE SMOOTH",
"154 794 OFFCURVE",
"186 797 OFFCURVE",
"224 801 CURVE SMOOTH",
"252 804 OFFCURVE",
"283 807 OFFCURVE",
"322 812 CURVE SMOOTH",
"382 820 OFFCURVE",
"408 836 OFFCURVE",
"426 875 CURVE SMOOTH",
"454 938 OFFCURVE",
"488 1011 OFFCURVE",
"529 1079 CURVE SMOOTH",
"533 1087 LINE SMOOTH",
"549 1114 OFFCURVE",
"575 1159 OFFCURVE",
"640 1159 CURVE SMOOTH",
"703 1159 OFFCURVE",
"732 1111 OFFCURVE",
"749 1082 CURVE SMOOTH",
"791 1011 OFFCURVE",
"824 941 OFFCURVE",
"854 875 CURVE SMOOTH",
"871 837 OFFCURVE",
"896 818 OFFCURVE",
"938 813 CURVE SMOOTH",
"1013 805 LINE SMOOTH",
"1061 800 OFFCURVE",
"1110 794 OFFCURVE",
"1158 788 CURVE SMOOTH",
"1206 782 OFFCURVE",
"1243 759 OFFCURVE",
"1261 724 CURVE SMOOTH",
"1278 690 OFFCURVE",
"1275 648 OFFCURVE",
"1252 606 CURVE SMOOTH",
"1246 595 OFFCURVE",
"1234 582 OFFCURVE",
"1159 504 CURVE SMOOTH",
"1112 455 OFFCURVE",
"1040 382 OFFCURVE",
"1030 365 CURVE SMOOTH",
"1027 361 OFFCURVE",
"1026 354 OFFCURVE",
"1026 351 CURVE",
"1034 294 OFFCURVE",
"1042 255 OFFCURVE",
"1049 219 CURVE SMOOTH",
"1056 182 OFFCURVE",
"1063 148 OFFCURVE",
"1070 101 CURVE SMOOTH",
"1074 69 OFFCURVE",
"1083 2 OFFCURVE",
"1021 -41 CURVE SMOOTH",
"1002 -55 OFFCURVE",
"981 -61 OFFCURVE",
"958 -61 CURVE SMOOTH"
);
},
{
closed = 1;
nodes = (
"661 177 OFFCURVE",
"686 171 OFFCURVE",
"710 157 CURVE SMOOTH",
"737 142 OFFCURVE",
"763 128 OFFCURVE",
"790 113 CURVE SMOOTH",
"833 89 OFFCURVE",
"877 66 OFFCURVE",
"923 39 CURVE SMOOTH",
"939 30 OFFCURVE",
"950 26 OFFCURVE",
"958 26 CURVE SMOOTH",
"962 26 OFFCURVE",
"965 26 OFFCURVE",
"971 30 CURVE SMOOTH",
"987 41 OFFCURVE",
"988 57 OFFCURVE",
"983 89 CURVE SMOOTH",
"977 134 OFFCURVE",
"970 167 OFFCURVE",
"964 202 CURVE SMOOTH",
"956 239 OFFCURVE",
"948 279 OFFCURVE",
"939 339 CURVE SMOOTH",
"936 363 OFFCURVE",
"943 392 OFFCURVE",
"956 413 CURVE SMOOTH",
"971 435 OFFCURVE",
"1021 487 OFFCURVE",
"1096 565 CURVE SMOOTH",
"1130 599 OFFCURVE",
"1171 642 OFFCURVE",
"1178 651 CURVE",
"1184 663 OFFCURVE",
"1187 677 OFFCURVE",
"1183 685 CURVE SMOOTH",
"1179 693 OFFCURVE",
"1165 699 OFFCURVE",
"1146 701 CURVE SMOOTH",
"1099 708 OFFCURVE",
"1051 713 OFFCURVE",
"1004 718 CURVE SMOOTH",
"928 727 LINE SMOOTH",
"856 735 OFFCURVE",
"804 773 OFFCURVE",
"774 839 CURVE SMOOTH",
"746 903 OFFCURVE",
"714 970 OFFCURVE",
"676 1034 CURVE SMOOTH",
"659 1063 OFFCURVE",
"651 1072 OFFCURVE",
"640 1072 CURVE SMOOTH",
"628 1072 OFFCURVE",
"624 1069 OFFCURVE",
"609 1043 CURVE SMOOTH",
"604 1034 LINE SMOOTH",
"565 970 OFFCURVE",
"533 900 OFFCURVE",
"505 839 CURVE SMOOTH",
"466 754 OFFCURVE",
"396 734 OFFCURVE",
"333 726 CURVE SMOOTH",
"293 721 OFFCURVE",
"262 717 OFFCURVE",
"233 714 CURVE SMOOTH",
"197 711 OFFCURVE",
"166 708 OFFCURVE",
"129 701 CURVE SMOOTH",
"111 698 OFFCURVE",
"99 691 OFFCURVE",
"96 682 CURVE SMOOTH",
"92 672 OFFCURVE",
"96 654 OFFCURVE",
"117 631 CURVE SMOOTH",
"144 601 OFFCURVE",
"174 572 OFFCURVE",
"203 544 CURVE SMOOTH",
"230 517 OFFCURVE",
"258 490 OFFCURVE",
"284 462 CURVE SMOOTH",
"287 458 OFFCURVE",
"291 455 OFFCURVE",
"295 451 CURVE SMOOTH",
"313 433 OFFCURVE",
"339 408 OFFCURVE",
"341 367 CURVE SMOOTH",
"341 356 OFFCURVE",
"338 335 OFFCURVE",
"325 251 CURVE SMOOTH",
"315 180 OFFCURVE",
"301 93 OFFCURVE",
"298 48 CURVE",
"298 46 OFFCURVE",
"303 38 OFFCURVE",
"307 35 CURVE",
"307 35 OFFCURVE",
"311 34 OFFCURVE",
"319 34 CURVE SMOOTH",
"327 34 OFFCURVE",
"331 35 OFFCURVE",
"332 36 CURVE SMOOTH",
"368 54 OFFCURVE",
"403 73 OFFCURVE",
"438 92 CURVE SMOOTH",
"483 116 OFFCURVE",
"530 142 OFFCURVE",
"579 164 CURVE SMOOTH",
"598 173 OFFCURVE",
"617 177 OFFCURVE",
"637 177 CURVE SMOOTH"
);
}
);
width = 1280;
}
);
note = uniF002;
unicode = F002;
},
{
glyphname = uniF003;
lastChange = "2016-11-27 22:48:44 +0000";
layers = (
{
layerId = "3FC06E6C-760F-451F-9A2A-A44F9A2B57A0";
name = Regular;
paths = (
{
closed = 1;
nodes = (
"325 -46 OFFCURVE",
"60 219 OFFCURVE",
"60 544 CURVE SMOOTH",
"60 870 OFFCURVE",
"325 1134 OFFCURVE",
"650 1134 CURVE SMOOTH",
"976 1134 OFFCURVE",
"1240 870 OFFCURVE",
"1240 544 CURVE SMOOTH",
"1240 219 OFFCURVE",
"976 -46 OFFCURVE",
"650 -46 CURVE SMOOTH"
);
},
{
closed = 1;
nodes = (
"371 1049 OFFCURVE",
"145 823 OFFCURVE",
"145 544 CURVE SMOOTH",
"145 266 OFFCURVE",
"371 39 OFFCURVE",
"650 39 CURVE SMOOTH",
"929 39 OFFCURVE",
"1156 266 OFFCURVE",
"1156 544 CURVE SMOOTH",
"1156 823 OFFCURVE",
"929 1049 OFFCURVE",
"650 1049 CURVE SMOOTH"
);
},
{
closed = 1;
nodes = (
"458 210 OFFCURVE",
"311 358 OFFCURVE",
"311 538 CURVE SMOOTH",
"311 718 OFFCURVE",
"458 865 OFFCURVE",
"638 865 CURVE SMOOTH",
"818 865 OFFCURVE",
"965 718 OFFCURVE",
"965 538 CURVE SMOOTH",
"965 358 OFFCURVE",
"818 210 OFFCURVE",
"638 210 CURVE SMOOTH"
);
},
{
closed = 1;
nodes = (
"505 780 OFFCURVE",
"395 671 OFFCURVE",
"395 538 CURVE SMOOTH",
"395 404 OFFCURVE",
"505 295 OFFCURVE",
"638 295 CURVE SMOOTH",
"772 295 OFFCURVE",
"881 404 OFFCURVE",
"881 538 CURVE SMOOTH",
"881 671 OFFCURVE",
"772 780 OFFCURVE",
"638 780 CURVE SMOOTH"
);
},
{
closed = 1;
nodes = (
"721 767 OFFCURVE",
"718 767 OFFCURVE",
"714 768 CURVE SMOOTH",
"691 775 OFFCURVE",
"678 798 OFFCURVE",
"685 821 CURVE SMOOTH",
"757 1083 LINE SMOOTH",
"764 1106 OFFCURVE",
"787 1119 OFFCURVE",
"809 1112 CURVE SMOOTH",
"832 1107 OFFCURVE",
"845 1083 OFFCURVE",
"838 1060 CURVE SMOOTH",
"766 798 LINE SMOOTH",
"761 779 OFFCURVE",
"744 767 OFFCURVE",
"725 767 CURVE SMOOTH"
);
},
{
closed = 1;
nodes = (
"543 770 OFFCURVE",
"527 782 OFFCURVE",
"521 800 CURVE SMOOTH",
"446 1055 LINE SMOOTH",
"439 1077 OFFCURVE",
"452 1101 OFFCURVE",
"474 1107 CURVE SMOOTH",
"496 1114 OFFCURVE",
"520 1101 OFFCURVE",
"527 1079 CURVE SMOOTH",
"602 824 LINE SMOOTH",
"609 802 OFFCURVE",
"596 778 OFFCURVE",
"574 772 CURVE SMOOTH",
"569 771 OFFCURVE",
"566 770 OFFCURVE",
"562 770 CURVE SMOOTH"
);
},
{
closed = 1;
nodes = (
"893 577 OFFCURVE",
"875 589 OFFCURVE",
"871 608 CURVE SMOOTH",
"864 630 OFFCURVE",
"877 654 OFFCURVE",
"899 660 CURVE SMOOTH",
"1165 736 LINE SMOOTH",
"1188 742 OFFCURVE",
"1211 729 OFFCURVE",
"1217 706 CURVE SMOOTH",
"1224 684 OFFCURVE",
"1211 660 OFFCURVE",
"1189 654 CURVE SMOOTH",
"922 579 LINE SMOOTH",
"919 577 OFFCURVE",
"915 577 OFFCURVE",
"911 577 CURVE SMOOTH"
);
},
{
closed = 1;
nodes = (
"1173 351 OFFCURVE",
"1170 352 OFFCURVE",
"1167 352 CURVE SMOOTH",
"901 415 LINE SMOOTH",
"878 421 OFFCURVE",
"864 444 OFFCURVE",
"870 467 CURVE SMOOTH",
"875 489 OFFCURVE",
"898 503 OFFCURVE",
"921 498 CURVE SMOOTH",
"1187 434 LINE SMOOTH",
"1209 429 OFFCURVE",
"1223 406 OFFCURVE",
"1218 384 CURVE SMOOTH",
"1214 364 OFFCURVE",
"1196 351 OFFCURVE",
"1177 351 CURVE SMOOTH"
);
},
{
closed = 1;
nodes = (
"779 -26 OFFCURVE",
"763 -14 OFFCURVE",
"757 5 CURVE SMOOTH",
"685 255 LINE SMOOTH",
"678 278 OFFCURVE",
"691 301 OFFCURVE",
"713 307 CURVE SMOOTH",
"736 314 OFFCURVE",
"759 301 OFFCURVE",
"766 279 CURVE SMOOTH",
"838 29 LINE SMOOTH",
"845 6 OFFCURVE",
"832 -17 OFFCURVE",
"810 -24 CURVE SMOOTH",
"806 -26 OFFCURVE",
"802 -26 OFFCURVE",
"798 -26 CURVE SMOOTH"
);
},
{
closed = 1;
nodes = (
"483 -21 OFFCURVE",
"478 -20 OFFCURVE",
"474 -19 CURVE SMOOTH",
"451 -12 OFFCURVE",
"439 11 OFFCURVE",
"446 33 CURVE SMOOTH",
"521 276 LINE SMOOTH",
"528 298 OFFCURVE",
"552 311 OFFCURVE",
"574 304 CURVE SMOOTH",
"596 297 OFFCURVE",
"609 273 OFFCURVE",
"602 251 CURVE SMOOTH",
"527 9 LINE SMOOTH",
"521 -9 OFFCURVE",
"505 -21 OFFCURVE",
"486 -21 CURVE SMOOTH"
);
},
{
closed = 1;
nodes = (
"105 351 OFFCURVE",
"88 364 OFFCURVE",
"83 383 CURVE SMOOTH",
"77 405 OFFCURVE",
"90 428 OFFCURVE",
"113 434 CURVE SMOOTH",
"354 497 LINE SMOOTH",
"377 504 OFFCURVE",
"400 490 OFFCURVE",
"406 468 CURVE SMOOTH",
"412 445 OFFCURVE",
"399 422 OFFCURVE",
"376 416 CURVE SMOOTH",
"134 352 LINE SMOOTH",
"130 352 OFFCURVE",
"127 351 OFFCURVE",
"124 351 CURVE SMOOTH"
);
},
{
closed = 1;
nodes = (
"361 577 OFFCURVE",
"356 577 OFFCURVE",
"353 579 CURVE SMOOTH",
"111 655 LINE SMOOTH",
"89 661 OFFCURVE",
"76 685 OFFCURVE",
"83 707 CURVE SMOOTH",
"90 730 OFFCURVE",
"114 742 OFFCURVE",
"136 735 CURVE SMOOTH",
"378 659 LINE SMOOTH",
"400 653 OFFCURVE",
"413 629 OFFCURVE",
"405 607 CURVE SMOOTH",
"400 588 OFFCURVE",
"383 577 OFFCURVE",
"365 577 CURVE SMOOTH"
);
},
{
closed = 1;
nodes = (
"116 894 OFFCURVE",
"97 912 OFFCURVE",
"97 936 CURVE SMOOTH",
"97 950 LINE SMOOTH",
"97 974 OFFCURVE",
"116 992 OFFCURVE",
"140 992 CURVE SMOOTH",
"163 992 OFFCURVE",
"182 974 OFFCURVE",
"182 950 CURVE SMOOTH",
"182 936 LINE SMOOTH",
"182 912 OFFCURVE",
"163 894 OFFCURVE",
"140 894 CURVE SMOOTH"
);
},
{
closed = 1;
nodes = (
"126 793 OFFCURVE",
"108 807 OFFCURVE",
"104 827 CURVE SMOOTH",
"101 841 LINE SMOOTH",
"96 864 OFFCURVE",
"111 886 OFFCURVE",
"134 891 CURVE SMOOTH",
"156 895 OFFCURVE",
"179 881 OFFCURVE",
"184 859 CURVE SMOOTH",
"187 844 LINE SMOOTH",
"191 821 OFFCURVE",
"177 799 OFFCURVE",
"154 794 CURVE SMOOTH",
"151 793 OFFCURVE",
"148 793 OFFCURVE",
"145 793 CURVE SMOOTH"
);
},
{
closed = 1;
nodes = (
"143 979 OFFCURVE",
"135 982 OFFCURVE",
"128 987 CURVE SMOOTH",
"108 1000 OFFCURVE",
"103 1025 OFFCURVE",
"116 1046 CURVE SMOOTH",
"124 1058 LINE SMOOTH",
"137 1077 OFFCURVE",
"164 1083 OFFCURVE",
"183 1070 CURVE SMOOTH",
"202 1057 OFFCURVE",
"207 1030 OFFCURVE",
"194 1011 CURVE SMOOTH",
"187 999 LINE SMOOTH",
"178 987 OFFCURVE",
"165 979 OFFCURVE",
"151 979 CURVE SMOOTH"
);
},
{
closed = 1;
nodes = (
"251 1010 OFFCURVE",
"251 1010 OFFCURVE",
"251 1010 CURVE SMOOTH",
"236 1010 LINE SMOOTH",
"213 1011 OFFCURVE",
"194 1029 OFFCURVE",
"194 1053 CURVE SMOOTH",
"195 1076 OFFCURVE",
"213 1095 OFFCURVE",
"236 1095 CURVE",
"236 1095 OFFCURVE",
"236 1095 OFFCURVE",
"236 1095 CURVE",
"252 1095 LINE SMOOTH",
"275 1095 OFFCURVE",
"294 1075 OFFCURVE",
"294 1052 CURVE SMOOTH",
"294 1028 OFFCURVE",
"274 1010 OFFCURVE",
"251 1010 CURVE SMOOTH"
);
},
{
closed = 1;
nodes = (
"344 1001 OFFCURVE",
"339 1001 OFFCURVE",
"334 1003 CURVE SMOOTH",
"320 1009 LINE SMOOTH",
"299 1016 OFFCURVE",
"287 1041 OFFCURVE",
"295 1062 CURVE SMOOTH",
"303 1084 OFFCURVE",
"328 1096 OFFCURVE",
"350 1088 CURVE SMOOTH",
"363 1083 LINE SMOOTH",
"385 1075 OFFCURVE",
"397 1051 OFFCURVE",
"389 1029 CURVE SMOOTH",
"382 1012 OFFCURVE",
"366 1001 OFFCURVE",
"349 1001 CURVE SMOOTH"
);
},
{
closed = 1;
nodes = (
"1129 894 OFFCURVE",
"1110 912 OFFCURVE",
"1110 936 CURVE SMOOTH",
"1110 950 LINE SMOOTH",
"1110 974 OFFCURVE",
"1129 992 OFFCURVE",
"1153 992 CURVE SMOOTH",
"1176 992 OFFCURVE",
"1194 974 OFFCURVE",
"1194 950 CURVE SMOOTH",
"1194 936 LINE SMOOTH",
"1194 912 OFFCURVE",
"1176 894 OFFCURVE",
"1153 894 CURVE SMOOTH"
);
},
{
closed = 1;
nodes = (
"1144 793 OFFCURVE",
"1141 793 OFFCURVE",
"1138 794 CURVE SMOOTH",
"1115 799 OFFCURVE",
"1100 821 OFFCURVE",
"1105 844 CURVE SMOOTH",
"1108 859 LINE SMOOTH",
"1112 881 OFFCURVE",
"1135 895 OFFCURVE",
"1158 891 CURVE SMOOTH",
"1180 886 OFFCURVE",
"1195 864 OFFCURVE",
"1191 841 CURVE SMOOTH",
"1188 827 LINE SMOOTH",
"1184 807 OFFCURVE",
"1166 793 OFFCURVE",
"1146 793 CURVE SMOOTH"
);
},
{
closed = 1;
nodes = (
"1127 979 OFFCURVE",
"1113 987 OFFCURVE",
"1106 999 CURVE SMOOTH",
"1098 1011 LINE SMOOTH",
"1085 1030 OFFCURVE",
"1090 1057 OFFCURVE",
"1109 1070 CURVE SMOOTH",
"1129 1083 OFFCURVE",
"1155 1077 OFFCURVE",
"1168 1058 CURVE SMOOTH",
"1176 1046 LINE SMOOTH",
"1189 1025 OFFCURVE",
"1183 1000 OFFCURVE",
"1164 987 CURVE SMOOTH",
"1157 982 OFFCURVE",
"1148 979 OFFCURVE",
"1141 979 CURVE SMOOTH"
);
},
{
closed = 1;
nodes = (
"1017 1010 OFFCURVE",
"998 1028 OFFCURVE",
"998 1052 CURVE SMOOTH",
"998 1075 OFFCURVE",
"1016 1095 OFFCURVE",
"1040 1095 CURVE SMOOTH",
"1054 1095 LINE",
"1055 1095 OFFCURVE",
"1055 1095 OFFCURVE",
"1055 1095 CURVE",
"1078 1095 OFFCURVE",
"1097 1076 OFFCURVE",
"1098 1053 CURVE SMOOTH",
"1098 1029 OFFCURVE",
"1079 1011 OFFCURVE",
"1055 1010 CURVE SMOOTH",
"1041 1010 LINE SMOOTH",
"1040 1010 OFFCURVE",
"1040 1010 OFFCURVE",
"1040 1010 CURVE SMOOTH"
);
},
{
closed = 1;
nodes = (
"925 1001 OFFCURVE",
"909 1012 OFFCURVE",
"903 1029 CURVE SMOOTH",
"896 1051 OFFCURVE",
"907 1075 OFFCURVE",
"929 1083 CURVE SMOOTH",
"943 1088 LINE SMOOTH",
"964 1096 OFFCURVE",
"989 1084 OFFCURVE",
"996 1062 CURVE SMOOTH",
"1004 1040 OFFCURVE",
"993 1016 OFFCURVE",
"971 1009 CURVE SMOOTH",
"957 1003 LINE SMOOTH",
"953 1001 OFFCURVE",
"947 1001 OFFCURVE",
"943 1001 CURVE SMOOTH"
);
},
{
closed = 1;
nodes = (
"116 99 OFFCURVE",
"97 118 OFFCURVE",
"97 141 CURVE SMOOTH",
"97 156 LINE SMOOTH",
"97 179 OFFCURVE",
"116 198 OFFCURVE",
"140 198 CURVE SMOOTH",
"163 198 OFFCURVE",
"182 179 OFFCURVE",
"182 156 CURVE SMOOTH",
"182 141 LINE SMOOTH",
"182 118 OFFCURVE",
"163 99 OFFCURVE",
"140 99 CURVE SMOOTH"
);
},
{
closed = 1;
nodes = (
"140 199 OFFCURVE",
"137 200 OFFCURVE",
"134 200 CURVE SMOOTH",
"111 205 OFFCURVE",
"96 228 OFFCURVE",
"101 251 CURVE SMOOTH",
"104 265 LINE SMOOTH",
"108 288 OFFCURVE",
"131 303 OFFCURVE",
"154 298 CURVE SMOOTH",
"177 293 OFFCURVE",
"191 270 OFFCURVE",
"187 248 CURVE SMOOTH",
"184 234 LINE SMOOTH",
"179 213 OFFCURVE",
"162 199 OFFCURVE",
"142 199 CURVE SMOOTH"
);
},
{
closed = 1;
nodes = (
"145 15 OFFCURVE",
"132 21 OFFCURVE",
"124 34 CURVE SMOOTH",
"116 46 LINE SMOOTH",
"103 66 OFFCURVE",
"108 92 OFFCURVE",
"128 105 CURVE SMOOTH",
"147 118 OFFCURVE",
"174 113 OFFCURVE",
"187 93 CURVE SMOOTH",
"194 80 LINE SMOOTH",
"207 61 OFFCURVE",
"202 35 OFFCURVE",
"183 22 CURVE SMOOTH",
"176 18 OFFCURVE",
"167 15 OFFCURVE",
"159 15 CURVE SMOOTH"
);
},
{
closed = 1;
nodes = (
"213 -3 OFFCURVE",
"195 16 OFFCURVE",
"194 39 CURVE SMOOTH",
"194 62 OFFCURVE",
"213 81 OFFCURVE",
"236 81 CURVE SMOOTH",
"251 81 LINE",
"273 80 OFFCURVE",
"294 63 OFFCURVE",
"294 40 CURVE SMOOTH",
"294 17 OFFCURVE",
"275 -2 OFFCURVE",
"252 -2 CURVE SMOOTH",
"237 -3 LINE SMOOTH",
"237 -3 OFFCURVE",
"237 -3 OFFCURVE",
"237 -3 CURVE SMOOTH"
);
},
{
closed = 1;
nodes = (
"318 1 OFFCURVE",
"302 11 OFFCURVE",
"295 29 CURVE SMOOTH",
"287 51 OFFCURVE",
"299 75 OFFCURVE",
"320 83 CURVE SMOOTH",
"334 88 LINE SMOOTH",
"356 96 OFFCURVE",
"380 85 OFFCURVE",
"389 63 CURVE SMOOTH",
"397 41 OFFCURVE",
"385 17 OFFCURVE",
"363 9 CURVE SMOOTH",
"350 4 LINE SMOOTH",
"344 2 OFFCURVE",
"340 1 OFFCURVE",
"335 1 CURVE SMOOTH"
);
},
{
closed = 1;
nodes = (
"1129 99 OFFCURVE",
"1110 118 OFFCURVE",
"1110 141 CURVE SMOOTH",
"1110 156 LINE SMOOTH",
"1110 179 OFFCURVE",
"1129 198 OFFCURVE",
"1153 198 CURVE SMOOTH",
"1176 198 OFFCURVE",
"1194 179 OFFCURVE",
"1194 156 CURVE SMOOTH",
"1194 141 LINE SMOOTH",
"1194 118 OFFCURVE",
"1176 99 OFFCURVE",
"1153 99 CURVE SMOOTH"
);
},
{
closed = 1;
nodes = (
"1130 199 OFFCURVE",
"1112 213 OFFCURVE",
"1108 234 CURVE SMOOTH",
"1105 248 LINE SMOOTH",
"1100 270 OFFCURVE",
"1115 293 OFFCURVE",
"1138 298 CURVE SMOOTH",
"1161 303 OFFCURVE",
"1183 288 OFFCURVE",
"1188 265 CURVE SMOOTH",
"1191 251 LINE SMOOTH",
"1195 228 OFFCURVE",
"1180 205 OFFCURVE",
"1158 200 CURVE SMOOTH",
"1155 200 OFFCURVE",
"1152 199 OFFCURVE",
"1149 199 CURVE SMOOTH"
);
},
{
closed = 1;
nodes = (
"1124 15 OFFCURVE",
"1116 18 OFFCURVE",
"1109 22 CURVE SMOOTH",
"1090 35 OFFCURVE",
"1085 61 OFFCURVE",
"1098 80 CURVE SMOOTH",
"1106 93 LINE SMOOTH",
"1119 113 OFFCURVE",
"1145 118 OFFCURVE",
"1164 105 CURVE SMOOTH",
"1183 92 OFFCURVE",
"1189 66 OFFCURVE",
"1176 46 CURVE SMOOTH",
"1168 34 LINE SMOOTH",
"1159 21 OFFCURVE",
"1146 15 OFFCURVE",
"1133 15 CURVE SMOOTH"
);
},
{
closed = 1;
nodes = (
"1055 -3 OFFCURVE",
"1055 -3 OFFCURVE",
"1055 -3 CURVE SMOOTH",
"1040 -2 LINE SMOOTH",
"1016 -2 OFFCURVE",
"998 17 OFFCURVE",
"998 40 CURVE SMOOTH",
"998 63 OFFCURVE",
"1019 80 OFFCURVE",
"1041 81 CURVE",
"1055 81 LINE SMOOTH",
"1079 81 OFFCURVE",
"1098 62 OFFCURVE",
"1098 39 CURVE SMOOTH",
"1097 16 OFFCURVE",
"1078 -3 OFFCURVE",
"1055 -3 CURVE SMOOTH"
);
},
{
closed = 1;
nodes = (
"952 1 OFFCURVE",
"947 2 OFFCURVE",
"943 4 CURVE SMOOTH",
"929 9 LINE SMOOTH",
"907 17 OFFCURVE",
"896 41 OFFCURVE",
"903 63 CURVE SMOOTH",
"911 85 OFFCURVE",
"935 96 OFFCURVE",
"957 88 CURVE SMOOTH",
"971 83 LINE SMOOTH",
"993 75 OFFCURVE",
"1004 51 OFFCURVE",
"996 29 CURVE SMOOTH",
"991 12 OFFCURVE",
"974 1 OFFCURVE",
"956 1 CURVE SMOOTH"
);
}
);
width = 1280;
}
);
note = uniF003;
unicode = F003;
},
{
glyphname = uniF004;
lastChange = "2016-11-27 22:49:57 +0000";
layers = (
{
layerId = "3FC06E6C-760F-451F-9A2A-A44F9A2B57A0";
name = Regular;
paths = (
{
closed = 1;
nodes = (
"885 394 OFFCURVE",
"868 376 OFFCURVE",
"868 353 CURVE SMOOTH",
"868 232 LINE",
"866 199 OFFCURVE",
"860 199 OFFCURVE",
"840 199 CURVE SMOOTH",
"650 199 LINE",
"650 792 LINE SMOOTH",
"650 838 OFFCURVE",
"641 874 OFFCURVE",
"588 902 CURVE",
"303 1028 LINE",
"805 1028 LINE SMOOTH",
"827 1028 OFFCURVE",
"835 1024 OFFCURVE",
"838 1022 CURVE SMOOTH",
"840 1019 OFFCURVE",
"846 1010 OFFCURVE",
"846 981 CURVE SMOOTH",
"846 811 LINE SMOOTH",
"846 788 OFFCURVE",
"864 770 OFFCURVE",
"885 770 CURVE SMOOTH",
"908 770 OFFCURVE",
"926 788 OFFCURVE",
"926 811 CURVE SMOOTH",
"926 981 LINE SMOOTH",
"926 1009 OFFCURVE",
"923 1051 OFFCURVE",
"894 1078 CURVE SMOOTH",
"866 1105 OFFCURVE",
"828 1108 OFFCURVE",
"804 1107 CURVE SMOOTH",
"202 1109 LINE SMOOTH",
"202 1109 OFFCURVE",
"198 1108 OFFCURVE",
"196 1108 CURVE SMOOTH",
"98 1095 OFFCURVE",
"87 1024 OFFCURVE",
"88 971 CURVE SMOOTH",
"88 246 LINE SMOOTH",
"86 189 OFFCURVE",
"96 125 OFFCURVE",
"174 84 CURVE SMOOTH",
"248 45 OFFCURVE",
"322 4 OFFCURVE",
"394 -36 CURVE SMOOTH",
"437 -61 OFFCURVE",
"481 -85 OFFCURVE",
"525 -110 CURVE SMOOTH",
"547 -123 OFFCURVE",
"570 -135 OFFCURVE",
"593 -135 CURVE SMOOTH",
"602 -135 OFFCURVE",
"610 -132 OFFCURVE",
"619 -127 CURVE SMOOTH",
"649 -110 OFFCURVE",
"650 -73 OFFCURVE",
"650 -43 CURVE SMOOTH",
"650 120 LINE",
"840 120 LINE SMOOTH",
"840 120 OFFCURVE",
"841 120 OFFCURVE",
"841 120 CURVE SMOOTH",
"887 120 OFFCURVE",
"943 139 OFFCURVE",
"947 229 CURVE",
"947 353 LINE SMOOTH",
"947 376 OFFCURVE",
"929 394 OFFCURVE",
"907 394 CURVE SMOOTH"
);
},
{
closed = 1;
nodes = (
"570 -42 OFFCURVE",
"570 -42 OFFCURVE",
"570 -43 CURVE",
"568 -42 OFFCURVE",
"565 -41 OFFCURVE",
"563 -39 CURVE SMOOTH",
"519 -15 OFFCURVE",
"476 9 OFFCURVE",
"432 34 CURVE SMOOTH",
"360 74 OFFCURVE",
"285 116 OFFCURVE",
"211 154 CURVE SMOOTH",
"176 173 OFFCURVE",
"166 193 OFFCURVE",
"166 245 CURVE SMOOTH",
"166 971 LINE",
"166 983 OFFCURVE",
"167 994 OFFCURVE",
"169 1001 CURVE",
"171 999 OFFCURVE",
"174 998 OFFCURVE",
"176 998 CURVE SMOOTH",
"554 830 LINE",
"568 822 OFFCURVE",
"570 821 OFFCURVE",
"570 793 CURVE SMOOTH",
"570 -42 LINE"
);
},
{
closed = 1;
nodes = (
"1089 733 LINE SMOOTH",
"1075 751 OFFCURVE",
"1050 752 OFFCURVE",
"1033 738 CURVE SMOOTH",
"1017 724 OFFCURVE",
"1015 698 OFFCURVE",
"1029 682 CURVE SMOOTH",
"1094 606 LINE",
"763 606 LINE SMOOTH",
"741 606 OFFCURVE",
"723 588 OFFCURVE",
"723 567 CURVE SMOOTH",
"723 544 OFFCURVE",
"741 525 OFFCURVE",
"763 525 CURVE SMOOTH",
"1099 525 LINE",
"1033 466 LINE SMOOTH",
"1016 452 OFFCURVE",
"1015 426 OFFCURVE",
"1030 409 CURVE SMOOTH",
"1038 401 OFFCURVE",
"1048 396 OFFCURVE",
"1059 396 CURVE SMOOTH",
"1069 396 OFFCURVE",
"1079 400 OFFCURVE",
"1086 407 CURVE SMOOTH",
"1157 471 LINE SMOOTH",
"1236 542 OFFCURVE",
"1205 599 OFFCURVE",
"1160 652 CURVE SMOOTH"
);
}
);
width = 1280;
}
);
note = uniF004;
unicode = F004;
},
{
glyphname = uniF005;
lastChange = "2016-11-27 23:03:51 +0000";
layers = (
{
layerId = "3FC06E6C-760F-451F-9A2A-A44F9A2B57A0";
name = Regular;
paths = (
{
closed = 1;
nodes = (
"294 -86 OFFCURVE",
"6 201 OFFCURVE",
"6 554 CURVE SMOOTH",
"6 906 OFFCURVE",
"294 1194 OFFCURVE",
"646 1194 CURVE SMOOTH",
"999 1194 OFFCURVE",
"1286 906 OFFCURVE",
"1286 554 CURVE SMOOTH",
"1286 201 OFFCURVE",
"999 -86 OFFCURVE",
"646 -86 CURVE SMOOTH"
);
},
{
closed = 1;
nodes = (
"338 1112 OFFCURVE",
"88 862 OFFCURVE",
"88 554 CURVE SMOOTH",
"88 246 OFFCURVE",
"338 -5 OFFCURVE",
"646 -5 CURVE SMOOTH",
"954 -5 OFFCURVE",
"1205 246 OFFCURVE",
"1205 554 CURVE SMOOTH",
"1205 862 OFFCURVE",
"954 1112 OFFCURVE",
"646 1112 CURVE SMOOTH"
);
},
{
closed = 1;
nodes = (
"624 154 OFFCURVE",
"606 172 OFFCURVE",
"606 194 CURVE SMOOTH",
"606 645 LINE SMOOTH",
"606 668 OFFCURVE",
"624 686 OFFCURVE",
"646 686 CURVE SMOOTH",
"669 686 OFFCURVE",
"687 668 OFFCURVE",
"687 645 CURVE SMOOTH",
"687 194 LINE SMOOTH",
"687 172 OFFCURVE",
"669 154 OFFCURVE",
"646 154 CURVE SMOOTH"
);
},
{
closed = 1;
nodes = (
"624 766 OFFCURVE",
"606 784 OFFCURVE",
"606 807 CURVE SMOOTH",
"606 888 LINE SMOOTH",
"606 911 OFFCURVE",
"624 929 OFFCURVE",
"646 929 CURVE SMOOTH",
"669 929 OFFCURVE",
"687 911 OFFCURVE",
"687 888 CURVE SMOOTH",
"687 807 LINE SMOOTH",
"687 784 OFFCURVE",
"669 766 OFFCURVE",
"646 766 CURVE SMOOTH"
);
}
);
width = 1280;
}
);
note = uniF005;
unicode = F005;
},
{
glyphname = uniF006;
lastChange = "2016-11-27 23:04:18 +0000";
layers = (
{
layerId = "3FC06E6C-760F-451F-9A2A-A44F9A2B57A0";
name = Regular;
paths = (
{
closed = 1;
nodes = (
"294 -84 OFFCURVE",
"7 203 OFFCURVE",
"7 556 CURVE SMOOTH",
"7 909 OFFCURVE",
"294 1196 OFFCURVE",
"647 1196 CURVE SMOOTH",
"1000 1196 OFFCURVE",
"1287 909 OFFCURVE",
"1287 556 CURVE SMOOTH",
"1287 203 OFFCURVE",
"1000 -84 OFFCURVE",
"647 -84 CURVE SMOOTH"
);
},
{
closed = 1;
nodes = (
"339 1115 OFFCURVE",
"88 864 OFFCURVE",
"88 556 CURVE SMOOTH",
"88 248 OFFCURVE",
"339 -2 OFFCURVE",
"647 -2 CURVE SMOOTH",
"955 -2 OFFCURVE",
"1206 248 OFFCURVE",
"1206 556 CURVE SMOOTH",
"1206 864 OFFCURVE",
"955 1115 OFFCURVE",
"647 1115 CURVE SMOOTH"
);
},
{
closed = 1;
nodes = (
"558 301 OFFCURVE",
"550 303 OFFCURVE",
"543 308 CURVE SMOOTH",
"305 476 LINE SMOOTH",
"287 488 OFFCURVE",
"283 514 OFFCURVE",
"296 532 CURVE SMOOTH",
"308 550 OFFCURVE",
"334 555 OFFCURVE",
"352 542 CURVE SMOOTH",
"560 396 LINE",
"916 802 LINE SMOOTH",
"931 819 OFFCURVE",
"956 821 OFFCURVE",
"973 806 CURVE SMOOTH",
"990 791 OFFCURVE",
"992 766 OFFCURVE",
"977 749 CURVE SMOOTH",
"597 315 LINE SMOOTH",
"589 306 OFFCURVE",
"578 301 OFFCURVE",
"566 301 CURVE SMOOTH"
);
}
);
width = 1280;
}
);
note = uniF006;
unicode = F006;
},
{
glyphname = uniF007;
lastChange = "2016-11-27 23:04:38 +0000";
layers = (
{
layerId = "3FC06E6C-760F-451F-9A2A-A44F9A2B57A0";
name = Regular;
paths = (
{
closed = 1;
nodes = (
"497 -79 OFFCURVE",
"343 -15 OFFCURVE",
"228 100 CURVE SMOOTH",
"113 215 OFFCURVE",
"49 369 OFFCURVE",
"49 532 CURVE SMOOTH",
"49 695 OFFCURVE",
"113 848 OFFCURVE",
"228 963 CURVE SMOOTH",
"343 1079 OFFCURVE",
"497 1142 OFFCURVE",
"660 1142 CURVE SMOOTH",
"823 1142 OFFCURVE",
"976 1079 OFFCURVE",
"1091 963 CURVE SMOOTH",
"1329 725 OFFCURVE",
"1329 338 OFFCURVE",
"1091 100 CURVE SMOOTH",
"976 -15 OFFCURVE",
"823 -79 OFFCURVE",
"660 -79 CURVE SMOOTH"
);
},
{
closed = 1;
nodes = (
"517 1065 OFFCURVE",
"383 1009 OFFCURVE",
"283 909 CURVE SMOOTH",
"182 808 OFFCURVE",
"127 674 OFFCURVE",
"127 532 CURVE SMOOTH",
"127 389 OFFCURVE",
"182 256 OFFCURVE",
"283 155 CURVE SMOOTH",
"383 54 OFFCURVE",
"517 -1 OFFCURVE",
"660 -1 CURVE SMOOTH",
"802 -1 OFFCURVE",
"936 54 OFFCURVE",
"1036 155 CURVE SMOOTH",
"1244 363 OFFCURVE",
"1244 701 OFFCURVE",
"1036 909 CURVE SMOOTH",
"936 1009 OFFCURVE",
"802 1065 OFFCURVE",
"660 1065 CURVE SMOOTH"
);
},
{
closed = 1;
nodes = (
"471 315 OFFCURVE",
"462 319 OFFCURVE",
"454 326 CURVE SMOOTH",
"439 341 OFFCURVE",
"439 366 OFFCURVE",
"454 381 CURVE SMOOTH",
"810 737 LINE SMOOTH",
"826 753 OFFCURVE",
"850 753 OFFCURVE",
"865 737 CURVE SMOOTH",
"880 722 OFFCURVE",
"880 698 OFFCURVE",
"865 683 CURVE SMOOTH",
"509 326 LINE SMOOTH",
"501 319 OFFCURVE",
"491 315 OFFCURVE",
"481 315 CURVE SMOOTH"
);
},
{
closed = 1;
nodes = (
"828 315 OFFCURVE",
"818 319 OFFCURVE",
"810 326 CURVE SMOOTH",
"454 683 LINE SMOOTH",
"439 698 OFFCURVE",
"439 722 OFFCURVE",
"454 737 CURVE SMOOTH",
"469 753 OFFCURVE",
"494 753 OFFCURVE",
"509 737 CURVE SMOOTH",
"865 381 LINE SMOOTH",
"880 366 OFFCURVE",
"880 341 OFFCURVE",
"865 326 CURVE SMOOTH",
"858 319 OFFCURVE",
"848 315 OFFCURVE",
"838 315 CURVE SMOOTH"
);
}
);
width = 1280;
}
);
note = uniF007;
unicode = F007;
},
{
glyphname = uniF008;
lastChange = "2016-11-27 23:04:59 +0000";
layers = (
{
layerId = "3FC06E6C-760F-451F-9A2A-A44F9A2B57A0";
name = Regular;
paths = (
{
closed = 1;
nodes = (
"284 -92 OFFCURVE",
"-3 196 OFFCURVE",
"-3 548 CURVE SMOOTH",
"-3 901 OFFCURVE",
"284 1188 OFFCURVE",
"637 1188 CURVE SMOOTH",
"990 1188 OFFCURVE",
"1277 901 OFFCURVE",
"1277 548 CURVE SMOOTH",
"1277 196 OFFCURVE",
"990 -92 OFFCURVE",
"637 -92 CURVE SMOOTH"
);
},
{
closed = 1;
nodes = (
"329 1107 OFFCURVE",
"79 856 OFFCURVE",
"79 548 CURVE SMOOTH",
"79 240 OFFCURVE",
"329 -10 OFFCURVE",
"637 -10 CURVE SMOOTH",
"945 -10 OFFCURVE",
"1196 240 OFFCURVE",
"1196 548 CURVE SMOOTH",
"1196 856 OFFCURVE",
"945 1107 OFFCURVE",
"637 1107 CURVE SMOOTH"
);
},
{
closed = 1;
nodes = (
"615 243 OFFCURVE",
"597 262 OFFCURVE",
"597 284 CURVE SMOOTH",
"597 813 LINE SMOOTH",
"597 835 OFFCURVE",
"615 853 OFFCURVE",
"637 853 CURVE SMOOTH",
"660 853 OFFCURVE",
"678 835 OFFCURVE",
"678 813 CURVE SMOOTH",
"678 284 LINE SMOOTH",
"678 262 OFFCURVE",
"660 243 OFFCURVE",
"637 243 CURVE SMOOTH"
);
},
{
closed = 1;
nodes = (
"373 508 LINE SMOOTH",
"350 508 OFFCURVE",
"332 526 OFFCURVE",
"332 548 CURVE SMOOTH",
"332 571 OFFCURVE",
"350 589 OFFCURVE",
"373 589 CURVE SMOOTH",
"901 589 LINE SMOOTH",
"924 589 OFFCURVE",
"942 571 OFFCURVE",
"942 548 CURVE SMOOTH",
"942 526 OFFCURVE",
"924 508 OFFCURVE",
"901 508 CURVE SMOOTH"
);
}
);
width = 1280;
}
);
note = uniF008;
unicode = F008;
},
{
glyphname = uniF009;
lastChange = "2016-11-27 23:10:43 +0000";
layers = (
{
layerId = "3FC06E6C-760F-451F-9A2A-A44F9A2B57A0";
name = Regular;
paths = (
{
closed = 1;
nodes = (
"242 126 OFFCURVE",
"231 130 OFFCURVE",
"224 139 CURVE SMOOTH",
"210 155 OFFCURVE",
"211 179 OFFCURVE",
"227 193 CURVE SMOOTH",
"266 228 OFFCURVE",
"279 243 OFFCURVE",
"285 285 CURVE SMOOTH",
"291 328 OFFCURVE",
"288 341 OFFCURVE",
"281 366 CURVE SMOOTH",
"277 382 OFFCURVE",
"272 401 OFFCURVE",
"268 428 CURVE SMOOTH",
"263 467 OFFCURVE",
"256 506 OFFCURVE",
"249 544 CURVE SMOOTH",
"240 593 OFFCURVE",
"231 644 OFFCURVE",
"225 695 CURVE SMOOTH",
"207 841 OFFCURVE",
"250 973 OFFCURVE",
"348 1075 CURVE SMOOTH",
"422 1153 OFFCURVE",
"521 1198 OFFCURVE",
"629 1200 CURVE SMOOTH",
"738 1202 OFFCURVE",
"840 1162 OFFCURVE",
"918 1087 CURVE SMOOTH",
"1019 990 OFFCURVE",
"1065 865 OFFCURVE",
"1058 705 CURVE SMOOTH",
"1057 681 OFFCURVE",
"1051 659 OFFCURVE",
"1045 639 CURVE SMOOTH",
"1042 631 OFFCURVE",
"1040 624 OFFCURVE",
"1038 615 CURVE SMOOTH",
"1033 595 OFFCURVE",
"1012 583 OFFCURVE",
"991 588 CURVE SMOOTH",
"971 593 OFFCURVE",
"959 614 OFFCURVE",
"964 634 CURVE SMOOTH",
"966 643 OFFCURVE",
"969 653 OFFCURVE",
"972 662 CURVE SMOOTH",
"977 679 OFFCURVE",
"982 694 OFFCURVE",
"982 708 CURVE SMOOTH",
"988 845 OFFCURVE",
"949 952 OFFCURVE",
"865 1033 CURVE SMOOTH",
"801 1093 OFFCURVE",
"719 1125 OFFCURVE",
"631 1124 CURVE SMOOTH",
"543 1122 OFFCURVE",
"463 1086 OFFCURVE",
"403 1023 CURVE SMOOTH",
"320 936 OFFCURVE",
"286 828 OFFCURVE",
"301 705 CURVE SMOOTH",
"307 656 OFFCURVE",
"316 606 OFFCURVE",
"324 557 CURVE SMOOTH",
"331 518 OFFCURVE",
"338 479 OFFCURVE",
"344 439 CURVE SMOOTH",
"347 415 OFFCURVE",
"351 400 OFFCURVE",
"355 386 CURVE SMOOTH",
"364 353 OFFCURVE",
"369 330 OFFCURVE",
"361 275 CURVE SMOOTH",
"351 206 OFFCURVE",
"323 176 OFFCURVE",
"277 136 CURVE SMOOTH",
"270 129 OFFCURVE",
"261 126 OFFCURVE",
"252 126 CURVE SMOOTH"
);
},
{
closed = 1;
nodes = (
"190 -78 LINE SMOOTH",
"171 -78 OFFCURVE",
"156 -64 OFFCURVE",
"153 -46 CURVE SMOOTH",
"142 24 OFFCURVE",
"158 89 OFFCURVE",
"203 155 CURVE SMOOTH",
"220 178 OFFCURVE",
"228 193 OFFCURVE",
"231 198 CURVE",
"232 199 OFFCURVE",
"233 201 OFFCURVE",
"234 202 CURVE SMOOTH",
"241 213 OFFCURVE",
"254 220 OFFCURVE",
"268 219 CURVE SMOOTH",
"282 219 OFFCURVE",
"294 210 OFFCURVE",
"300 198 CURVE SMOOTH",
"311 176 OFFCURVE",
"302 163 OFFCURVE",
"266 112 CURVE SMOOTH",
"239 74 OFFCURVE",
"225 37 OFFCURVE",
"225 -1 CURVE",
"1056 -1 LINE",
"1056 27 OFFCURVE",
"1048 56 OFFCURVE",
"1032 84 CURVE SMOOTH",
"1019 109 OFFCURVE",
"1002 115 OFFCURVE",
"975 126 CURVE SMOOTH",
"955 134 OFFCURVE",
"931 144 OFFCURVE",
"907 162 CURVE SMOOTH",
"889 175 OFFCURVE",
"869 182 OFFCURVE",
"848 190 CURVE SMOOTH",
"811 202 OFFCURVE",
"767 218 OFFCURVE",
"741 271 CURVE",
"740 271 OFFCURVE",
"739 271 OFFCURVE",
"739 272 CURVE SMOOTH",
"726 277 OFFCURVE",
"717 287 OFFCURVE",
"711 303 CURVE SMOOTH",
"704 323 OFFCURVE",
"715 344 OFFCURVE",
"735 351 CURVE SMOOTH",
"746 355 OFFCURVE",
"758 353 OFFCURVE",
"768 348 CURVE",
"771 347 OFFCURVE",
"775 346 OFFCURVE",
"778 345 CURVE SMOOTH",
"791 340 OFFCURVE",
"800 329 OFFCURVE",
"805 314 CURVE SMOOTH",
"816 283 OFFCURVE",
"833 275 OFFCURVE",
"873 262 CURVE SMOOTH",
"897 253 OFFCURVE",
"925 243 OFFCURVE",
"952 223 CURVE SMOOTH",
"969 211 OFFCURVE",
"986 204 OFFCURVE",
"1003 197 CURVE SMOOTH",
"1036 184 OFFCURVE",
"1073 169 OFFCURVE",
"1099 121 CURVE SMOOTH",
"1128 66 OFFCURVE",
"1138 9 OFFCURVE",
"1126 -47 CURVE SMOOTH",
"1122 -65 OFFCURVE",
"1108 -78 OFFCURVE",
"1090 -78 CURVE SMOOTH"
);
},
{
closed = 1;
nodes = (
"1030 119 OFFCURVE",
"1025 120 OFFCURVE",
"1020 122 CURVE SMOOTH",
"921 163 OFFCURVE",
"921 264 OFFCURVE",
"921 338 CURVE SMOOTH",
"921 359 LINE SMOOTH",
"921 423 OFFCURVE",
"929 449 OFFCURVE",
"938 480 CURVE SMOOTH",
"942 494 OFFCURVE",
"947 509 OFFCURVE",
"952 531 CURVE",
"926 513 OFFCURVE",
"914 487 OFFCURVE",
"899 453 CURVE SMOOTH",
"890 432 OFFCURVE",
"879 410 OFFCURVE",
"863 391 CURVE SMOOTH",
"856 383 OFFCURVE",
"850 374 OFFCURVE",
"844 366 CURVE SMOOTH",
"823 337 OFFCURVE",
"800 304 OFFCURVE",
"765 286 CURVE SMOOTH",
"704 254 OFFCURVE",
"647 246 OFFCURVE",
"595 262 CURVE",
"592 262 OFFCURVE",
"527 275 OFFCURVE",
"485 316 CURVE SMOOTH",
"470 330 OFFCURVE",
"470 354 OFFCURVE",
"483 370 CURVE SMOOTH",
"498 385 OFFCURVE",
"522 385 OFFCURVE",
"537 371 CURVE SMOOTH",
"560 349 OFFCURVE",
"600 338 OFFCURVE",
"613 336 CURVE",
"649 325 OFFCURVE",
"686 331 OFFCURVE",
"730 354 CURVE SMOOTH",
"749 363 OFFCURVE",
"766 388 OFFCURVE",
"783 410 CURVE SMOOTH",
"790 419 OFFCURVE",
"797 429 OFFCURVE",
"803 437 CURVE SMOOTH",
"814 450 OFFCURVE",
"822 467 OFFCURVE",
"829 484 CURVE SMOOTH",
"848 525 OFFCURVE",
"869 571 OFFCURVE",
"919 601 CURVE SMOOTH",
"927 606 OFFCURVE",
"935 618 OFFCURVE",
"945 631 CURVE SMOOTH",
"951 640 OFFCURVE",
"957 649 OFFCURVE",
"963 657 CURVE SMOOTH",
"971 666 OFFCURVE",
"983 672 OFFCURVE",
"995 671 CURVE SMOOTH",
"1007 670 OFFCURVE",
"1018 664 OFFCURVE",
"1025 654 CURVE SMOOTH",
"1050 616 OFFCURVE",
"1041 581 OFFCURVE",
"1035 558 CURVE SMOOTH",
"1034 553 OFFCURVE",
"1032 548 OFFCURVE",
"1031 544 CURVE SMOOTH",
"1025 502 OFFCURVE",
"1017 477 OFFCURVE",
"1011 457 CURVE SMOOTH",
"1003 430 OFFCURVE",
"997 412 OFFCURVE",
"998 359 CURVE SMOOTH",
"998 338 LINE SMOOTH",
"998 261 OFFCURVE",
"1001 213 OFFCURVE",
"1049 193 CURVE SMOOTH",
"1069 185 OFFCURVE",
"1078 162 OFFCURVE",
"1070 143 CURVE SMOOTH",
"1064 128 OFFCURVE",
"1050 119 OFFCURVE",
"1035 119 CURVE SMOOTH"
);
},
{
closed = 1;
nodes = (
"274 157 OFFCURVE",
"260 166 OFFCURVE",
"254 181 CURVE SMOOTH",
"246 200 OFFCURVE",
"255 223 OFFCURVE",
"275 231 CURVE SMOOTH",
"303 242 OFFCURVE",
"327 250 OFFCURVE",
"347 256 CURVE SMOOTH",
"377 265 OFFCURVE",
"396 271 OFFCURVE",
"419 288 CURVE SMOOTH",
"447 308 OFFCURVE",
"462 320 OFFCURVE",
"471 329 CURVE",
"426 370 OFFCURVE",
"391 422 OFFCURVE",
"366 484 CURVE SMOOTH",
"358 505 OFFCURVE",
"355 512 OFFCURVE",
"345 517 CURVE SMOOTH",
"317 531 OFFCURVE",
"295 557 OFFCURVE",
"282 577 CURVE SMOOTH",
"261 608 OFFCURVE",
"255 648 OFFCURVE",
"264 683 CURVE SMOOTH",
"272 709 OFFCURVE",
"288 729 OFFCURVE",
"310 740 CURVE SMOOTH",
"338 754 OFFCURVE",
"358 747 OFFCURVE",
"368 741 CURVE SMOOTH",
"380 735 OFFCURVE",
"395 721 OFFCURVE",
"399 691 CURVE SMOOTH",
"401 670 OFFCURVE",
"386 651 OFFCURVE",
"365 648 CURVE SMOOTH",
"355 647 OFFCURVE",
"345 650 OFFCURVE",
"337 657 CURVE",
"335 644 OFFCURVE",
"338 630 OFFCURVE",
"346 619 CURVE SMOOTH",
"357 602 OFFCURVE",
"369 590 OFFCURVE",
"378 585 CURVE SMOOTH",
"416 567 OFFCURVE",
"428 536 OFFCURVE",
"437 513 CURVE SMOOTH",
"461 453 OFFCURVE",
"492 407 OFFCURVE",
"535 373 CURVE SMOOTH",
"548 362 OFFCURVE",
"555 347 OFFCURVE",
"554 331 CURVE SMOOTH",
"553 297 OFFCURVE",
"523 269 OFFCURVE",
"464 226 CURVE SMOOTH",
"431 202 OFFCURVE",
"402 193 OFFCURVE",
"369 183 CURVE SMOOTH",
"351 177 OFFCURVE",
"330 171 OFFCURVE",
"304 160 CURVE SMOOTH",
"299 158 OFFCURVE",
"294 157 OFFCURVE",
"289 157 CURVE SMOOTH"
);
},
{
closed = 1;
nodes = (
"667 700 OFFCURVE",
"659 702 OFFCURVE",
"653 703 CURVE SMOOTH",
"560 721 OFFCURVE",
"492 768 OFFCURVE",
"450 844 CURVE",
"448 845 OFFCURVE",
"445 847 OFFCURVE",
"443 849 CURVE SMOOTH",
"428 864 OFFCURVE",
"428 888 OFFCURVE",
"443 903 CURVE SMOOTH",
"458 918 OFFCURVE",
"481 918 OFFCURVE",
"496 903 CURVE",
"504 897 OFFCURVE",
"511 891 OFFCURVE",
"516 881 CURVE SMOOTH",
"547 826 OFFCURVE",
"595 792 OFFCURVE",
"664 778 CURVE",
"676 823 OFFCURVE",
"694 883 OFFCURVE",
"755 917 CURVE SMOOTH",
"773 927 OFFCURVE",
"796 920 OFFCURVE",
"805 901 CURVE SMOOTH",
"816 883 OFFCURVE",
"809 860 OFFCURVE",
"791 850 CURVE SMOOTH",
"760 832 OFFCURVE",
"749 799 OFFCURVE",
"737 753 CURVE SMOOTH",
"725 709 OFFCURVE",
"698 700 OFFCURVE",
"676 700 CURVE SMOOTH"
);
},
{
closed = 1;
nodes = (
"615 -71 OFFCURVE",
"604 -66 OFFCURVE",
"597 -57 CURVE SMOOTH",
"587 -44 LINE SMOOTH",
"581 -37 OFFCURVE",
"575 -29 OFFCURVE",
"568 -22 CURVE SMOOTH",
"531 15 OFFCURVE",
"495 41 OFFCURVE",
"457 68 CURVE SMOOTH",
"417 94 OFFCURVE",
"376 123 OFFCURVE",
"334 165 CURVE SMOOTH",
"319 180 OFFCURVE",
"319 204 OFFCURVE",
"334 219 CURVE SMOOTH",
"349 234 OFFCURVE",
"373 234 OFFCURVE",
"388 218 CURVE SMOOTH",
"425 181 OFFCURVE",
"461 156 OFFCURVE",
"499 130 CURVE SMOOTH",
"539 102 OFFCURVE",
"581 74 OFFCURVE",
"623 31 CURVE SMOOTH",
"631 22 OFFCURVE",
"639 13 OFFCURVE",
"647 3 CURVE SMOOTH",
"656 -9 LINE SMOOTH",
"669 -25 OFFCURVE",
"667 -49 OFFCURVE",
"650 -62 CURVE SMOOTH",
"643 -68 OFFCURVE",
"635 -71 OFFCURVE",
"626 -71 CURVE SMOOTH"
);
},
{
closed = 1;
nodes = (
"649 -71 OFFCURVE",
"641 -68 OFFCURVE",
"634 -63 CURVE SMOOTH",
"617 -51 OFFCURVE",
"614 -27 OFFCURVE",
"626 -10 CURVE SMOOTH",
"635 2 LINE SMOOTH",
"643 14 OFFCURVE",
"651 25 OFFCURVE",
"661 35 CURVE SMOOTH",
"702 77 OFFCURVE",
"743 104 OFFCURVE",
"783 131 CURVE SMOOTH",
"820 157 OFFCURVE",
"856 182 OFFCURVE",
"892 218 CURVE SMOOTH",
"906 234 OFFCURVE",
"930 234 OFFCURVE",
"945 219 CURVE SMOOTH",
"960 204 OFFCURVE",
"961 180 OFFCURVE",
"946 165 CURVE SMOOTH",
"905 123 OFFCURVE",
"864 96 OFFCURVE",
"825 70 CURVE SMOOTH",
"788 43 OFFCURVE",
"751 18 OFFCURVE",
"715 -19 CURVE SMOOTH",
"709 -26 OFFCURVE",
"703 -34 OFFCURVE",
"698 -42 CURVE SMOOTH",
"694 -46 OFFCURVE",
"691 -51 OFFCURVE",
"687 -56 CURVE SMOOTH",
"680 -66 OFFCURVE",
"669 -71 OFFCURVE",
"657 -71 CURVE SMOOTH"
);
},
{
closed = 1;
nodes = (
"966 571 OFFCURVE",
"956 574 OFFCURVE",
"949 581 CURVE SMOOTH",
"903 625 OFFCURVE",
"880 675 OFFCURVE",
"868 701 CURVE",
"800 725 OFFCURVE",
"769 800 OFFCURVE",
"746 857 CURVE SMOOTH",
"742 869 LINE SMOOTH",
"734 888 OFFCURVE",
"743 911 OFFCURVE",
"763 919 CURVE SMOOTH",
"782 927 OFFCURVE",
"803 917 OFFCURVE",
"811 898 CURVE SMOOTH",
"816 886 LINE SMOOTH",
"838 833 OFFCURVE",
"860 778 OFFCURVE",
"902 770 CURVE SMOOTH",
"905 770 OFFCURVE",
"909 768 OFFCURVE",
"912 767 CURVE SMOOTH",
"925 760 OFFCURVE",
"930 749 OFFCURVE",
"937 735 CURVE SMOOTH",
"946 715 OFFCURVE",
"965 672 OFFCURVE",
"1002 636 CURVE SMOOTH",
"1017 621 OFFCURVE",
"1017 597 OFFCURVE",
"1003 582 CURVE SMOOTH",
"995 574 OFFCURVE",
"985 571 OFFCURVE",
"975 571 CURVE SMOOTH"
);
},
{
closed = 1;
nodes = (
"356 668 OFFCURVE",
"351 669 OFFCURVE",
"347 671 CURVE SMOOTH",
"327 679 OFFCURVE",
"318 701 OFFCURVE",
"326 721 CURVE SMOOTH",
"348 775 OFFCURVE",
"371 828 OFFCURVE",
"410 874 CURVE SMOOTH",
"417 882 OFFCURVE",
"424 894 OFFCURVE",
"430 905 CURVE SMOOTH",
"434 912 OFFCURVE",
"438 918 OFFCURVE",
"441 924 CURVE SMOOTH",
"452 942 OFFCURVE",
"476 947 OFFCURVE",
"493 936 CURVE SMOOTH",
"511 925 OFFCURVE",
"516 901 OFFCURVE",
"505 883 CURVE SMOOTH",
"502 878 OFFCURVE",
"499 873 OFFCURVE",
"496 867 CURVE SMOOTH",
"487 853 OFFCURVE",
"480 839 OFFCURVE",
"468 825 CURVE SMOOTH",
"437 787 OFFCURVE",
"417 742 OFFCURVE",
"396 692 CURVE SMOOTH",
"390 677 OFFCURVE",
"376 668 OFFCURVE",
"361 668 CURVE SMOOTH"
);
}
);
width = 1280;
}
);
note = uniF009;
unicode = F009;
},
{
glyphname = uniF011;
lastChange = "2016-11-27 23:10:54 +0000";
layers = (
{
layerId = "3FC06E6C-760F-451F-9A2A-A44F9A2B57A0";
name = Regular;
paths = (
{
closed = 1;
nodes = (
"899 655 OFFCURVE",
"885 666 OFFCURVE",
"880 682 CURVE SMOOTH",
"869 716 OFFCURVE",
"883 742 OFFCURVE",
"892 759 CURVE SMOOTH",
"897 764 OFFCURVE",
"900 771 OFFCURVE",
"901 774 CURVE SMOOTH",
"915 852 OFFCURVE",
"926 936 OFFCURVE",
"887 1009 CURVE SMOOTH",
"858 1064 OFFCURVE",
"804 1096 OFFCURVE",
"717 1110 CURVE SMOOTH",
"644 1122 OFFCURVE",
"572 1119 OFFCURVE",
"506 1099 CURVE SMOOTH",
"419 1074 OFFCURVE",
"374 1031 OFFCURVE",
"358 958 CURVE SMOOTH",
"350 921 OFFCURVE",
"354 885 OFFCURVE",
"363 840 CURVE SMOOTH",
"370 804 OFFCURVE",
"374 776 OFFCURVE",
"394 757 CURVE SMOOTH",
"408 743 OFFCURVE",
"411 724 OFFCURVE",
"412 711 CURVE SMOOTH",
"414 709 OFFCURVE",
"414 705 OFFCURVE",
"415 702 CURVE SMOOTH",
"419 683 OFFCURVE",
"407 661 OFFCURVE",
"387 657 CURVE SMOOTH",
"366 652 OFFCURVE",
"346 663 OFFCURVE",
"341 684 CURVE SMOOTH",
"339 689 OFFCURVE",
"338 695 OFFCURVE",
"337 701 CURVE SMOOTH",
"337 703 OFFCURVE",
"337 704 OFFCURVE",
"336 706 CURVE",
"303 742 OFFCURVE",
"295 785 OFFCURVE",
"288 822 CURVE SMOOTH",
"280 869 OFFCURVE",
"273 919 OFFCURVE",
"284 974 CURVE SMOOTH",
"305 1074 OFFCURVE",
"371 1139 OFFCURVE",
"484 1172 CURVE SMOOTH",
"563 1195 OFFCURVE",
"645 1199 OFFCURVE",
"730 1185 CURVE SMOOTH",
"841 1167 OFFCURVE",
"914 1121 OFFCURVE",
"955 1045 CURVE SMOOTH",
"1004 950 OFFCURVE",
"991 848 OFFCURVE",
"975 761 CURVE SMOOTH",
"972 744 OFFCURVE",
"964 731 OFFCURVE",
"959 721 CURVE SMOOTH",
"955 713 OFFCURVE",
"952 707 OFFCURVE",
"952 705 CURVE SMOOTH",
"958 685 OFFCURVE",
"947 663 OFFCURVE",
"927 657 CURVE SMOOTH",
"924 656 OFFCURVE",
"919 655 OFFCURVE",
"916 655 CURVE SMOOTH"
);
},
{
closed = 1;
nodes = (
"141 -81 LINE SMOOTH",
"121 -81 OFFCURVE",
"105 -67 OFFCURVE",
"103 -47 CURVE SMOOTH",
"97 3 OFFCURVE",
"108 55 OFFCURVE",
"136 108 CURVE SMOOTH",
"190 207 OFFCURVE",
"271 274 OFFCURVE",
"343 325 CURVE SMOOTH",
"386 356 OFFCURVE",
"409 391 OFFCURVE",
"414 432 CURVE SMOOTH",
"415 441 OFFCURVE",
"417 450 OFFCURVE",
"419 458 CURVE SMOOTH",
"420 468 LINE SMOOTH",
"424 488 OFFCURVE",
"444 502 OFFCURVE",
"464 499 CURVE SMOOTH",
"485 495 OFFCURVE",
"498 476 OFFCURVE",
"495 454 CURVE SMOOTH",
"493 443 LINE SMOOTH",
"492 437 OFFCURVE",
"490 429 OFFCURVE",
"490 423 CURVE SMOOTH",
"481 360 OFFCURVE",
"448 308 OFFCURVE",
"387 264 CURVE SMOOTH",
"322 217 OFFCURVE",
"249 157 OFFCURVE",
"203 72 CURVE SMOOTH",
"188 45 OFFCURVE",
"181 19 OFFCURVE",
"177 -4 CURVE",
"1089 -4 LINE",
"1086 25 OFFCURVE",
"1075 55 OFFCURVE",
"1056 86 CURVE SMOOTH",
"1023 142 OFFCURVE",
"976 191 OFFCURVE",
"904 245 CURVE SMOOTH",
"898 250 LINE SMOOTH",
"866 274 OFFCURVE",
"832 299 OFFCURVE",
"809 339 CURVE",
"804 341 OFFCURVE",
"801 343 OFFCURVE",
"798 346 CURVE SMOOTH",
"782 358 OFFCURVE",
"780 383 OFFCURVE",
"794 399 CURVE SMOOTH",
"807 415 OFFCURVE",
"831 418 OFFCURVE",
"847 404 CURVE",
"857 397 OFFCURVE",
"867 390 OFFCURVE",
"874 379 CURVE SMOOTH",
"889 351 OFFCURVE",
"916 332 OFFCURVE",
"944 310 CURVE SMOOTH",
"950 306 LINE SMOOTH",
"1030 246 OFFCURVE",
"1084 189 OFFCURVE",
"1121 124 CURVE SMOOTH",
"1156 66 OFFCURVE",
"1171 12 OFFCURVE",
"1166 -45 CURVE SMOOTH",
"1165 -66 OFFCURVE",
"1148 -81 OFFCURVE",
"1129 -81 CURVE SMOOTH"
);
},
{
closed = 1;
nodes = (
"901 677 OFFCURVE",
"890 682 OFFCURVE",
"883 691 CURVE SMOOTH",
"854 729 OFFCURVE",
"817 770 OFFCURVE",
"768 797 CURVE SMOOTH",
"702 831 OFFCURVE",
"629 859 OFFCURVE",
"538 883 CURVE SMOOTH",
"527 885 OFFCURVE",
"518 887 OFFCURVE",
"507 889 CURVE SMOOTH",
"497 890 OFFCURVE",
"487 892 OFFCURVE",
"477 894 CURVE SMOOTH",
"472 896 OFFCURVE",
"467 898 OFFCURVE",
"463 898 CURVE",
"462 895 OFFCURVE",
"459 892 OFFCURVE",
"456 888 CURVE SMOOTH",
"436 859 OFFCURVE",
"431 827 OFFCURVE",
"424 792 CURVE SMOOTH",
"422 782 OFFCURVE",
"420 771 OFFCURVE",
"417 759 CURVE SMOOTH",
"415 749 OFFCURVE",
"411 740 OFFCURVE",
"407 730 CURVE SMOOTH",
"404 720 LINE SMOOTH",
"396 701 OFFCURVE",
"375 690 OFFCURVE",
"356 698 CURVE SMOOTH",
"335 705 OFFCURVE",
"325 727 OFFCURVE",
"332 746 CURVE SMOOTH",
"337 759 LINE SMOOTH",
"339 764 OFFCURVE",
"342 770 OFFCURVE",
"343 776 CURVE SMOOTH",
"345 786 OFFCURVE",
"347 797 OFFCURVE",
"349 806 CURVE SMOOTH",
"357 845 OFFCURVE",
"365 889 OFFCURVE",
"392 929 CURVE SMOOTH",
"424 976 OFFCURVE",
"440 981 OFFCURVE",
"494 968 CURVE SMOOTH",
"503 966 OFFCURVE",
"512 965 OFFCURVE",
"521 963 CURVE SMOOTH",
"533 961 OFFCURVE",
"545 959 OFFCURVE",
"556 956 CURVE SMOOTH",
"653 931 OFFCURVE",
"734 901 OFFCURVE",
"803 863 CURVE SMOOTH",
"866 830 OFFCURVE",
"909 782 OFFCURVE",
"942 739 CURVE SMOOTH",
"956 723 OFFCURVE",
"953 698 OFFCURVE",
"936 685 CURVE SMOOTH",
"929 680 OFFCURVE",
"920 677 OFFCURVE",
"913 677 CURVE SMOOTH"
);
},
{
closed = 1;
nodes = (
"697 8 OFFCURVE",
"681 21 OFFCURVE",
"678 40 CURVE SMOOTH",
"634 261 LINE SMOOTH",
"630 276 OFFCURVE",
"637 290 OFFCURVE",
"649 298 CURVE SMOOTH",
"781 397 LINE",
"771 455 LINE SMOOTH",
"768 476 OFFCURVE",
"782 495 OFFCURVE",
"802 499 CURVE SMOOTH",
"823 502 OFFCURVE",
"843 488 OFFCURVE",
"846 468 CURVE SMOOTH",
"860 387 LINE SMOOTH",
"862 374 OFFCURVE",
"857 358 OFFCURVE",
"845 350 CURVE SMOOTH",
"713 252 LINE",
"752 54 LINE SMOOTH",
"756 33 OFFCURVE",
"742 14 OFFCURVE",
"722 9 CURVE SMOOTH",
"720 8 OFFCURVE",
"716 8 OFFCURVE",
"714 8 CURVE SMOOTH"
);
},
{
closed = 1;
nodes = (
"711 -75 OFFCURVE",
"709 -74 OFFCURVE",
"706 -73 CURVE SMOOTH",
"685 -69 OFFCURVE",
"672 -47 OFFCURVE",
"678 -28 CURVE SMOOTH",
"696 46 LINE SMOOTH",
"712 108 OFFCURVE",
"727 169 OFFCURVE",
"742 232 CURVE SMOOTH",
"748 253 OFFCURVE",
"751 276 OFFCURVE",
"755 297 CURVE SMOOTH",
"760 329 LINE SMOOTH",
"765 350 OFFCURVE",
"784 364 OFFCURVE",
"805 360 CURVE SMOOTH",
"826 355 OFFCURVE",
"839 336 OFFCURVE",
"836 316 CURVE SMOOTH",
"830 284 LINE SMOOTH",
"826 261 OFFCURVE",
"822 237 OFFCURVE",
"816 215 CURVE SMOOTH",
"801 152 OFFCURVE",
"785 90 OFFCURVE",
"770 27 CURVE SMOOTH",
"752 -46 LINE SMOOTH",
"748 -64 OFFCURVE",
"731 -75 OFFCURVE",
"714 -75 CURVE SMOOTH"
);
},
{
closed = 1;
nodes = (
"576 357 OFFCURVE",
"520 377 OFFCURVE",
"466 415 CURVE SMOOTH",
"411 455 OFFCURVE",
"370 510 OFFCURVE",
"338 582 CURVE",
"338 582 LINE SMOOTH",
"338 582 OFFCURVE",
"333 586 OFFCURVE",
"331 588 CURVE SMOOTH",
"325 593 LINE SMOOTH",
"319 598 OFFCURVE",
"312 603 OFFCURVE",
"305 608 CURVE SMOOTH",
"291 618 OFFCURVE",
"276 629 OFFCURVE",
"263 643 CURVE SMOOTH",
"233 676 OFFCURVE",
"223 723 OFFCURVE",
"241 760 CURVE SMOOTH",
"255 796 OFFCURVE",
"289 817 OFFCURVE",
"330 818 CURVE",
"350 818 OFFCURVE",
"368 802 OFFCURVE",
"368 782 CURVE SMOOTH",
"370 760 OFFCURVE",
"353 743 OFFCURVE",
"332 742 CURVE SMOOTH",
"315 742 OFFCURVE",
"312 733 OFFCURVE",
"310 731 CURVE SMOOTH",
"306 723 OFFCURVE",
"307 707 OFFCURVE",
"319 695 CURVE SMOOTH",
"328 686 OFFCURVE",
"338 677 OFFCURVE",
"350 669 CURVE SMOOTH",
"358 663 OFFCURVE",
"366 658 OFFCURVE",
"374 652 CURVE SMOOTH",
"378 648 LINE SMOOTH",
"388 640 OFFCURVE",
"401 629 OFFCURVE",
"408 612 CURVE SMOOTH",
"434 553 OFFCURVE",
"468 509 OFFCURVE",
"511 477 CURVE SMOOTH",
"582 426 OFFCURVE",
"653 420 OFFCURVE",
"728 458 CURVE SMOOTH",
"778 484 OFFCURVE",
"816 527 OFFCURVE",
"847 589 CURVE SMOOTH",
"860 616 OFFCURVE",
"877 652 OFFCURVE",
"923 671 CURVE SMOOTH",
"928 673 OFFCURVE",
"938 684 OFFCURVE",
"944 691 CURVE SMOOTH",
"948 697 LINE SMOOTH",
"954 702 OFFCURVE",
"961 713 OFFCURVE",
"958 724 CURVE SMOOTH",
"956 732 OFFCURVE",
"947 740 OFFCURVE",
"934 744 CURVE SMOOTH",
"914 752 OFFCURVE",
"903 773 OFFCURVE",
"911 792 CURVE SMOOTH",
"917 813 OFFCURVE",
"940 822 OFFCURVE",
"959 816 CURVE SMOOTH",
"997 803 OFFCURVE",
"1023 776 OFFCURVE",
"1032 743 CURVE SMOOTH",
"1041 711 OFFCURVE",
"1031 675 OFFCURVE",
"1005 646 CURVE SMOOTH",
"1002 642 LINE SMOOTH",
"989 628 OFFCURVE",
"974 610 OFFCURVE",
"952 600 CURVE SMOOTH",
"935 594 OFFCURVE",
"928 581 OFFCURVE",
"915 556 CURVE SMOOTH",
"877 478 OFFCURVE",
"827 424 OFFCURVE",
"763 391 CURVE SMOOTH",
"720 368 OFFCURVE",
"676 357 OFFCURVE",
"633 357 CURVE SMOOTH"
);
},
{
closed = 1;
nodes = (
"547 -56 OFFCURVE",
"536 -52 OFFCURVE",
"528 -42 CURVE SMOOTH",
"527 -40 OFFCURVE",
"526 -39 OFFCURVE",
"524 -38 CURVE SMOOTH",
"519 -31 OFFCURVE",
"509 -21 OFFCURVE",
"505 -6 CURVE SMOOTH",
"489 57 OFFCURVE",
"473 120 OFFCURVE",
"458 183 CURVE SMOOTH",
"451 212 OFFCURVE",
"445 243 OFFCURVE",
"438 272 CURVE SMOOTH",
"430 311 LINE SMOOTH",
"425 332 OFFCURVE",
"438 352 OFFCURVE",
"459 356 CURVE SMOOTH",
"479 361 OFFCURVE",
"499 348 OFFCURVE",
"504 327 CURVE SMOOTH",
"512 288 LINE SMOOTH",
"519 259 OFFCURVE",
"525 230 OFFCURVE",
"532 201 CURVE SMOOTH",
"547 139 OFFCURVE",
"562 78 OFFCURVE",
"578 17 CURVE",
"578 16 OFFCURVE",
"579 16 OFFCURVE",
"580 15 CURVE SMOOTH",
"583 12 OFFCURVE",
"585 8 OFFCURVE",
"589 5 CURVE SMOOTH",
"601 -11 OFFCURVE",
"598 -36 OFFCURVE",
"582 -48 CURVE SMOOTH",
"575 -54 OFFCURVE",
"566 -56 OFFCURVE",
"559 -56 CURVE SMOOTH"
);
},
{
closed = 1;
nodes = (
"540 -35 OFFCURVE",
"538 -35 OFFCURVE",
"536 -35 CURVE SMOOTH",
"516 -31 OFFCURVE",
"501 -12 OFFCURVE",
"504 9 CURVE SMOOTH",
"539 241 LINE",
"434 355 LINE SMOOTH",
"420 370 OFFCURVE",
"421 395 OFFCURVE",
"436 409 CURVE SMOOTH",
"451 423 OFFCURVE",
"476 422 OFFCURVE",
"490 407 CURVE SMOOTH",
"607 280 LINE SMOOTH",
"615 272 OFFCURVE",
"619 260 OFFCURVE",
"616 248 CURVE SMOOTH",
"579 -2 LINE SMOOTH",
"577 -21 OFFCURVE",
"561 -35 OFFCURVE",
"541 -35 CURVE SMOOTH"
);
}
);
width = 1280;
}
);
note = uniF011;
unicode = F011;
},
{
glyphname = uniF012;
lastChange = "2016-11-27 23:11:08 +0000";
layers = (
{
layerId = "3FC06E6C-760F-451F-9A2A-A44F9A2B57A0";
name = Regular;
paths = (
{
closed = 1;
nodes = (
"422 157 OFFCURVE",
"411 162 OFFCURVE",
"404 170 CURVE SMOOTH",
"399 175 OFFCURVE",
"394 181 OFFCURVE",
"389 187 CURVE SMOOTH",
"376 200 OFFCURVE",
"363 214 OFFCURVE",
"352 230 CURVE SMOOTH",
"337 251 OFFCURVE",
"322 267 OFFCURVE",
"307 283 CURVE SMOOTH",
"276 318 OFFCURVE",
"243 353 OFFCURVE",
"233 423 CURVE SMOOTH",
"200 635 OFFCURVE",
"219 818 OFFCURVE",
"292 982 CURVE SMOOTH",
"332 1071 OFFCURVE",
"398 1135 OFFCURVE",
"488 1172 CURVE SMOOTH",
"559 1202 OFFCURVE",
"630 1203 OFFCURVE",
"690 1200 CURVE SMOOTH",
"832 1193 OFFCURVE",
"937 1130 OFFCURVE",
"1001 1011 CURVE SMOOTH",
"1047 927 OFFCURVE",
"1070 830 OFFCURVE",
"1071 714 CURVE SMOOTH",
"1071 624 OFFCURVE",
"1065 533 OFFCURVE",
"1059 445 CURVE SMOOTH",
"1058 436 LINE SMOOTH",
"1050 318 OFFCURVE",
"1009 266 OFFCURVE",
"940 187 CURVE SMOOTH",
"932 178 OFFCURVE",
"923 173 OFFCURVE",
"916 169 CURVE",
"899 158 OFFCURVE",
"873 161 OFFCURVE",
"861 179 CURVE SMOOTH",
"848 196 OFFCURVE",
"851 219 OFFCURVE",
"869 231 CURVE SMOOTH",
"872 233 OFFCURVE",
"875 234 OFFCURVE",
"878 236 CURVE SMOOTH",
"879 237 OFFCURVE",
"881 238 OFFCURVE",
"882 239 CURVE",
"949 316 OFFCURVE",
"975 352 OFFCURVE",
"981 442 CURVE SMOOTH",
"981 450 LINE SMOOTH",
"988 537 OFFCURVE",
"994 626 OFFCURVE",
"993 714 CURVE SMOOTH",
"993 815 OFFCURVE",
"973 900 OFFCURVE",
"933 974 CURVE SMOOTH",
"881 1069 OFFCURVE",
"801 1118 OFFCURVE",
"687 1123 CURVE SMOOTH",
"635 1125 OFFCURVE",
"575 1124 OFFCURVE",
"517 1100 CURVE SMOOTH",
"446 1071 OFFCURVE",
"395 1021 OFFCURVE",
"363 950 CURVE SMOOTH",
"297 800 OFFCURVE",
"278 632 OFFCURVE",
"309 435 CURVE SMOOTH",
"316 387 OFFCURVE",
"335 367 OFFCURVE",
"365 336 CURVE SMOOTH",
"380 319 OFFCURVE",
"398 300 OFFCURVE",
"416 274 CURVE SMOOTH",
"424 262 OFFCURVE",
"434 252 OFFCURVE",
"445 240 CURVE SMOOTH",
"451 233 OFFCURVE",
"457 227 OFFCURVE",
"463 222 CURVE SMOOTH",
"476 205 OFFCURVE",
"475 181 OFFCURVE",
"459 166 CURVE SMOOTH",
"451 160 OFFCURVE",
"442 157 OFFCURVE",
"433 157 CURVE SMOOTH"
);
},
{
closed = 1;
nodes = (
"238 -77 LINE SMOOTH",
"215 -77 OFFCURVE",
"191 -75 OFFCURVE",
"174 -56 CURVE SMOOTH",
"154 -35 OFFCURVE",
"157 -6 OFFCURVE",
"159 9 CURVE SMOOTH",
"166 77 OFFCURVE",
"187 129 OFFCURVE",
"223 167 CURVE SMOOTH",
"253 198 OFFCURVE",
"285 209 OFFCURVE",
"313 219 CURVE SMOOTH",
"335 227 OFFCURVE",
"353 232 OFFCURVE",
"370 248 CURVE SMOOTH",
"387 262 OFFCURVE",
"411 260 OFFCURVE",
"426 244 CURVE SMOOTH",
"440 228 OFFCURVE",
"438 204 OFFCURVE",
"422 190 CURVE SMOOTH",
"393 163 OFFCURVE",
"364 154 OFFCURVE",
"338 145 CURVE SMOOTH",
"315 137 OFFCURVE",
"297 131 OFFCURVE",
"279 113 CURVE SMOOTH",
"255 88 OFFCURVE",
"241 51 OFFCURVE",
"237 2 CURVE",
"237 2 OFFCURVE",
"237 2 OFFCURVE",
"237 2 CURVE SMOOTH",
"237 1 OFFCURVE",
"237 1 OFFCURVE",
"238 1 CURVE SMOOTH",
"773 1 LINE",
"1044 1 LINE",
"1043 34 OFFCURVE",
"1038 37 OFFCURVE",
"1012 59 CURVE SMOOTH",
"1003 67 OFFCURVE",
"992 76 OFFCURVE",
"979 88 CURVE SMOOTH",
"959 107 OFFCURVE",
"939 126 OFFCURVE",
"917 144 CURVE SMOOTH",
"888 170 LINE SMOOTH",
"872 184 OFFCURVE",
"871 209 OFFCURVE",
"885 225 CURVE SMOOTH",
"899 241 OFFCURVE",
"924 242 OFFCURVE",
"940 227 CURVE SMOOTH",
"968 202 LINE SMOOTH",
"990 183 OFFCURVE",
"1012 163 OFFCURVE",
"1034 143 CURVE SMOOTH",
"1044 133 OFFCURVE",
"1053 126 OFFCURVE",
"1062 119 CURVE SMOOTH",
"1091 95 OFFCURVE",
"1119 70 OFFCURVE",
"1122 3 CURVE SMOOTH",
"1123 -21 OFFCURVE",
"1124 -42 OFFCURVE",
"1108 -60 CURVE SMOOTH",
"1091 -77 OFFCURVE",
"1069 -77 OFFCURVE",
"1046 -77 CURVE SMOOTH",
"773 -77 LINE"
);
},
{
closed = 1;
nodes = (
"622 32 OFFCURVE",
"603 39 OFFCURVE",
"589 55 CURVE",
"584 56 OFFCURVE",
"580 56 OFFCURVE",
"576 57 CURVE SMOOTH",
"560 64 OFFCURVE",
"551 85 OFFCURVE",
"551 100 CURVE SMOOTH",
"553 129 OFFCURVE",
"545 150 OFFCURVE",
"505 165 CURVE SMOOTH",
"490 172 OFFCURVE",
"475 176 OFFCURVE",
"460 181 CURVE SMOOTH",
"437 189 LINE SMOOTH",
"417 195 OFFCURVE",
"406 217 OFFCURVE",
"413 237 CURVE SMOOTH",
"420 258 OFFCURVE",
"441 269 OFFCURVE",
"462 262 CURVE SMOOTH",
"483 256 LINE SMOOTH",
"500 250 OFFCURVE",
"517 245 OFFCURVE",
"533 238 CURVE SMOOTH",
"598 212 OFFCURVE",
"621 169 OFFCURVE",
"627 130 CURVE",
"631 126 OFFCURVE",
"636 121 OFFCURVE",
"640 115 CURVE SMOOTH",
"640 114 OFFCURVE",
"641 113 OFFCURVE",
"641 112 CURVE",
"642 113 OFFCURVE",
"642 115 OFFCURVE",
"643 116 CURVE SMOOTH",
"647 124 OFFCURVE",
"653 131 OFFCURVE",
"658 135 CURVE",
"662 155 OFFCURVE",
"672 180 OFFCURVE",
"698 195 CURVE SMOOTH",
"719 207 OFFCURVE",
"738 219 OFFCURVE",
"760 227 CURVE SMOOTH",
"783 237 OFFCURVE",
"807 245 OFFCURVE",
"831 253 CURVE SMOOTH",
"858 262 LINE SMOOTH",
"879 269 OFFCURVE",
"901 259 OFFCURVE",
"908 238 CURVE SMOOTH",
"914 218 OFFCURVE",
"904 195 OFFCURVE",
"883 189 CURVE SMOOTH",
"855 179 LINE SMOOTH",
"833 172 OFFCURVE",
"811 164 OFFCURVE",
"789 156 CURVE SMOOTH",
"773 149 OFFCURVE",
"756 139 OFFCURVE",
"739 130 CURVE SMOOTH",
"737 128 OFFCURVE",
"734 127 OFFCURVE",
"733 109 CURVE SMOOTH",
"732 101 OFFCURVE",
"730 79 OFFCURVE",
"709 68 CURVE SMOOTH",
"707 67 OFFCURVE",
"706 67 OFFCURVE",
"704 67 CURVE",
"688 45 OFFCURVE",
"667 33 OFFCURVE",
"644 32 CURVE",
"643 32 OFFCURVE",
"642 32 OFFCURVE",
"641 32 CURVE SMOOTH"
);
},
{
closed = 1;
nodes = (
"866 117 OFFCURVE",
"862 118 OFFCURVE",
"857 119 CURVE SMOOTH",
"838 127 OFFCURVE",
"827 149 OFFCURVE",
"834 168 CURVE SMOOTH",
"837 175 OFFCURVE",
"840 182 OFFCURVE",
"843 189 CURVE SMOOTH",
"844 190 OFFCURVE",
"845 192 OFFCURVE",
"846 194 CURVE",
"836 215 OFFCURVE",
"839 234 OFFCURVE",
"841 247 CURVE SMOOTH",
"841 250 OFFCURVE",
"842 253 OFFCURVE",
"842 256 CURVE SMOOTH",
"843 331 LINE SMOOTH",
"844 378 OFFCURVE",
"845 417 OFFCURVE",
"845 479 CURVE",
"845 488 OFFCURVE",
"839 540 OFFCURVE",
"837 549 CURVE SMOOTH",
"832 570 OFFCURVE",
"844 591 OFFCURVE",
"864 597 CURVE SMOOTH",
"883 603 OFFCURVE",
"905 592 OFFCURVE",
"911 573 CURVE SMOOTH",
"916 556 OFFCURVE",
"922 488 OFFCURVE",
"922 479 CURVE SMOOTH",
"922 416 OFFCURVE",
"921 377 OFFCURVE",
"920 329 CURVE SMOOTH",
"919 255 LINE SMOOTH",
"919 248 OFFCURVE",
"918 241 OFFCURVE",
"917 234 CURVE SMOOTH",
"916 231 OFFCURVE",
"916 226 OFFCURVE",
"916 225 CURVE",
"935 200 OFFCURVE",
"922 174 OFFCURVE",
"912 155 CURVE SMOOTH",
"911 151 OFFCURVE",
"909 146 OFFCURVE",
"908 143 CURVE SMOOTH",
"902 127 OFFCURVE",
"886 117 OFFCURVE",
"871 117 CURVE SMOOTH"
);
},
{
closed = 1;
nodes = (
"428 220 OFFCURVE",
"411 233 OFFCURVE",
"408 252 CURVE SMOOTH",
"405 269 OFFCURVE",
"402 277 OFFCURVE",
"399 286 CURVE SMOOTH",
"394 297 OFFCURVE",
"388 312 OFFCURVE",
"385 343 CURVE SMOOTH",
"383 368 OFFCURVE",
"384 393 OFFCURVE",
"384 417 CURVE SMOOTH",
"385 438 OFFCURVE",
"385 458 OFFCURVE",
"384 479 CURVE SMOOTH",
"382 497 OFFCURVE",
"379 515 OFFCURVE",
"375 534 CURVE SMOOTH",
"370 558 OFFCURVE",
"367 583 OFFCURVE",
"366 611 CURVE SMOOTH",
"365 651 OFFCURVE",
"367 691 OFFCURVE",
"370 730 CURVE SMOOTH",
"372 746 OFFCURVE",
"373 763 OFFCURVE",
"374 779 CURVE SMOOTH",
"375 801 OFFCURVE",
"394 818 OFFCURVE",
"415 816 CURVE SMOOTH",
"436 814 OFFCURVE",
"453 797 OFFCURVE",
"452 774 CURVE SMOOTH",
"451 758 OFFCURVE",
"450 741 OFFCURVE",
"448 724 CURVE SMOOTH",
"445 685 OFFCURVE",
"442 649 OFFCURVE",
"443 612 CURVE SMOOTH",
"443 592 OFFCURVE",
"448 571 OFFCURVE",
"452 547 CURVE SMOOTH",
"456 528 OFFCURVE",
"460 507 OFFCURVE",
"461 484 CURVE SMOOTH",
"463 462 OFFCURVE",
"463 438 OFFCURVE",
"462 415 CURVE SMOOTH",
"462 392 OFFCURVE",
"461 370 OFFCURVE",
"463 350 CURVE SMOOTH",
"464 330 OFFCURVE",
"466 323 OFFCURVE",
"470 315 CURVE SMOOTH",
"475 304 OFFCURVE",
"480 291 OFFCURVE",
"485 265 CURVE SMOOTH",
"488 244 OFFCURVE",
"474 224 OFFCURVE",
"453 221 CURVE SMOOTH",
"451 220 OFFCURVE",
"448 220 OFFCURVE",
"446 220 CURVE SMOOTH"
);
},
{
closed = 1;
nodes = (
"846 788 OFFCURVE",
"829 805 OFFCURVE",
"829 827 CURVE SMOOTH",
"829 897 LINE SMOOTH",
"829 918 OFFCURVE",
"846 935 OFFCURVE",
"868 935 CURVE SMOOTH",
"889 935 OFFCURVE",
"907 918 OFFCURVE",
"907 897 CURVE SMOOTH",
"907 827 LINE SMOOTH",
"907 805 OFFCURVE",
"889 788 OFFCURVE",
"868 788 CURVE SMOOTH"
);
},
{
closed = 1;
nodes = (
"584 294 OFFCURVE",
"531 317 OFFCURVE",
"481 360 CURVE SMOOTH",
"463 375 OFFCURVE",
"451 392 OFFCURVE",
"438 408 CURVE SMOOTH",
"432 416 OFFCURVE",
"427 423 OFFCURVE",
"420 430 CURVE SMOOTH",
"416 435 OFFCURVE",
"411 439 OFFCURVE",
"407 444 CURVE SMOOTH",
"399 451 LINE SMOOTH",
"384 466 OFFCURVE",
"384 491 OFFCURVE",
"399 506 CURVE SMOOTH",
"414 521 OFFCURVE",
"438 521 OFFCURVE",
"454 506 CURVE SMOOTH",
"461 499 LINE SMOOTH",
"467 493 OFFCURVE",
"473 487 OFFCURVE",
"479 481 CURVE SMOOTH",
"486 473 OFFCURVE",
"493 465 OFFCURVE",
"498 456 CURVE SMOOTH",
"510 442 OFFCURVE",
"521 429 OFFCURVE",
"532 419 CURVE SMOOTH",
"593 365 OFFCURVE",
"649 358 OFFCURVE",
"717 394 CURVE SMOOTH",
"750 411 OFFCURVE",
"773 442 OFFCURVE",
"798 475 CURVE SMOOTH",
"812 492 LINE SMOOTH",
"836 524 OFFCURVE",
"846 559 OFFCURVE",
"843 606 CURVE SMOOTH",
"839 656 OFFCURVE",
"836 707 OFFCURVE",
"833 757 CURVE SMOOTH",
"829 821 LINE SMOOTH",
"827 842 OFFCURVE",
"844 861 OFFCURVE",
"865 863 CURVE SMOOTH",
"886 864 OFFCURVE",
"905 847 OFFCURVE",
"906 826 CURVE SMOOTH",
"910 762 LINE SMOOTH",
"912 711 OFFCURVE",
"916 661 OFFCURVE",
"919 611 CURVE SMOOTH",
"924 545 OFFCURVE",
"910 492 OFFCURVE",
"873 444 CURVE SMOOTH",
"860 427 LINE SMOOTH",
"831 389 OFFCURVE",
"801 351 OFFCURVE",
"752 325 CURVE SMOOTH",
"714 305 OFFCURVE",
"676 294 OFFCURVE",
"639 294 CURVE SMOOTH"
);
},
{
closed = 1;
nodes = (
"415 739 OFFCURVE",
"394 741 OFFCURVE",
"380 760 CURVE SMOOTH",
"363 784 OFFCURVE",
"374 813 OFFCURVE",
"380 830 CURVE SMOOTH",
"388 849 OFFCURVE",
"410 859 OFFCURVE",
"431 852 CURVE SMOOTH",
"445 846 OFFCURVE",
"454 833 OFFCURVE",
"455 818 CURVE",
"484 820 OFFCURVE",
"511 822 OFFCURVE",
"538 824 CURVE SMOOTH",
"557 826 LINE",
"575 888 LINE SMOOTH",
"581 908 OFFCURVE",
"602 920 OFFCURVE",
"623 914 CURVE SMOOTH",
"644 908 OFFCURVE",
"655 886 OFFCURVE",
"650 866 CURVE SMOOTH",
"623 778 LINE SMOOTH",
"620 763 OFFCURVE",
"605 752 OFFCURVE",
"590 750 CURVE SMOOTH",
"545 747 LINE SMOOTH",
"508 744 OFFCURVE",
"472 740 OFFCURVE",
"435 739 CURVE SMOOTH",
"433 739 OFFCURVE",
"431 739 OFFCURVE",
"428 739 CURVE SMOOTH"
);
},
{
closed = 1;
nodes = (
"669 755 OFFCURVE",
"652 771 OFFCURVE",
"651 792 CURVE SMOOTH",
"650 813 OFFCURVE",
"666 832 OFFCURVE",
"687 833 CURVE SMOOTH",
"714 834 OFFCURVE",
"758 835 OFFCURVE",
"799 835 CURVE SMOOTH",
"824 835 OFFCURVE",
"847 835 OFFCURVE",
"863 835 CURVE SMOOTH",
"884 836 OFFCURVE",
"903 820 OFFCURVE",
"903 798 CURVE SMOOTH",
"904 776 OFFCURVE",
"886 759 OFFCURVE",
"865 758 CURVE SMOOTH",
"849 758 OFFCURVE",
"825 758 OFFCURVE",
"800 757 CURVE SMOOTH",
"760 757 OFFCURVE",
"717 756 OFFCURVE",
"691 755 CURVE",
"691 755 OFFCURVE",
"690 755 OFFCURVE",
"689 755 CURVE SMOOTH"
);
},
{
closed = 1;
nodes = (
"850 194 OFFCURVE",
"840 197 OFFCURVE",
"832 205 CURVE SMOOTH",
"824 215 OFFCURVE",
"815 224 OFFCURVE",
"807 232 CURVE SMOOTH",
"785 254 OFFCURVE",
"762 277 OFFCURVE",
"744 304 CURVE",
"726 311 OFFCURVE",
"717 323 OFFCURVE",
"708 347 CURVE SMOOTH",
"701 367 OFFCURVE",
"712 389 OFFCURVE",
"732 396 CURVE SMOOTH",
"752 403 OFFCURVE",
"774 392 OFFCURVE",
"782 373 CURVE",
"789 368 OFFCURVE",
"798 361 OFFCURVE",
"808 348 CURVE SMOOTH",
"822 326 OFFCURVE",
"842 307 OFFCURVE",
"862 287 CURVE SMOOTH",
"871 277 OFFCURVE",
"880 268 OFFCURVE",
"889 259 CURVE SMOOTH",
"904 243 OFFCURVE",
"903 218 OFFCURVE",
"887 203 CURVE SMOOTH",
"879 196 OFFCURVE",
"871 194 OFFCURVE",
"861 194 CURVE SMOOTH"
);
},
{
closed = 1;
nodes = (
"436 157 OFFCURVE",
"433 157 OFFCURVE",
"431 157 CURVE SMOOTH",
"410 161 OFFCURVE",
"397 181 OFFCURVE",
"400 202 CURVE SMOOTH",
"401 207 OFFCURVE",
"401 213 OFFCURVE",
"402 219 CURVE SMOOTH",
"403 244 OFFCURVE",
"406 290 OFFCURVE",
"453 311 CURVE",
"453 312 OFFCURVE",
"453 313 OFFCURVE",
"453 313 CURVE",
"465 340 OFFCURVE",
"478 351 OFFCURVE",
"491 359 CURVE SMOOTH",
"495 362 OFFCURVE",
"496 363 OFFCURVE",
"500 371 CURVE SMOOTH",
"508 391 OFFCURVE",
"531 400 OFFCURVE",
"551 391 CURVE SMOOTH",
"571 384 OFFCURVE",
"580 360 OFFCURVE",
"571 341 CURVE SMOOTH",
"560 315 OFFCURVE",
"547 304 OFFCURVE",
"534 295 CURVE SMOOTH",
"529 291 OFFCURVE",
"528 291 OFFCURVE",
"525 283 CURVE SMOOTH",
"520 271 OFFCURVE",
"510 250 OFFCURVE",
"489 242 CURVE SMOOTH",
"483 240 OFFCURVE",
"481 240 OFFCURVE",
"480 215 CURVE SMOOTH",
"479 205 OFFCURVE",
"478 196 OFFCURVE",
"477 188 CURVE SMOOTH",
"473 169 OFFCURVE",
"457 157 OFFCURVE",
"439 157 CURVE SMOOTH"
);
},
{
closed = 1;
nodes = (
"625 748 OFFCURVE",
"608 764 OFFCURVE",
"607 784 CURVE SMOOTH",
"600 864 LINE SMOOTH",
"598 885 OFFCURVE",
"614 903 OFFCURVE",
"635 905 CURVE SMOOTH",
"656 907 OFFCURVE",
"676 892 OFFCURVE",
"677 870 CURVE SMOOTH",
"684 790 LINE SMOOTH",
"686 769 OFFCURVE",
"670 750 OFFCURVE",
"649 748 CURVE SMOOTH",
"648 748 OFFCURVE",
"647 748 OFFCURVE",
"645 748 CURVE SMOOTH"
);
}
);
width = 1280;
}
);
note = uniF012;
unicode = F012;
},
{
glyphname = uniF013;
lastChange = "2016-11-27 23:11:27 +0000";
layers = (
{
layerId = "3FC06E6C-760F-451F-9A2A-A44F9A2B57A0";
name = Regular;
paths = (
{
closed = 1;
nodes = (
"137 -82 LINE SMOOTH",
"117 -82 OFFCURVE",
"102 -68 OFFCURVE",
"99 -49 CURVE SMOOTH",
"90 40 OFFCURVE",
"129 111 OFFCURVE",
"164 162 CURVE SMOOTH",
"216 235 OFFCURVE",
"284 288 OFFCURVE",
"351 339 CURVE SMOOTH",
"366 350 OFFCURVE",
"380 361 OFFCURVE",
"395 373 CURVE SMOOTH",
"410 385 OFFCURVE",
"434 383 OFFCURVE",
"446 366 CURVE SMOOTH",
"460 351 OFFCURVE",
"456 328 OFFCURVE",
"441 315 CURVE SMOOTH",
"427 303 OFFCURVE",
"411 292 OFFCURVE",
"397 281 CURVE SMOOTH",
"332 230 OFFCURVE",
"270 184 OFFCURVE",
"226 119 CURVE SMOOTH",
"192 71 OFFCURVE",
"175 32 OFFCURVE",
"172 -7 CURVE",
"1113 -7 LINE",
"1107 29 OFFCURVE",
"1093 67 OFFCURVE",
"1069 104 CURVE SMOOTH",
"1036 156 OFFCURVE",
"989 202 OFFCURVE",
"922 254 CURVE SMOOTH",
"905 267 OFFCURVE",
"887 282 OFFCURVE",
"871 296 CURVE SMOOTH",
"848 315 LINE SMOOTH",
"832 328 OFFCURVE",
"830 351 OFFCURVE",
"843 368 CURVE SMOOTH",
"856 383 OFFCURVE",
"879 385 OFFCURVE",
"896 372 CURVE SMOOTH",
"918 353 LINE SMOOTH",
"934 340 OFFCURVE",
"951 326 OFFCURVE",
"967 313 CURVE SMOOTH",
"1041 256 OFFCURVE",
"1093 203 OFFCURVE",
"1132 145 CURVE SMOOTH",
"1172 82 OFFCURVE",
"1191 20 OFFCURVE",
"1188 -47 CURVE SMOOTH",
"1187 -66 OFFCURVE",
"1171 -82 OFFCURVE",
"1150 -82 CURVE SMOOTH"
);
},
{
closed = 1;
nodes = (
"596 371 OFFCURVE",
"550 382 OFFCURVE",
"507 406 CURVE SMOOTH",
"449 438 OFFCURVE",
"401 487 OFFCURVE",
"367 548 CURVE SMOOTH",
"360 560 LINE SMOOTH",
"341 597 OFFCURVE",
"327 620 OFFCURVE",
"300 631 CURVE SMOOTH",
"280 639 OFFCURVE",
"268 654 OFFCURVE",
"259 665 CURVE SMOOTH",
"233 700 OFFCURVE",
"225 739 OFFCURVE",
"237 772 CURVE SMOOTH",
"247 797 OFFCURVE",
"267 818 OFFCURVE",
"293 829 CURVE",
"319 923 LINE",
"315 1002 OFFCURVE",
"364 1071 OFFCURVE",
"366 1075 CURVE SMOOTH",
"368 1076 OFFCURVE",
"369 1078 OFFCURVE",
"370 1080 CURVE",
"372 1080 OFFCURVE",
"373 1081 OFFCURVE",
"373 1083 CURVE SMOOTH",
"424 1143 OFFCURVE",
"494 1176 OFFCURVE",
"592 1186 CURVE SMOOTH",
"691 1198 OFFCURVE",
"779 1179 OFFCURVE",
"853 1134 CURVE SMOOTH",
"917 1094 OFFCURVE",
"960 1031 OFFCURVE",
"977 951 CURVE SMOOTH",
"984 916 OFFCURVE",
"986 882 OFFCURVE",
"988 848 CURVE SMOOTH",
"989 841 OFFCURVE",
"989 836 OFFCURVE",
"991 829 CURVE",
"1019 817 OFFCURVE",
"1040 796 OFFCURVE",
"1048 770 CURVE SMOOTH",
"1059 736 OFFCURVE",
"1049 699 OFFCURVE",
"1020 666 CURVE SMOOTH",
"1008 652 OFFCURVE",
"995 641 OFFCURVE",
"982 631 CURVE SMOOTH",
"976 625 OFFCURVE",
"970 620 OFFCURVE",
"964 614 CURVE SMOOTH",
"961 612 OFFCURVE",
"956 609 OFFCURVE",
"953 606 CURVE SMOOTH",
"949 602 OFFCURVE",
"942 597 OFFCURVE",
"941 595 CURVE",
"907 521 OFFCURVE",
"867 469 OFFCURVE",
"818 431 CURVE SMOOTH",
"764 391 OFFCURVE",
"703 371 OFFCURVE",
"642 371 CURVE SMOOTH"
);
},
{
closed = 1;
nodes = (
"427 1031 OFFCURVE",
"389 977 OFFCURVE",
"392 921 CURVE SMOOTH",
"394 917 OFFCURVE",
"392 913 OFFCURVE",
"391 908 CURVE SMOOTH",
"359 791 LINE SMOOTH",
"356 777 OFFCURVE",
"345 766 OFFCURVE",
"332 764 CURVE SMOOTH",
"319 761 OFFCURVE",
"310 754 OFFCURVE",
"307 747 CURVE SMOOTH",
"303 738 OFFCURVE",
"308 726 OFFCURVE",
"318 712 CURVE SMOOTH",
"322 707 OFFCURVE",
"326 700 OFFCURVE",
"329 699 CURVE",
"381 678 OFFCURVE",
"405 634 OFFCURVE",
"425 596 CURVE SMOOTH",
"432 585 LINE SMOOTH",
"460 535 OFFCURVE",
"497 496 OFFCURVE",
"543 471 CURVE SMOOTH",
"618 430 OFFCURVE",
"702 437 OFFCURVE",
"772 491 CURVE SMOOTH",
"813 522 OFFCURVE",
"844 563 OFFCURVE",
"874 625 CURVE SMOOTH",
"882 643 OFFCURVE",
"895 654 OFFCURVE",
"906 663 CURVE SMOOTH",
"913 669 LINE",
"920 676 OFFCURVE",
"928 682 OFFCURVE",
"934 688 CURVE SMOOTH",
"945 697 OFFCURVE",
"956 706 OFFCURVE",
"964 715 CURVE SMOOTH",
"975 727 OFFCURVE",
"980 739 OFFCURVE",
"977 747 CURVE SMOOTH",
"975 754 OFFCURVE",
"963 762 OFFCURVE",
"947 765 CURVE SMOOTH",
"931 769 OFFCURVE",
"920 782 OFFCURVE",
"918 798 CURVE SMOOTH",
"917 813 OFFCURVE",
"916 828 OFFCURVE",
"915 842 CURVE SMOOTH",
"912 875 OFFCURVE",
"910 906 OFFCURVE",
"905 936 CURVE SMOOTH",
"891 995 OFFCURVE",
"861 1042 OFFCURVE",
"813 1070 CURVE SMOOTH",
"754 1108 OFFCURVE",
"683 1122 OFFCURVE",
"600 1112 CURVE SMOOTH",
"521 1105 OFFCURVE",
"467 1079 OFFCURVE",
"430 1034 CURVE SMOOTH",
"429 1034 OFFCURVE",
"428 1033 OFFCURVE",
"428 1032 CURVE",
"428 1032 OFFCURVE",
"428 1032 OFFCURVE",
"428 1032 CURVE"
);
},
{
closed = 1;
nodes = (
"553 867 OFFCURVE",
"483 897 OFFCURVE",
"442 949 CURVE SMOOTH",
"429 966 OFFCURVE",
"432 989 OFFCURVE",
"448 1002 CURVE SMOOTH",
"464 1014 OFFCURVE",
"487 1012 OFFCURVE",
"500 995 CURVE SMOOTH",
"528 960 OFFCURVE",
"578 939 OFFCURVE",
"634 940 CURVE SMOOTH",
"690 942 OFFCURVE",
"739 965 OFFCURVE",
"767 1002 CURVE SMOOTH",
"777 1015 OFFCURVE",
"791 1020 OFFCURVE",
"807 1024 CURVE SMOOTH",
"819 1029 OFFCURVE",
"837 1034 OFFCURVE",
"839 1042 CURVE SMOOTH",
"842 1063 OFFCURVE",
"862 1076 OFFCURVE",
"882 1073 CURVE SMOOTH",
"902 1069 OFFCURVE",
"916 1049 OFFCURVE",
"912 1030 CURVE SMOOTH",
"904 977 OFFCURVE",
"853 961 OFFCURVE",
"829 954 CURVE SMOOTH",
"825 953 OFFCURVE",
"823 953 OFFCURVE",
"822 951 CURVE",
"780 900 OFFCURVE",
"711 868 OFFCURVE",
"635 867 CURVE SMOOTH",
"634 867 OFFCURVE",
"631 867 OFFCURVE",
"629 867 CURVE SMOOTH"
);
},
{
closed = 1;
nodes = (
"737 -74 OFFCURVE",
"722 -61 OFFCURVE",
"720 -42 CURVE SMOOTH",
"715 -11 OFFCURVE",
"699 22 OFFCURVE",
"682 58 CURVE SMOOTH",
"665 92 OFFCURVE",
"648 127 OFFCURVE",
"640 165 CURVE SMOOTH",
"631 209 OFFCURVE",
"665 240 OFFCURVE",
"689 263 CURVE SMOOTH",
"698 271 OFFCURVE",
"707 281 OFFCURVE",
"712 286 CURVE SMOOTH",
"722 304 OFFCURVE",
"745 310 OFFCURVE",
"763 299 CURVE SMOOTH",
"780 289 OFFCURVE",
"786 266 OFFCURVE",
"776 249 CURVE SMOOTH",
"767 233 OFFCURVE",
"753 221 OFFCURVE",
"739 209 CURVE SMOOTH",
"731 200 OFFCURVE",
"714 185 OFFCURVE",
"713 178 CURVE",
"719 152 OFFCURVE",
"733 122 OFFCURVE",
"748 90 CURVE SMOOTH",
"767 51 OFFCURVE",
"787 11 OFFCURVE",
"793 -32 CURVE SMOOTH",
"796 -53 OFFCURVE",
"781 -72 OFFCURVE",
"761 -74 CURVE SMOOTH",
"759 -74 OFFCURVE",
"758 -74 OFFCURVE",
"756 -74 CURVE SMOOTH"
);
},
{
closed = 1;
nodes = (
"528 -74 OFFCURVE",
"527 -74 OFFCURVE",
"525 -74 CURVE SMOOTH",
"505 -71 OFFCURVE",
"490 -52 OFFCURVE",
"493 -32 CURVE SMOOTH",
"499 8 OFFCURVE",
"518 46 OFFCURVE",
"537 83 CURVE SMOOTH",
"552 114 OFFCURVE",
"568 144 OFFCURVE",
"572 172 CURVE",
"571 177 OFFCURVE",
"554 194 OFFCURVE",
"544 202 CURVE SMOOTH",
"535 213 OFFCURVE",
"522 224 OFFCURVE",
"515 238 CURVE SMOOTH",
"496 266 OFFCURVE",
"499 297 OFFCURVE",
"525 318 CURVE SMOOTH",
"535 326 OFFCURVE",
"548 328 OFFCURVE",
"560 324 CURVE SMOOTH",
"612 305 OFFCURVE",
"679 319 OFFCURVE",
"714 329 CURVE SMOOTH",
"734 335 OFFCURVE",
"755 322 OFFCURVE",
"760 303 CURVE SMOOTH",
"766 283 OFFCURVE",
"754 263 OFFCURVE",
"734 257 CURVE SMOOTH",
"701 248 OFFCURVE",
"657 238 OFFCURVE",
"613 240 CURVE",
"633 219 OFFCURVE",
"650 192 OFFCURVE",
"646 159 CURVE SMOOTH",
"639 121 OFFCURVE",
"620 85 OFFCURVE",
"603 49 CURVE SMOOTH",
"586 17 OFFCURVE",
"571 -15 OFFCURVE",
"566 -42 CURVE SMOOTH",
"564 -61 OFFCURVE",
"548 -74 OFFCURVE",
"530 -74 CURVE SMOOTH"
);
},
{
closed = 1;
nodes = (
"785 177 OFFCURVE",
"775 181 OFFCURVE",
"767 190 CURVE SMOOTH",
"692 282 LINE SMOOTH",
"685 289 OFFCURVE",
"682 299 OFFCURVE",
"683 309 CURVE SMOOTH",
"684 319 OFFCURVE",
"690 329 OFFCURVE",
"698 335 CURVE SMOOTH",
"741 368 OFFCURVE",
"759 392 OFFCURVE",
"786 427 CURVE SMOOTH",
"789 431 OFFCURVE",
"791 435 OFFCURVE",
"795 439 CURVE",
"793 444 OFFCURVE",
"792 449 OFFCURVE",
"791 454 CURVE SMOOTH",
"790 457 OFFCURVE",
"790 459 OFFCURVE",
"789 462 CURVE SMOOTH",
"782 482 OFFCURVE",
"793 503 OFFCURVE",
"812 510 CURVE SMOOTH",
"832 515 OFFCURVE",
"853 505 OFFCURVE",
"859 485 CURVE SMOOTH",
"861 480 OFFCURVE",
"863 474 OFFCURVE",
"864 469 CURVE SMOOTH",
"864 467 OFFCURVE",
"865 463 OFFCURVE",
"865 461 CURVE",
"869 457 OFFCURVE",
"872 451 OFFCURVE",
"874 446 CURVE",
"877 438 OFFCURVE",
"891 412 OFFCURVE",
"904 391 CURVE SMOOTH",
"905 389 OFFCURVE",
"906 386 OFFCURVE",
"906 384 CURVE SMOOTH",
"912 366 OFFCURVE",
"911 341 OFFCURVE",
"899 324 CURVE",
"829 196 LINE SMOOTH",
"822 185 OFFCURVE",
"811 178 OFFCURVE",
"799 177 CURVE SMOOTH",
"798 177 OFFCURVE",
"797 177 OFFCURVE",
"796 177 CURVE SMOOTH"
);
},
{
closed = 1;
nodes = (
"790 279 LINE",
"835 361 LINE",
"834 362 OFFCURVE",
"833 364 OFFCURVE",
"832 365 CURVE",
"815 343 OFFCURVE",
"798 322 OFFCURVE",
"772 300 CURVE"
);
},
{
closed = 1;
nodes = (
"546 259 OFFCURVE",
"537 263 OFFCURVE",
"529 270 CURVE SMOOTH",
"527 272 OFFCURVE",
"474 325 OFFCURVE",
"421 409 CURVE SMOOTH",
"410 427 OFFCURVE",
"416 450 OFFCURVE",
"433 461 CURVE SMOOTH",
"450 471 OFFCURVE",
"473 467 OFFCURVE",
"484 449 CURVE SMOOTH",
"532 372 OFFCURVE",
"581 322 OFFCURVE",
"582 322 CURVE",
"596 308 OFFCURVE",
"596 284 OFFCURVE",
"582 270 CURVE SMOOTH",
"574 263 OFFCURVE",
"565 259 OFFCURVE",
"555 259 CURVE SMOOTH"
);
},
{
closed = 1;
nodes = (
"468 176 OFFCURVE",
"465 176 OFFCURVE",
"462 177 CURVE SMOOTH",
"451 179 OFFCURVE",
"442 187 OFFCURVE",
"437 198 CURVE SMOOTH",
"372 347 LINE SMOOTH",
"367 357 OFFCURVE",
"367 369 OFFCURVE",
"372 379 CURVE SMOOTH",
"429 491 LINE SMOOTH",
"439 509 OFFCURVE",
"461 516 OFFCURVE",
"478 507 CURVE SMOOTH",
"497 498 OFFCURVE",
"505 476 OFFCURVE",
"495 457 CURVE SMOOTH",
"446 361 LINE",
"485 273 LINE",
"513 296 LINE SMOOTH",
"529 309 OFFCURVE",
"552 307 OFFCURVE",
"565 292 CURVE SMOOTH",
"579 275 OFFCURVE",
"576 252 OFFCURVE",
"560 239 CURVE SMOOTH",
"495 185 LINE SMOOTH",
"488 179 OFFCURVE",
"479 176 OFFCURVE",
"471 176 CURVE SMOOTH"
);
},
{
closed = 1;
nodes = (
"388 935 OFFCURVE",
"376 943 OFFCURVE",
"369 955 CURVE SMOOTH",
"359 972 OFFCURVE",
"366 995 OFFCURVE",
"384 1005 CURVE SMOOTH",
"419 1024 LINE SMOOTH",
"437 1034 OFFCURVE",
"460 1027 OFFCURVE",
"470 1010 CURVE SMOOTH",
"479 991 OFFCURVE",
"473 969 OFFCURVE",
"454 959 CURVE SMOOTH",
"420 940 LINE SMOOTH",
"413 937 OFFCURVE",
"408 935 OFFCURVE",
"401 935 CURVE SMOOTH"
);
}
);
width = 1280;
}
);
note = uniF013;
unicode = F013;
},
{
glyphname = uniF014;
lastChange = "2016-11-27 23:11:38 +0000";
layers = (
{
layerId = "3FC06E6C-760F-451F-9A2A-A44F9A2B57A0";
name = Regular;
paths = (
{
closed = 1;
nodes = (
"193 -76 LINE SMOOTH",
"182 -76 OFFCURVE",
"171 -71 OFFCURVE",
"164 -63 CURVE SMOOTH",
"157 -54 OFFCURVE",
"153 -44 OFFCURVE",
"154 -33 CURVE SMOOTH",
"155 -24 OFFCURVE",
"155 -15 OFFCURVE",
"156 -7 CURVE SMOOTH",
"157 16 OFFCURVE",
"158 39 OFFCURVE",
"165 63 CURVE SMOOTH",
"191 150 OFFCURVE",
"250 181 OFFCURVE",
"307 211 CURVE SMOOTH",
"327 221 OFFCURVE",
"349 232 OFFCURVE",
"370 246 CURVE SMOOTH",
"416 277 OFFCURVE",
"456 307 OFFCURVE",
"475 353 CURVE SMOOTH",
"484 373 OFFCURVE",
"498 382 OFFCURVE",
"509 385 CURVE",
"519 394 OFFCURVE",
"534 398 OFFCURVE",
"547 393 CURVE SMOOTH",
"568 386 OFFCURVE",
"579 367 OFFCURVE",
"573 347 CURVE SMOOTH",
"566 326 OFFCURVE",
"553 315 OFFCURVE",
"542 311 CURVE",
"513 252 OFFCURVE",
"463 215 OFFCURVE",
"413 181 CURVE SMOOTH",
"389 165 OFFCURVE",
"364 152 OFFCURVE",
"343 141 CURVE SMOOTH",
"290 114 OFFCURVE",
"256 97 OFFCURVE",
"240 40 CURVE SMOOTH",
"236 30 OFFCURVE",
"235 17 OFFCURVE",
"234 2 CURVE",
"1039 2 LINE",
"1030 53 OFFCURVE",
"1017 96 OFFCURVE",
"1009 106 CURVE SMOOTH",
"994 127 OFFCURVE",
"978 132 OFFCURVE",
"953 140 CURVE SMOOTH",
"933 146 OFFCURVE",
"909 154 OFFCURVE",
"884 171 CURVE",
"881 170 OFFCURVE",
"875 169 OFFCURVE",
"872 169 CURVE SMOOTH",
"852 165 OFFCURVE",
"836 163 OFFCURVE",
"820 161 CURVE SMOOTH",
"757 152 OFFCURVE",
"711 145 OFFCURVE",
"668 106 CURVE SMOOTH",
"653 92 OFFCURVE",
"627 93 OFFCURVE",
"613 109 CURVE SMOOTH",
"599 125 OFFCURVE",
"600 150 OFFCURVE",
"616 164 CURVE SMOOTH",
"677 219 OFFCURVE",
"741 228 OFFCURVE",
"809 238 CURVE SMOOTH",
"824 240 OFFCURVE",
"840 243 OFFCURVE",
"856 245 CURVE SMOOTH",
"877 249 OFFCURVE",
"904 254 OFFCURVE",
"925 237 CURVE SMOOTH",
"941 225 OFFCURVE",
"957 220 OFFCURVE",
"976 215 CURVE SMOOTH",
"1005 205 OFFCURVE",
"1042 193 OFFCURVE",
"1072 153 CURVE SMOOTH",
"1099 116 OFFCURVE",
"1118 13 OFFCURVE",
"1125 -30 CURVE SMOOTH",
"1127 -42 OFFCURVE",
"1124 -53 OFFCURVE",
"1116 -62 CURVE SMOOTH",
"1109 -71 OFFCURVE",
"1098 -76 OFFCURVE",
"1087 -76 CURVE SMOOTH"
);
},
{
closed = 1;
nodes = (
"585 297 OFFCURVE",
"542 308 OFFCURVE",
"511 331 CURVE SMOOTH",
"438 389 OFFCURVE",
"394 453 OFFCURVE",
"375 529 CURVE SMOOTH",
"370 551 OFFCURVE",
"383 571 OFFCURVE",
"404 577 CURVE SMOOTH",
"425 582 OFFCURVE",
"446 569 OFFCURVE",
"451 548 CURVE SMOOTH",
"466 489 OFFCURVE",
"501 440 OFFCURVE",
"560 394 CURVE SMOOTH",
"597 365 OFFCURVE",
"688 370 OFFCURVE",
"732 406 CURVE SMOOTH",
"781 444 OFFCURVE",
"816 494 OFFCURVE",
"846 570 CURVE SMOOTH",
"851 583 OFFCURVE",
"859 591 OFFCURVE",
"866 596 CURVE SMOOTH",
"869 600 LINE",
"882 617 OFFCURVE",
"908 619 OFFCURVE",
"924 605 CURVE SMOOTH",
"941 592 OFFCURVE",
"943 567 OFFCURVE",
"929 551 CURVE SMOOTH",
"926 548 OFFCURVE",
"924 545 OFFCURVE",
"921 542 CURVE SMOOTH",
"919 541 OFFCURVE",
"919 540 OFFCURVE",
"918 538 CURVE",
"883 452 OFFCURVE",
"840 390 OFFCURVE",
"780 344 CURVE SMOOTH",
"743 315 OFFCURVE",
"685 297 OFFCURVE",
"628 297 CURVE SMOOTH"
);
},
{
closed = 1;
nodes = (
"896 537 OFFCURVE",
"893 537 OFFCURVE",
"891 538 CURVE SMOOTH",
"870 542 OFFCURVE",
"856 562 OFFCURVE",
"861 583 CURVE SMOOTH",
"864 597 OFFCURVE",
"878 635 OFFCURVE",
"907 712 CURVE SMOOTH",
"919 747 OFFCURVE",
"936 791 OFFCURVE",
"938 799 CURVE SMOOTH",
"954 857 OFFCURVE",
"957 899 OFFCURVE",
"951 940 CURVE SMOOTH",
"937 1027 OFFCURVE",
"886 1077 OFFCURVE",
"794 1098 CURVE SMOOTH",
"676 1124 OFFCURVE",
"558 1117 OFFCURVE",
"445 1074 CURVE SMOOTH",
"374 1046 OFFCURVE",
"332 986 OFFCURVE",
"329 904 CURVE SMOOTH",
"327 848 OFFCURVE",
"343 794 OFFCURVE",
"359 738 CURVE SMOOTH",
"368 708 OFFCURVE",
"385 681 OFFCURVE",
"400 656 CURVE SMOOTH",
"407 644 OFFCURVE",
"415 632 OFFCURVE",
"421 621 CURVE SMOOTH",
"431 602 OFFCURVE",
"424 578 OFFCURVE",
"405 568 CURVE SMOOTH",
"386 557 OFFCURVE",
"362 564 OFFCURVE",
"353 584 CURVE SMOOTH",
"347 594 OFFCURVE",
"340 604 OFFCURVE",
"333 615 CURVE SMOOTH",
"316 643 OFFCURVE",
"296 675 OFFCURVE",
"286 712 CURVE SMOOTH",
"267 776 OFFCURVE",
"249 838 OFFCURVE",
"251 907 CURVE SMOOTH",
"255 1020 OFFCURVE",
"316 1108 OFFCURVE",
"418 1146 CURVE SMOOTH",
"545 1195 OFFCURVE",
"678 1204 OFFCURVE",
"810 1174 CURVE SMOOTH",
"934 1147 OFFCURVE",
"1009 1070 OFFCURVE",
"1028 952 CURVE SMOOTH",
"1038 887 OFFCURVE",
"1026 825 OFFCURVE",
"1014 780 CURVE SMOOTH",
"1011 768 OFFCURVE",
"999 738 OFFCURVE",
"980 684 CURVE SMOOTH",
"963 642 OFFCURVE",
"940 579 OFFCURVE",
"937 567 CURVE SMOOTH",
"933 550 OFFCURVE",
"917 537 OFFCURVE",
"899 537 CURVE SMOOTH"
);
},
{
closed = 1;
nodes = (
"392 563 OFFCURVE",
"387 564 OFFCURVE",
"381 567 CURVE SMOOTH",
"361 577 OFFCURVE",
"354 600 OFFCURVE",
"363 620 CURVE SMOOTH",
"365 624 OFFCURVE",
"367 627 OFFCURVE",
"369 631 CURVE SMOOTH",
"371 632 OFFCURVE",
"372 635 OFFCURVE",
"373 637 CURVE",
"384 698 OFFCURVE",
"420 746 OFFCURVE",
"477 777 CURVE SMOOTH",
"505 791 OFFCURVE",
"535 804 OFFCURVE",
"564 817 CURVE SMOOTH",
"578 822 OFFCURVE",
"592 828 OFFCURVE",
"606 835 CURVE SMOOTH",
"629 845 LINE SMOOTH",
"673 864 OFFCURVE",
"714 883 OFFCURVE",
"741 917 CURVE SMOOTH",
"755 934 OFFCURVE",
"779 936 OFFCURVE",
"797 924 CURVE SMOOTH",
"813 910 OFFCURVE",
"816 886 OFFCURVE",
"803 868 CURVE SMOOTH",
"764 819 OFFCURVE",
"709 795 OFFCURVE",
"660 774 CURVE SMOOTH",
"638 764 LINE SMOOTH",
"623 757 OFFCURVE",
"609 751 OFFCURVE",
"595 745 CURVE SMOOTH",
"567 733 OFFCURVE",
"540 721 OFFCURVE",
"513 708 CURVE SMOOTH",
"477 689 OFFCURVE",
"457 661 OFFCURVE",
"450 623 CURVE SMOOTH",
"447 609 OFFCURVE",
"441 598 OFFCURVE",
"436 591 CURVE SMOOTH",
"433 585 LINE",
"427 571 OFFCURVE",
"413 563 OFFCURVE",
"398 563 CURVE SMOOTH"
);
},
{
closed = 1;
nodes = (
"898 603 OFFCURVE",
"884 611 OFFCURVE",
"878 625 CURVE",
"874 632 LINE SMOOTH",
"870 638 OFFCURVE",
"864 648 OFFCURVE",
"861 661 CURVE SMOOTH",
"856 682 OFFCURVE",
"845 712 OFFCURVE",
"820 729 CURVE SMOOTH",
"783 753 OFFCURVE",
"768 787 OFFCURVE",
"755 817 CURVE SMOOTH",
"748 831 OFFCURVE",
"745 843 OFFCURVE",
"741 854 CURVE SMOOTH",
"737 866 LINE SMOOTH",
"730 887 OFFCURVE",
"740 909 OFFCURVE",
"761 916 CURVE SMOOTH",
"781 924 OFFCURVE",
"804 913 OFFCURVE",
"810 893 CURVE SMOOTH",
"815 878 LINE SMOOTH",
"818 869 OFFCURVE",
"821 860 OFFCURVE",
"825 852 CURVE SMOOTH",
"839 821 OFFCURVE",
"846 806 OFFCURVE",
"863 794 CURVE SMOOTH",
"900 769 OFFCURVE",
"926 729 OFFCURVE",
"938 677 CURVE",
"938 675 OFFCURVE",
"940 672 OFFCURVE",
"942 670 CURVE SMOOTH",
"944 667 OFFCURVE",
"946 664 OFFCURVE",
"948 660 CURVE SMOOTH",
"956 640 OFFCURVE",
"949 617 OFFCURVE",
"930 607 CURVE SMOOTH",
"924 604 OFFCURVE",
"919 603 OFFCURVE",
"913 603 CURVE SMOOTH"
);
},
{
closed = 1;
nodes = (
"618 53 OFFCURVE",
"605 58 OFFCURVE",
"597 66 CURVE SMOOTH",
"549 113 OFFCURVE",
"491 147 OFFCURVE",
"425 166 CURVE SMOOTH",
"414 169 OFFCURVE",
"404 175 OFFCURVE",
"397 179 CURVE SMOOTH",
"391 182 LINE SMOOTH",
"371 191 OFFCURVE",
"363 215 OFFCURVE",
"373 234 CURVE SMOOTH",
"383 254 OFFCURVE",
"406 261 OFFCURVE",
"426 252 CURVE SMOOTH",
"429 251 OFFCURVE",
"432 249 OFFCURVE",
"436 247 CURVE SMOOTH",
"439 245 OFFCURVE",
"444 242 OFFCURVE",
"445 242 CURVE SMOOTH",
"511 223 OFFCURVE",
"571 192 OFFCURVE",
"621 149 CURVE",
"626 151 OFFCURVE",
"631 152 OFFCURVE",
"637 153 CURVE SMOOTH",
"654 154 OFFCURVE",
"670 143 OFFCURVE",
"677 130 CURVE SMOOTH",
"685 113 OFFCURVE",
"681 95 OFFCURVE",
"668 83 CURVE",
"663 71 OFFCURVE",
"655 58 OFFCURVE",
"636 54 CURVE SMOOTH",
"634 53 OFFCURVE",
"631 53 OFFCURVE",
"628 53 CURVE SMOOTH"
);
},
{
closed = 1;
nodes = (
"866 178 OFFCURVE",
"856 181 OFFCURVE",
"848 189 CURVE SMOOTH",
"844 193 OFFCURVE",
"841 197 OFFCURVE",
"838 200 CURVE SMOOTH",
"832 206 OFFCURVE",
"827 212 OFFCURVE",
"823 215 CURVE SMOOTH",
"810 223 OFFCURVE",
"800 228 OFFCURVE",
"790 233 CURVE SMOOTH",
"765 246 OFFCURVE",
"736 259 OFFCURVE",
"719 309 CURVE SMOOTH",
"705 345 LINE SMOOTH",
"698 366 OFFCURVE",
"708 388 OFFCURVE",
"729 395 CURVE SMOOTH",
"749 403 OFFCURVE",
"771 392 OFFCURVE",
"779 371 CURVE SMOOTH",
"792 334 LINE SMOOTH",
"799 316 OFFCURVE",
"803 314 OFFCURVE",
"823 304 CURVE SMOOTH",
"836 298 OFFCURVE",
"850 291 OFFCURVE",
"868 279 CURVE SMOOTH",
"880 271 OFFCURVE",
"887 261 OFFCURVE",
"895 254 CURVE SMOOTH",
"898 251 OFFCURVE",
"901 248 OFFCURVE",
"903 245 CURVE SMOOTH",
"919 229 OFFCURVE",
"919 205 OFFCURVE",
"903 189 CURVE SMOOTH",
"896 181 OFFCURVE",
"885 178 OFFCURVE",
"876 178 CURVE SMOOTH"
);
}
);
width = 1280;
}
);
note = uniF014;
unicode = F014;
},
{
glyphname = uniF015;
lastChange = "2016-11-27 23:12:33 +0000";
layers = (
{
layerId = "3FC06E6C-760F-451F-9A2A-A44F9A2B57A0";
name = Regular;
paths = (
{
closed = 1;
nodes = (
"579 140 OFFCURVE",
"528 158 OFFCURVE",
"485 193 CURVE SMOOTH",
"458 216 OFFCURVE",
"439 242 OFFCURVE",
"420 268 CURVE SMOOTH",
"413 278 OFFCURVE",
"406 287 OFFCURVE",
"398 297 CURVE SMOOTH",
"386 312 OFFCURVE",
"389 333 OFFCURVE",
"403 345 CURVE SMOOTH",
"418 357 OFFCURVE",
"441 355 OFFCURVE",
"453 340 CURVE SMOOTH",
"461 329 OFFCURVE",
"469 319 OFFCURVE",
"477 308 CURVE SMOOTH",
"493 285 OFFCURVE",
"508 264 OFFCURVE",
"529 247 CURVE SMOOTH",
"596 192 OFFCURVE",
"678 197 OFFCURVE",
"741 258 CURVE SMOOTH",
"760 277 OFFCURVE",
"776 301 OFFCURVE",
"792 326 CURVE SMOOTH",
"798 336 LINE",
"780 364 OFFCURVE",
"777 395 OFFCURVE",
"774 422 CURVE SMOOTH",
"774 428 OFFCURVE",
"773 435 OFFCURVE",
"772 441 CURVE SMOOTH",
"769 461 OFFCURVE",
"780 478 OFFCURVE",
"787 489 CURVE SMOOTH",
"789 493 LINE SMOOTH",
"811 530 OFFCURVE",
"831 563 OFFCURVE",
"852 595 CURVE SMOOTH",
"863 610 OFFCURVE",
"876 621 OFFCURVE",
"887 630 CURVE SMOOTH",
"896 638 OFFCURVE",
"904 644 OFFCURVE",
"912 650 CURVE SMOOTH",
"924 659 OFFCURVE",
"935 667 OFFCURVE",
"942 675 CURVE SMOOTH",
"947 683 OFFCURVE",
"949 690 OFFCURVE",
"947 696 CURVE SMOOTH",
"943 706 OFFCURVE",
"932 714 OFFCURVE",
"918 717 CURVE SMOOTH",
"903 720 OFFCURVE",
"892 732 OFFCURVE",
"891 747 CURVE SMOOTH",
"890 759 OFFCURVE",
"889 771 OFFCURVE",
"889 783 CURVE SMOOTH",
"887 810 OFFCURVE",
"886 834 OFFCURVE",
"882 857 CURVE SMOOTH",
"865 963 OFFCURVE",
"792 1028 OFFCURVE",
"682 1038 CURVE SMOOTH",
"663 1040 OFFCURVE",
"649 1056 OFFCURVE",
"651 1075 CURVE SMOOTH",
"653 1095 OFFCURVE",
"670 1109 OFFCURVE",
"688 1108 CURVE SMOOTH",
"829 1095 OFFCURVE",
"927 1005 OFFCURVE",
"950 868 CURVE SMOOTH",
"954 841 OFFCURVE",
"956 814 OFFCURVE",
"957 787 CURVE SMOOTH",
"958 783 OFFCURVE",
"958 779 OFFCURVE",
"958 775 CURVE",
"983 764 OFFCURVE",
"1004 744 OFFCURVE",
"1012 719 CURVE SMOOTH",
"1023 690 OFFCURVE",
"1017 658 OFFCURVE",
"995 632 CURVE SMOOTH",
"983 616 OFFCURVE",
"966 604 OFFCURVE",
"952 594 CURVE SMOOTH",
"946 589 OFFCURVE",
"939 584 OFFCURVE",
"933 579 CURVE SMOOTH",
"923 571 OFFCURVE",
"915 564 OFFCURVE",
"910 557 CURVE SMOOTH",
"890 526 OFFCURVE",
"870 493 OFFCURVE",
"850 461 CURVE SMOOTH",
"845 452 LINE SMOOTH",
"844 450 OFFCURVE",
"842 448 OFFCURVE",
"841 446 CURVE",
"841 440 OFFCURVE",
"842 435 OFFCURVE",
"843 429 CURVE SMOOTH",
"845 406 OFFCURVE",
"847 387 OFFCURVE",
"859 371 CURVE SMOOTH",
"869 356 OFFCURVE",
"876 327 OFFCURVE",
"862 306 CURVE SMOOTH",
"850 289 LINE SMOOTH",
"832 261 OFFCURVE",
"813 234 OFFCURVE",
"789 209 CURVE SMOOTH",
"743 163 OFFCURVE",
"686 140 OFFCURVE",
"629 140 CURVE SMOOTH"
);
},
{
closed = 1;
nodes = (
"359 -64 OFFCURVE",
"349 -60 OFFCURVE",
"342 -51 CURVE SMOOTH",
"337 -44 OFFCURVE",
"331 -37 OFFCURVE",
"325 -30 CURVE SMOOTH",
"311 -14 OFFCURVE",
"297 3 OFFCURVE",
"285 23 CURVE SMOOTH",
"266 51 OFFCURVE",
"249 82 OFFCURVE",
"232 113 CURVE SMOOTH",
"210 153 LINE SMOOTH",
"202 168 OFFCURVE",
"205 185 OFFCURVE",
"218 196 CURVE SMOOTH",
"231 207 OFFCURVE",
"243 220 OFFCURVE",
"255 231 CURVE SMOOTH",
"285 258 OFFCURVE",
"314 286 OFFCURVE",
"348 308 CURVE SMOOTH",
"396 339 OFFCURVE",
"420 380 OFFCURVE",
"428 438 CURVE SMOOTH",
"429 447 OFFCURVE",
"429 447 OFFCURVE",
"425 452 CURVE SMOOTH",
"404 479 OFFCURVE",
"385 510 OFFCURVE",
"366 541 CURVE SMOOTH",
"354 563 OFFCURVE",
"346 574 OFFCURVE",
"332 581 CURVE SMOOTH",
"309 591 OFFCURVE",
"293 610 OFFCURVE",
"277 628 CURVE SMOOTH",
"254 658 OFFCURVE",
"246 691 OFFCURVE",
"257 722 CURVE SMOOTH",
"265 745 OFFCURVE",
"283 764 OFFCURVE",
"308 775 CURVE",
"308 782 LINE SMOOTH",
"310 804 OFFCURVE",
"312 825 OFFCURVE",
"315 847 CURVE SMOOTH",
"333 989 OFFCURVE",
"412 1075 OFFCURVE",
"550 1104 CURVE",
"551 1117 OFFCURVE",
"552 1130 OFFCURVE",
"553 1142 CURVE SMOOTH",
"555 1195 OFFCURVE",
"585 1227 OFFCURVE",
"636 1225 CURVE SMOOTH",
"681 1225 OFFCURVE",
"714 1190 OFFCURVE",
"715 1141 CURVE SMOOTH",
"715 1086 OFFCURVE",
"715 1030 OFFCURVE",
"715 975 CURVE SMOOTH",
"715 951 OFFCURVE",
"705 928 OFFCURVE",
"689 912 CURVE SMOOTH",
"674 898 OFFCURVE",
"654 890 OFFCURVE",
"632 890 CURVE SMOOTH",
"587 891 OFFCURVE",
"554 925 OFFCURVE",
"553 975 CURVE SMOOTH",
"553 994 OFFCURVE",
"553 1014 OFFCURVE",
"553 1033 CURVE",
"451 1008 OFFCURVE",
"397 946 OFFCURVE",
"383 838 CURVE SMOOTH",
"380 818 OFFCURVE",
"378 797 OFFCURVE",
"377 776 CURVE SMOOTH",
"374 747 LINE SMOOTH",
"373 732 OFFCURVE",
"362 720 OFFCURVE",
"348 717 CURVE SMOOTH",
"335 714 OFFCURVE",
"325 708 OFFCURVE",
"323 700 CURVE SMOOTH",
"320 692 OFFCURVE",
"323 682 OFFCURVE",
"331 672 CURVE SMOOTH",
"339 664 OFFCURVE",
"351 648 OFFCURVE",
"360 643 CURVE SMOOTH",
"395 627 OFFCURVE",
"411 600 OFFCURVE",
"426 576 CURVE SMOOTH",
"444 547 OFFCURVE",
"462 519 OFFCURVE",
"480 493 CURVE SMOOTH",
"495 474 OFFCURVE",
"499 455 OFFCURVE",
"496 430 CURVE SMOOTH",
"487 351 OFFCURVE",
"451 292 OFFCURVE",
"386 250 CURVE SMOOTH",
"357 231 OFFCURVE",
"331 206 OFFCURVE",
"303 180 CURVE SMOOTH",
"297 174 OFFCURVE",
"291 169 OFFCURVE",
"285 163 CURVE",
"288 157 OFFCURVE",
"291 152 OFFCURVE",
"294 146 CURVE SMOOTH",
"310 116 OFFCURVE",
"326 88 OFFCURVE",
"343 59 CURVE SMOOTH",
"353 44 OFFCURVE",
"365 29 OFFCURVE",
"378 14 CURVE SMOOTH",
"384 6 OFFCURVE",
"390 -1 OFFCURVE",
"396 -9 CURVE SMOOTH",
"408 -24 OFFCURVE",
"405 -45 OFFCURVE",
"390 -57 CURVE SMOOTH",
"384 -62 OFFCURVE",
"377 -64 OFFCURVE",
"369 -64 CURVE SMOOTH"
);
},
{
closed = 1;
nodes = (
"623 1063 OFFCURVE",
"623 1051 OFFCURVE",
"623 1046 CURVE SMOOTH",
"623 1022 OFFCURVE",
"623 999 OFFCURVE",
"623 976 CURVE SMOOTH",
"623 960 OFFCURVE",
"627 960 OFFCURVE",
"633 960 CURVE",
"638 960 OFFCURVE",
"640 962 OFFCURVE",
"641 962 CURVE",
"643 965 OFFCURVE",
"645 970 OFFCURVE",
"645 976 CURVE SMOOTH",
"645 1030 OFFCURVE",
"645 1086 OFFCURVE",
"645 1141 CURVE SMOOTH",
"645 1159 OFFCURVE",
"638 1156 OFFCURVE",
"633 1156 CURVE SMOOTH",
"626 1156 OFFCURVE",
"623 1155 OFFCURVE",
"623 1140 CURVE SMOOTH",
"622 1123 OFFCURVE",
"620 1106 OFFCURVE",
"619 1089 CURVE"
);
},
{
closed = 1;
nodes = (
"527 -74 OFFCURVE",
"501 -74 OFFCURVE",
"475 -74 CURVE SMOOTH",
"163 -74 LINE SMOOTH",
"145 -74 OFFCURVE",
"129 -59 OFFCURVE",
"128 -40 CURVE SMOOTH",
"123 48 OFFCURVE",
"155 124 OFFCURVE",
"218 184 CURVE SMOOTH",
"232 197 OFFCURVE",
"254 196 OFFCURVE",
"267 183 CURVE SMOOTH",
"281 169 OFFCURVE",
"280 147 OFFCURVE",
"265 134 CURVE SMOOTH",
"224 95 OFFCURVE",
"202 49 OFFCURVE",
"198 -4 CURVE",
"475 -4 LINE SMOOTH",
"606 -4 OFFCURVE",
"738 -4 OFFCURVE",
"869 -4 CURVE SMOOTH",
"871 -4 OFFCURVE",
"874 -4 OFFCURVE",
"877 -4 CURVE",
"896 18 OFFCURVE",
"916 44 OFFCURVE",
"934 72 CURVE SMOOTH",
"948 94 OFFCURVE",
"959 116 OFFCURVE",
"972 140 CURVE SMOOTH",
"978 151 OFFCURVE",
"983 162 OFFCURVE",
"989 172 CURVE SMOOTH",
"998 189 OFFCURVE",
"1020 195 OFFCURVE",
"1037 186 CURVE SMOOTH",
"1053 177 OFFCURVE",
"1059 156 OFFCURVE",
"1050 140 CURVE SMOOTH",
"1045 129 OFFCURVE",
"1039 119 OFFCURVE",
"1034 108 CURVE SMOOTH",
"1021 84 OFFCURVE",
"1008 58 OFFCURVE",
"992 34 CURVE SMOOTH",
"971 1 OFFCURVE",
"946 -29 OFFCURVE",
"924 -55 CURVE SMOOTH",
"909 -74 OFFCURVE",
"884 -74 OFFCURVE",
"870 -74 CURVE SMOOTH",
"764 -74 OFFCURVE",
"658 -74 OFFCURVE",
"553 -74 CURVE SMOOTH"
);
},
{
closed = 1;
nodes = (
"623 349 OFFCURVE",
"613 350 OFFCURVE",
"602 351 CURVE SMOOTH",
"542 358 OFFCURVE",
"499 388 OFFCURVE",
"456 416 CURVE SMOOTH",
"451 420 LINE SMOOTH",
"435 431 OFFCURVE",
"431 452 OFFCURVE",
"441 468 CURVE SMOOTH",
"452 484 OFFCURVE",
"473 488 OFFCURVE",
"489 477 CURVE SMOOTH",
"495 474 LINE SMOOTH",
"532 449 OFFCURVE",
"568 425 OFFCURVE",
"610 420 CURVE SMOOTH",
"661 415 OFFCURVE",
"706 427 OFFCURVE",
"752 459 CURVE SMOOTH",
"759 464 OFFCURVE",
"767 469 OFFCURVE",
"775 473 CURVE SMOOTH",
"783 478 LINE SMOOTH",
"799 488 OFFCURVE",
"821 483 OFFCURVE",
"830 466 CURVE SMOOTH",
"840 450 OFFCURVE",
"835 429 OFFCURVE",
"818 419 CURVE SMOOTH",
"809 414 LINE SMOOTH",
"803 410 OFFCURVE",
"797 407 OFFCURVE",
"792 403 CURVE SMOOTH",
"742 368 OFFCURVE",
"690 349 OFFCURVE",
"634 349 CURVE SMOOTH"
);
},
{
closed = 1;
nodes = (
"1101 -64 OFFCURVE",
"1087 -53 OFFCURVE",
"1083 -37 CURVE SMOOTH",
"1067 36 OFFCURVE",
"1031 113 OFFCURVE",
"1005 130 CURVE SMOOTH",
"999 133 OFFCURVE",
"995 137 OFFCURVE",
"992 143 CURVE SMOOTH",
"969 184 OFFCURVE",
"932 212 OFFCURVE",
"892 243 CURVE SMOOTH",
"866 262 OFFCURVE",
"838 282 OFFCURVE",
"814 306 CURVE SMOOTH",
"801 320 OFFCURVE",
"801 342 OFFCURVE",
"815 355 CURVE SMOOTH",
"829 369 OFFCURVE",
"850 369 OFFCURVE",
"865 354 CURVE SMOOTH",
"885 334 OFFCURVE",
"908 316 OFFCURVE",
"933 298 CURVE SMOOTH",
"975 266 OFFCURVE",
"1019 234 OFFCURVE",
"1049 183 CURVE",
"1103 141 OFFCURVE",
"1139 31 OFFCURVE",
"1151 -23 CURVE SMOOTH",
"1155 -41 OFFCURVE",
"1143 -60 OFFCURVE",
"1124 -64 CURVE SMOOTH",
"1122 -64 OFFCURVE",
"1119 -64 OFFCURVE",
"1117 -64 CURVE SMOOTH"
);
},
{
closed = 1;
nodes = (
"912 -68 OFFCURVE",
"905 -67 OFFCURVE",
"900 -67 CURVE SMOOTH",
"881 -66 OFFCURVE",
"866 -50 OFFCURVE",
"867 -31 CURVE SMOOTH",
"868 -12 OFFCURVE",
"884 3 OFFCURVE",
"904 1 CURVE SMOOTH",
"921 0 OFFCURVE",
"979 2 OFFCURVE",
"1026 3 CURVE SMOOTH",
"1100 5 OFFCURVE",
"1114 5 OFFCURVE",
"1122 4 CURVE SMOOTH",
"1141 1 OFFCURVE",
"1155 -16 OFFCURVE",
"1152 -35 CURVE SMOOTH",
"1149 -54 OFFCURVE",
"1130 -67 OFFCURVE",
"1112 -64 CURVE",
"1105 -63 OFFCURVE",
"1062 -65 OFFCURVE",
"1028 -66 CURVE SMOOTH",
"988 -67 OFFCURVE",
"948 -68 OFFCURVE",
"922 -68 CURVE SMOOTH"
);
}
);
width = 1280;
}
);
note = uniF015;
unicode = F015;
},
{
glyphname = uniF016;
lastChange = "2016-11-27 23:14:06 +0000";
layers = (
{
layerId = "3FC06E6C-760F-451F-9A2A-A44F9A2B57A0";
name = Regular;
paths = (
{
closed = 1;
nodes = (
"232 -77 LINE SMOOTH",
"214 -77 OFFCURVE",
"198 -63 OFFCURVE",
"195 -45 CURVE SMOOTH",
"184 39 OFFCURVE",
"215 68 OFFCURVE",
"256 107 CURVE SMOOTH",
"271 120 LINE SMOOTH",
"318 167 OFFCURVE",
"372 211 OFFCURVE",
"429 250 CURVE SMOOTH",
"447 263 LINE SMOOTH",
"481 286 OFFCURVE",
"493 294 OFFCURVE",
"502 317 CURVE",
"435 373 OFFCURVE",
"402 445 OFFCURVE",
"381 496 CURVE SMOOTH",
"378 501 OFFCURVE",
"376 505 OFFCURVE",
"375 508 CURVE",
"338 517 OFFCURVE",
"322 547 OFFCURVE",
"312 565 CURVE SMOOTH",
"311 568 OFFCURVE",
"309 572 OFFCURVE",
"307 575 CURVE SMOOTH",
"279 622 OFFCURVE",
"293 675 OFFCURVE",
"342 709 CURVE SMOOTH",
"358 721 OFFCURVE",
"380 717 OFFCURVE",
"391 700 CURVE SMOOTH",
"404 684 OFFCURVE",
"400 662 OFFCURVE",
"383 650 CURVE SMOOTH",
"357 632 OFFCURVE",
"365 620 OFFCURVE",
"369 612 CURVE SMOOTH",
"372 608 OFFCURVE",
"374 604 OFFCURVE",
"376 599 CURVE SMOOTH",
"386 580 OFFCURVE",
"388 578 OFFCURVE",
"394 578 CURVE SMOOTH",
"417 575 OFFCURVE",
"434 557 OFFCURVE",
"448 524 CURVE SMOOTH",
"479 446 OFFCURVE",
"514 396 OFFCURVE",
"564 360 CURVE SMOOTH",
"576 352 OFFCURVE",
"581 337 OFFCURVE",
"578 322 CURVE SMOOTH",
"561 253 OFFCURVE",
"534 234 OFFCURVE",
"488 204 CURVE SMOOTH",
"472 191 LINE",
"482 177 OFFCURVE",
"492 161 OFFCURVE",
"502 145 CURVE SMOOTH",
"510 132 OFFCURVE",
"517 119 OFFCURVE",
"525 108 CURVE",
"551 131 OFFCURVE",
"575 134 OFFCURVE",
"598 117 CURVE SMOOTH",
"637 87 OFFCURVE",
"645 90 OFFCURVE",
"679 112 CURVE SMOOTH",
"703 128 OFFCURVE",
"730 117 OFFCURVE",
"746 110 CURVE",
"746 110 OFFCURVE",
"746 110 OFFCURVE",
"746 110 CURVE",
"752 118 OFFCURVE",
"757 127 OFFCURVE",
"762 137 CURVE SMOOTH",
"777 164 OFFCURVE",
"796 195 OFFCURVE",
"833 215 CURVE SMOOTH",
"845 221 OFFCURVE",
"877 237 OFFCURVE",
"908 208 CURVE SMOOTH",
"922 197 OFFCURVE",
"935 185 OFFCURVE",
"948 174 CURVE SMOOTH",
"976 150 OFFCURVE",
"1005 125 OFFCURVE",
"1030 96 CURVE SMOOTH",
"1044 81 LINE SMOOTH",
"1078 45 OFFCURVE",
"1096 21 OFFCURVE",
"1083 -47 CURVE SMOOTH",
"1080 -64 OFFCURVE",
"1065 -77 OFFCURVE",
"1048 -77 CURVE SMOOTH"
);
},
{
closed = 1;
nodes = (
"1016 -5 LINE",
"1014 8 OFFCURVE",
"1008 15 OFFCURVE",
"992 32 CURVE SMOOTH",
"976 48 LINE SMOOTH",
"954 74 OFFCURVE",
"929 95 OFFCURVE",
"901 118 CURVE SMOOTH",
"889 130 OFFCURVE",
"877 140 OFFCURVE",
"866 150 CURVE",
"847 140 OFFCURVE",
"837 122 OFFCURVE",
"825 101 CURVE SMOOTH",
"817 85 OFFCURVE",
"807 68 OFFCURVE",
"792 51 CURVE SMOOTH",
"766 23 OFFCURVE",
"732 38 OFFCURVE",
"717 44 CURVE SMOOTH",
"715 45 OFFCURVE",
"712 46 OFFCURVE",
"710 47 CURVE",
"664 18 OFFCURVE",
"625 11 OFFCURVE",
"568 49 CURVE",
"529 12 OFFCURVE",
"501 28 OFFCURVE",
"488 41 CURVE SMOOTH",
"471 58 OFFCURVE",
"455 83 OFFCURVE",
"441 107 CURVE SMOOTH",
"431 121 OFFCURVE",
"422 138 OFFCURVE",
"413 149 CURVE",
"380 123 OFFCURVE",
"350 96 OFFCURVE",
"320 68 CURVE SMOOTH",
"306 54 LINE SMOOTH",
"279 28 OFFCURVE",
"267 18 OFFCURVE",
"265 -5 CURVE"
);
},
{
closed = 1;
nodes = (
"386 620 OFFCURVE",
"382 621 OFFCURVE",
"377 623 CURVE SMOOTH",
"359 631 OFFCURVE",
"351 653 OFFCURVE",
"359 670 CURVE SMOOTH",
"417 803 OFFCURVE",
"511 805 OFFCURVE",
"642 807 CURVE",
"716 801 OFFCURVE",
"737 861 OFFCURVE",
"738 872 CURVE SMOOTH",
"740 892 OFFCURVE",
"757 906 OFFCURVE",
"777 905 CURVE SMOOTH",
"797 903 OFFCURVE",
"812 886 OFFCURVE",
"810 867 CURVE SMOOTH",
"806 816 OFFCURVE",
"752 726 OFFCURVE",
"640 734 CURVE",
"507 732 OFFCURVE",
"463 728 OFFCURVE",
"425 641 CURVE SMOOTH",
"419 628 OFFCURVE",
"406 620 OFFCURVE",
"391 620 CURVE SMOOTH"
);
},
{
closed = 1;
nodes = (
"441 472 OFFCURVE",
"398 497 OFFCURVE",
"367 545 CURVE SMOOTH",
"344 581 OFFCURVE",
"341 624 OFFCURVE",
"359 660 CURVE SMOOTH",
"378 696 OFFCURVE",
"416 719 OFFCURVE",
"460 721 CURVE SMOOTH",
"482 722 OFFCURVE",
"503 722 OFFCURVE",
"524 721 CURVE SMOOTH",
"587 718 OFFCURVE",
"619 691 OFFCURVE",
"634 629 CURVE SMOOTH",
"635 625 OFFCURVE",
"635 622 OFFCURVE",
"635 618 CURVE",
"635 616 OFFCURVE",
"635 613 OFFCURVE",
"634 610 CURVE SMOOTH",
"633 604 LINE SMOOTH",
"632 597 OFFCURVE",
"631 589 OFFCURVE",
"629 581 CURVE SMOOTH",
"609 517 OFFCURVE",
"565 479 OFFCURVE",
"506 473 CURVE SMOOTH",
"500 472 OFFCURVE",
"495 472 OFFCURVE",
"490 472 CURVE SMOOTH"
);
},
{
closed = 1;
nodes = (
"483 650 OFFCURVE",
"474 648 OFFCURVE",
"464 648 CURVE SMOOTH",
"445 647 OFFCURVE",
"430 639 OFFCURVE",
"424 626 CURVE SMOOTH",
"417 614 OFFCURVE",
"419 598 OFFCURVE",
"428 583 CURVE SMOOTH",
"446 554 OFFCURVE",
"470 541 OFFCURVE",
"498 544 CURVE SMOOTH",
"509 546 OFFCURVE",
"544 549 OFFCURVE",
"560 603 CURVE SMOOTH",
"561 606 OFFCURVE",
"562 610 OFFCURVE",
"562 613 CURVE SMOOTH",
"562 617 LINE",
"556 643 OFFCURVE",
"550 646 OFFCURVE",
"520 648 CURVE SMOOTH",
"511 648 OFFCURVE",
"502 650 OFFCURVE",
"493 650 CURVE SMOOTH"
);
},
{
closed = 1;
nodes = (
"361 591 OFFCURVE",
"347 603 OFFCURVE",
"343 619 CURVE SMOOTH",
"322 705 OFFCURVE",
"321 794 OFFCURVE",
"338 880 CURVE SMOOTH",
"354 969 OFFCURVE",
"404 1034 OFFCURVE",
"481 1067 CURVE SMOOTH",
"490 1071 LINE SMOOTH",
"496 1073 OFFCURVE",
"504 1077 OFFCURVE",
"506 1079 CURVE",
"506 1083 OFFCURVE",
"516 1170 OFFCURVE",
"549 1188 CURVE SMOOTH",
"570 1199 OFFCURVE",
"593 1210 OFFCURVE",
"618 1213 CURVE SMOOTH",
"637 1216 OFFCURVE",
"699 1223 OFFCURVE",
"741 1186 CURVE SMOOTH",
"767 1161 OFFCURVE",
"779 1125 OFFCURVE",
"777 1076 CURVE",
"777 1074 OFFCURVE",
"778 1072 OFFCURVE",
"779 1069 CURVE SMOOTH",
"779 1065 OFFCURVE",
"780 1062 OFFCURVE",
"780 1058 CURVE SMOOTH",
"782 1049 OFFCURVE",
"779 1038 OFFCURVE",
"773 1031 CURVE SMOOTH",
"768 1023 OFFCURVE",
"759 1018 OFFCURVE",
"750 1017 CURVE SMOOTH",
"743 1016 LINE SMOOTH",
"737 1015 OFFCURVE",
"729 1014 OFFCURVE",
"719 1014 CURVE",
"716 1014 OFFCURVE",
"713 1015 OFFCURVE",
"710 1015 CURVE SMOOTH",
"638 1035 OFFCURVE",
"586 1027 OFFCURVE",
"562 1022 CURVE SMOOTH",
"557 1021 OFFCURVE",
"552 1021 OFFCURVE",
"549 1020 CURVE",
"538 1012 OFFCURVE",
"525 1008 OFFCURVE",
"517 1004 CURVE SMOOTH",
"509 1001 LINE SMOOTH",
"454 978 OFFCURVE",
"421 933 OFFCURVE",
"409 867 CURVE SMOOTH",
"394 790 OFFCURVE",
"395 711 OFFCURVE",
"413 635 CURVE SMOOTH",
"418 616 OFFCURVE",
"406 597 OFFCURVE",
"385 592 CURVE SMOOTH",
"383 592 OFFCURVE",
"380 591 OFFCURVE",
"378 591 CURVE SMOOTH"
);
},
{
closed = 1;
nodes = (
"645 1100 OFFCURVE",
"674 1098 OFFCURVE",
"705 1091 CURVE",
"705 1107 OFFCURVE",
"701 1123 OFFCURVE",
"692 1132 CURVE SMOOTH",
"681 1142 OFFCURVE",
"659 1146 OFFCURVE",
"626 1142 CURVE SMOOTH",
"616 1141 OFFCURVE",
"604 1135 OFFCURVE",
"592 1129 CURVE",
"588 1122 OFFCURVE",
"585 1110 OFFCURVE",
"582 1098 CURVE",
"594 1099 OFFCURVE",
"607 1100 OFFCURVE",
"621 1100 CURVE SMOOTH"
);
},
{
closed = 1;
nodes = (
"875 146 OFFCURVE",
"865 149 OFFCURVE",
"858 157 CURVE SMOOTH",
"853 162 OFFCURVE",
"824 183 OFFCURVE",
"812 190 CURVE SMOOTH",
"807 193 LINE SMOOTH",
"749 229 OFFCURVE",
"720 247 OFFCURVE",
"702 322 CURVE SMOOTH",
"698 336 OFFCURVE",
"704 351 OFFCURVE",
"715 359 CURVE SMOOTH",
"768 400 OFFCURVE",
"804 448 OFFCURVE",
"825 509 CURVE SMOOTH",
"833 532 OFFCURVE",
"846 550 OFFCURVE",
"869 565 CURVE SMOOTH",
"886 577 OFFCURVE",
"902 593 OFFCURVE",
"911 608 CURVE SMOOTH",
"918 615 OFFCURVE",
"919 627 OFFCURVE",
"915 637 CURVE SMOOTH",
"913 643 OFFCURVE",
"910 646 OFFCURVE",
"908 647 CURVE SMOOTH",
"868 662 OFFCURVE",
"867 693 OFFCURVE",
"867 706 CURVE SMOOTH",
"866 726 OFFCURVE",
"866 743 OFFCURVE",
"866 760 CURVE SMOOTH",
"865 798 OFFCURVE",
"864 834 OFFCURVE",
"860 869 CURVE SMOOTH",
"850 937 OFFCURVE",
"819 981 OFFCURVE",
"761 1001 CURVE SMOOTH",
"750 1005 OFFCURVE",
"742 1011 OFFCURVE",
"735 1015 CURVE SMOOTH",
"729 1019 LINE",
"712 1030 OFFCURVE",
"707 1053 OFFCURVE",
"717 1069 CURVE SMOOTH",
"728 1086 OFFCURVE",
"750 1091 OFFCURVE",
"767 1081 CURVE SMOOTH",
"770 1079 OFFCURVE",
"773 1076 OFFCURVE",
"776 1074 CURVE SMOOTH",
"779 1072 OFFCURVE",
"783 1069 OFFCURVE",
"785 1069 CURVE SMOOTH",
"869 1038 OFFCURVE",
"919 973 OFFCURVE",
"931 879 CURVE SMOOTH",
"936 839 OFFCURVE",
"937 800 OFFCURVE",
"938 761 CURVE SMOOTH",
"938 745 OFFCURVE",
"938 729 OFFCURVE",
"939 712 CURVE",
"960 702 OFFCURVE",
"975 684 OFFCURVE",
"984 660 CURVE SMOOTH",
"994 629 OFFCURVE",
"990 594 OFFCURVE",
"972 567 CURVE SMOOTH",
"957 545 OFFCURVE",
"936 524 OFFCURVE",
"910 506 CURVE SMOOTH",
"899 498 OFFCURVE",
"896 493 OFFCURVE",
"893 486 CURVE SMOOTH",
"871 420 OFFCURVE",
"832 363 OFFCURVE",
"778 317 CURVE",
"789 290 OFFCURVE",
"802 282 OFFCURVE",
"844 255 CURVE SMOOTH",
"850 251 LINE SMOOTH",
"859 246 OFFCURVE",
"897 220 OFFCURVE",
"910 207 CURVE SMOOTH",
"924 191 OFFCURVE",
"924 169 OFFCURVE",
"908 155 CURVE SMOOTH",
"902 149 OFFCURVE",
"893 146 OFFCURVE",
"884 146 CURVE SMOOTH"
);
},
{
closed = 1;
nodes = (
"776 472 OFFCURVE",
"776 472 OFFCURVE",
"776 472 CURVE SMOOTH",
"725 472 OFFCURVE",
"666 514 OFFCURVE",
"645 567 CURVE SMOOTH",
"632 603 OFFCURVE",
"635 639 OFFCURVE",
"653 669 CURVE SMOOTH",
"673 698 OFFCURVE",
"705 718 OFFCURVE",
"745 721 CURVE SMOOTH",
"819 727 OFFCURVE",
"880 710 OFFCURVE",
"924 666 CURVE SMOOTH",
"933 656 OFFCURVE",
"936 642 OFFCURVE",
"932 629 CURVE SMOOTH",
"920 592 LINE",
"909 528 OFFCURVE",
"860 482 OFFCURVE",
"790 472 CURVE SMOOTH",
"785 472 OFFCURVE",
"780 472 OFFCURVE",
"776 472 CURVE SMOOTH"
);
},
{
closed = 1;
nodes = (
"768 650 OFFCURVE",
"760 650 OFFCURVE",
"751 648 CURVE SMOOTH",
"735 647 OFFCURVE",
"722 640 OFFCURVE",
"714 630 CURVE SMOOTH",
"708 620 OFFCURVE",
"708 607 OFFCURVE",
"713 593 CURVE SMOOTH",
"723 569 OFFCURVE",
"755 544 OFFCURVE",
"776 544 CURVE",
"779 544 LINE",
"798 546 OFFCURVE",
"841 557 OFFCURVE",
"848 606 CURVE SMOOTH",
"849 607 OFFCURVE",
"849 609 OFFCURVE",
"850 611 CURVE SMOOTH",
"856 629 LINE",
"835 643 OFFCURVE",
"810 650 OFFCURVE",
"777 650 CURVE SMOOTH"
);
},
{
closed = 1;
nodes = (
"601 267 OFFCURVE",
"563 281 OFFCURVE",
"531 294 CURVE SMOOTH",
"512 302 OFFCURVE",
"503 323 OFFCURVE",
"511 342 CURVE SMOOTH",
"519 360 OFFCURVE",
"540 369 OFFCURVE",
"559 361 CURVE SMOOTH",
"602 343 OFFCURVE",
"633 334 OFFCURVE",
"666 342 CURVE SMOOTH",
"679 345 OFFCURVE",
"691 349 OFFCURVE",
"703 353 CURVE SMOOTH",
"722 359 LINE SMOOTH",
"741 365 OFFCURVE",
"761 355 OFFCURVE",
"767 336 CURVE SMOOTH",
"773 316 OFFCURVE",
"763 296 OFFCURVE",
"744 290 CURVE SMOOTH",
"727 285 LINE SMOOTH",
"712 280 OFFCURVE",
"697 275 OFFCURVE",
"683 271 CURVE SMOOTH",
"669 268 OFFCURVE",
"654 267 OFFCURVE",
"642 267 CURVE SMOOTH"
);
},
{
closed = 1;
nodes = (
"879 619 OFFCURVE",
"879 619 OFFCURVE",
"879 619 CURVE SMOOTH",
"859 619 OFFCURVE",
"843 635 OFFCURVE",
"843 656 CURVE SMOOTH",
"843 671 OFFCURVE",
"819 691 OFFCURVE",
"798 709 CURVE SMOOTH",
"770 733 OFFCURVE",
"740 760 OFFCURVE",
"730 798 CURVE SMOOTH",
"725 817 OFFCURVE",
"737 836 OFFCURVE",
"756 841 CURVE SMOOTH",
"775 847 OFFCURVE",
"795 834 OFFCURVE",
"800 815 CURVE SMOOTH",
"804 800 OFFCURVE",
"826 781 OFFCURVE",
"845 764 CURVE SMOOTH",
"878 736 OFFCURVE",
"917 703 OFFCURVE",
"915 655 CURVE SMOOTH",
"915 634 OFFCURVE",
"899 619 OFFCURVE",
"879 619 CURVE SMOOTH"
);
}
);
width = 1280;
}
);
note = uniF016;
unicode = F016;
},
{
glyphname = uniF017;
lastChange = "2016-11-27 23:13:46 +0000";
layers = (
{
layerId = "3FC06E6C-760F-451F-9A2A-A44F9A2B57A0";
name = Regular;
paths = (
{
closed = 1;
nodes = (
"126 -77 LINE SMOOTH",
"115 -77 OFFCURVE",
"104 -72 OFFCURVE",
"97 -64 CURVE SMOOTH",
"90 -55 OFFCURVE",
"88 -44 OFFCURVE",
"90 -33 CURVE SMOOTH",
"92 -22 OFFCURVE",
"93 -10 OFFCURVE",
"95 1 CURVE SMOOTH",
"99 28 OFFCURVE",
"103 55 OFFCURVE",
"113 82 CURVE SMOOTH",
"139 144 OFFCURVE",
"181 202 OFFCURVE",
"248 262 CURVE SMOOTH",
"282 292 OFFCURVE",
"317 321 OFFCURVE",
"351 350 CURVE SMOOTH",
"367 362 OFFCURVE",
"382 375 OFFCURVE",
"397 387 CURVE SMOOTH",
"412 401 OFFCURVE",
"435 399 OFFCURVE",
"448 383 CURVE SMOOTH",
"462 367 OFFCURVE",
"460 344 OFFCURVE",
"444 331 CURVE SMOOTH",
"429 318 OFFCURVE",
"414 306 OFFCURVE",
"398 293 CURVE SMOOTH",
"364 265 OFFCURVE",
"330 237 OFFCURVE",
"297 207 CURVE SMOOTH",
"239 155 OFFCURVE",
"203 106 OFFCURVE",
"182 54 CURVE SMOOTH",
"175 38 OFFCURVE",
"172 18 OFFCURVE",
"169 -3 CURVE",
"1099 -3 LINE",
"1096 28 OFFCURVE",
"1085 60 OFFCURVE",
"1065 94 CURVE SMOOTH",
"1026 160 OFFCURVE",
"968 210 OFFCURVE",
"917 251 CURVE SMOOTH",
"894 269 OFFCURVE",
"872 289 OFFCURVE",
"851 308 CURVE SMOOTH",
"842 317 OFFCURVE",
"833 325 OFFCURVE",
"824 333 CURVE SMOOTH",
"808 347 OFFCURVE",
"807 370 OFFCURVE",
"821 385 CURVE SMOOTH",
"834 401 OFFCURVE",
"858 402 OFFCURVE",
"873 388 CURVE SMOOTH",
"882 380 OFFCURVE",
"892 371 OFFCURVE",
"901 362 CURVE SMOOTH",
"922 343 OFFCURVE",
"941 325 OFFCURVE",
"962 308 CURVE SMOOTH",
"1019 264 OFFCURVE",
"1083 208 OFFCURVE",
"1128 131 CURVE SMOOTH",
"1163 72 OFFCURVE",
"1177 15 OFFCURVE",
"1174 -43 CURVE SMOOTH",
"1172 -62 OFFCURVE",
"1156 -77 OFFCURVE",
"1137 -77 CURVE SMOOTH"
);
},
{
closed = 1;
nodes = (
"392 522 OFFCURVE",
"375 539 OFFCURVE",
"375 559 CURVE SMOOTH",
"375 579 OFFCURVE",
"392 596 OFFCURVE",
"412 596 CURVE SMOOTH",
"420 596 OFFCURVE",
"432 610 OFFCURVE",
"446 624 CURVE SMOOTH",
"476 658 OFFCURVE",
"522 708 OFFCURVE",
"615 717 CURVE SMOOTH",
"694 724 OFFCURVE",
"765 694 OFFCURVE",
"819 630 CURVE",
"824 625 OFFCURVE",
"838 615 OFFCURVE",
"847 611 CURVE",
"860 617 OFFCURVE",
"875 616 OFFCURVE",
"887 607 CURVE SMOOTH",
"902 594 OFFCURVE",
"905 571 OFFCURVE",
"892 555 CURVE SMOOTH",
"882 543 OFFCURVE",
"867 536 OFFCURVE",
"851 536 CURVE SMOOTH",
"813 535 OFFCURVE",
"770 575 OFFCURVE",
"764 582 CURVE SMOOTH",
"724 628 OFFCURVE",
"676 649 OFFCURVE",
"622 644 CURVE SMOOTH",
"558 637 OFFCURVE",
"528 606 OFFCURVE",
"500 575 CURVE SMOOTH",
"478 550 OFFCURVE",
"452 522 OFFCURVE",
"412 522 CURVE SMOOTH"
);
},
{
closed = 1;
nodes = (
"925 777 OFFCURVE",
"909 793 OFFCURVE",
"909 813 CURVE SMOOTH",
"909 949 OFFCURVE",
"829 1056 OFFCURVE",
"774 1078 CURVE SMOOTH",
"658 1126 OFFCURVE",
"555 1120 OFFCURVE",
"459 1060 CURVE SMOOTH",
"416 1033 OFFCURVE",
"391 994 OFFCURVE",
"381 936 CURVE SMOOTH",
"377 916 OFFCURVE",
"358 903 OFFCURVE",
"338 907 CURVE SMOOTH",
"318 910 OFFCURVE",
"305 929 OFFCURVE",
"309 949 CURVE SMOOTH",
"323 1028 OFFCURVE",
"359 1084 OFFCURVE",
"420 1122 CURVE SMOOTH",
"536 1195 OFFCURVE",
"665 1203 OFFCURVE",
"802 1146 CURVE SMOOTH",
"889 1111 OFFCURVE",
"982 973 OFFCURVE",
"982 813 CURVE SMOOTH",
"982 793 OFFCURVE",
"966 777 OFFCURVE",
"946 777 CURVE SMOOTH"
);
},
{
closed = 1;
nodes = (
"442 676 OFFCURVE",
"395 708 OFFCURVE",
"371 765 CURVE SMOOTH",
"366 777 OFFCURVE",
"355 804 OFFCURVE",
"371 828 CURVE SMOOTH",
"376 836 OFFCURVE",
"390 850 OFFCURVE",
"417 850 CURVE SMOOTH",
"459 851 OFFCURVE",
"501 850 OFFCURVE",
"544 849 CURVE SMOOTH",
"597 848 LINE SMOOTH",
"608 847 OFFCURVE",
"617 843 OFFCURVE",
"624 835 CURVE",
"632 828 OFFCURVE",
"636 818 OFFCURVE",
"636 807 CURVE SMOOTH",
"636 742 OFFCURVE",
"584 685 OFFCURVE",
"519 677 CURVE SMOOTH",
"512 676 OFFCURVE",
"506 676 OFFCURVE",
"500 676 CURVE SMOOTH"
);
},
{
closed = 1;
nodes = (
"462 756 OFFCURVE",
"483 747 OFFCURVE",
"510 750 CURVE SMOOTH",
"525 752 OFFCURVE",
"541 761 OFFCURVE",
"552 775 CURVE",
"542 775 LINE SMOOTH",
"511 776 OFFCURVE",
"479 777 OFFCURVE",
"448 777 CURVE"
);
},
{
closed = 1;
nodes = (
"466 270 OFFCURVE",
"418 298 OFFCURVE",
"392 348 CURVE SMOOTH",
"363 404 OFFCURVE",
"372 465 OFFCURVE",
"415 512 CURVE SMOOTH",
"429 527 OFFCURVE",
"452 527 OFFCURVE",
"467 514 CURVE SMOOTH",
"482 500 OFFCURVE",
"483 477 OFFCURVE",
"469 462 CURVE SMOOTH",
"447 437 OFFCURVE",
"443 410 OFFCURVE",
"457 381 CURVE SMOOTH",
"462 372 OFFCURVE",
"478 342 OFFCURVE",
"533 344 CURVE SMOOTH",
"593 345 OFFCURVE",
"658 345 OFFCURVE",
"742 344 CURVE SMOOTH",
"774 344 OFFCURVE",
"800 358 OFFCURVE",
"813 386 CURVE SMOOTH",
"818 399 OFFCURVE",
"829 432 OFFCURVE",
"798 459 CURVE SMOOTH",
"783 473 OFFCURVE",
"782 496 OFFCURVE",
"796 511 CURVE SMOOTH",
"810 526 OFFCURVE",
"833 528 OFFCURVE",
"848 514 CURVE SMOOTH",
"893 473 OFFCURVE",
"905 412 OFFCURVE",
"880 356 CURVE SMOOTH",
"855 301 OFFCURVE",
"803 270 OFFCURVE",
"741 270 CURVE SMOOTH",
"658 272 OFFCURVE",
"594 272 OFFCURVE",
"534 270 CURVE SMOOTH",
"533 270 OFFCURVE",
"531 270 OFFCURVE",
"529 270 CURVE SMOOTH"
);
},
{
closed = 1;
nodes = (
"569 372 OFFCURVE",
"505 395 OFFCURVE",
"450 440 CURVE SMOOTH",
"403 479 OFFCURVE",
"366 530 OFFCURVE",
"337 595 CURVE SMOOTH",
"332 605 OFFCURVE",
"328 610 OFFCURVE",
"316 616 CURVE SMOOTH",
"288 631 OFFCURVE",
"261 656 OFFCURVE",
"240 687 CURVE SMOOTH",
"223 711 OFFCURVE",
"221 743 OFFCURVE",
"233 771 CURVE SMOOTH",
"247 803 OFFCURVE",
"277 826 OFFCURVE",
"311 831 CURVE SMOOTH",
"331 834 OFFCURVE",
"350 820 OFFCURVE",
"353 800 CURVE SMOOTH",
"356 780 OFFCURVE",
"342 762 OFFCURVE",
"322 759 CURVE SMOOTH",
"312 757 OFFCURVE",
"304 749 OFFCURVE",
"301 742 CURVE SMOOTH",
"299 738 OFFCURVE",
"298 733 OFFCURVE",
"301 728 CURVE SMOOTH",
"315 708 OFFCURVE",
"333 690 OFFCURVE",
"350 681 CURVE SMOOTH",
"376 668 OFFCURVE",
"392 651 OFFCURVE",
"404 625 CURVE SMOOTH",
"428 570 OFFCURVE",
"459 528 OFFCURVE",
"497 496 CURVE SMOOTH",
"568 438 OFFCURVE",
"661 429 OFFCURVE",
"735 474 CURVE SMOOTH",
"777 499 OFFCURVE",
"809 531 OFFCURVE",
"835 573 CURVE SMOOTH",
"867 623 OFFCURVE",
"889 667 OFFCURVE",
"894 717 CURVE SMOOTH",
"896 738 OFFCURVE",
"900 758 OFFCURVE",
"904 777 CURVE SMOOTH",
"906 785 OFFCURVE",
"908 794 OFFCURVE",
"910 802 CURVE SMOOTH",
"913 822 OFFCURVE",
"933 835 OFFCURVE",
"953 831 CURVE SMOOTH",
"973 827 OFFCURVE",
"986 808 OFFCURVE",
"982 788 CURVE SMOOTH",
"980 779 OFFCURVE",
"978 770 OFFCURVE",
"976 762 CURVE SMOOTH",
"972 744 OFFCURVE",
"969 726 OFFCURVE",
"967 710 CURVE SMOOTH",
"960 642 OFFCURVE",
"930 585 OFFCURVE",
"898 534 CURVE SMOOTH",
"866 483 OFFCURVE",
"824 441 OFFCURVE",
"773 411 CURVE SMOOTH",
"730 384 OFFCURVE",
"682 372 OFFCURVE",
"634 372 CURVE SMOOTH"
);
},
{
closed = 1;
nodes = (
"908 610 OFFCURVE",
"893 621 OFFCURVE",
"888 637 CURVE SMOOTH",
"883 656 OFFCURVE",
"894 677 OFFCURVE",
"913 682 CURVE SMOOTH",
"940 690 OFFCURVE",
"964 719 OFFCURVE",
"966 733 CURVE SMOOTH",
"967 745 OFFCURVE",
"966 756 OFFCURVE",
"941 762 CURVE SMOOTH",
"921 766 OFFCURVE",
"908 786 OFFCURVE",
"913 806 CURVE SMOOTH",
"918 825 OFFCURVE",
"937 838 OFFCURVE",
"957 833 CURVE SMOOTH",
"1014 820 OFFCURVE",
"1045 780 OFFCURVE",
"1039 725 CURVE SMOOTH",
"1034 678 OFFCURVE",
"987 627 OFFCURVE",
"934 612 CURVE SMOOTH",
"931 611 OFFCURVE",
"927 610 OFFCURVE",
"924 610 CURVE SMOOTH"
);
},
{
closed = 1;
nodes = (
"324 610 OFFCURVE",
"308 627 OFFCURVE",
"308 647 CURVE SMOOTH",
"308 651 OFFCURVE",
"308 654 OFFCURVE",
"308 658 CURVE SMOOTH",
"309 662 OFFCURVE",
"309 667 OFFCURVE",
"308 668 CURVE SMOOTH",
"307 677 LINE SMOOTH",
"295 735 OFFCURVE",
"284 795 OFFCURVE",
"290 858 CURVE SMOOTH",
"291 871 OFFCURVE",
"304 941 OFFCURVE",
"311 957 CURVE SMOOTH",
"318 975 OFFCURVE",
"340 985 OFFCURVE",
"358 977 CURVE SMOOTH",
"377 970 OFFCURVE",
"386 948 OFFCURVE",
"379 930 CURVE",
"376 919 OFFCURVE",
"364 861 OFFCURVE",
"363 851 CURVE SMOOTH",
"358 799 OFFCURVE",
"368 747 OFFCURVE",
"379 691 CURVE SMOOTH",
"381 682 LINE SMOOTH",
"383 672 OFFCURVE",
"382 662 OFFCURVE",
"382 654 CURVE SMOOTH",
"382 647 LINE",
"382 627 OFFCURVE",
"365 610 OFFCURVE",
"345 610 CURVE SMOOTH"
);
},
{
closed = 1;
nodes = (
"591 499 OFFCURVE",
"559 504 OFFCURVE",
"532 529 CURVE SMOOTH",
"514 545 OFFCURVE",
"513 562 OFFCURVE",
"514 571 CURVE SMOOTH",
"518 597 OFFCURVE",
"540 608 OFFCURVE",
"551 614 CURVE SMOOTH",
"556 616 OFFCURVE",
"562 618 OFFCURVE",
"567 618 CURVE",
"570 618 OFFCURVE",
"572 618 OFFCURVE",
"574 618 CURVE",
"590 616 OFFCURVE",
"606 617 OFFCURVE",
"622 618 CURVE SMOOTH",
"655 619 OFFCURVE",
"692 620 OFFCURVE",
"731 608 CURVE SMOOTH",
"741 604 OFFCURVE",
"749 597 OFFCURVE",
"753 587 CURVE SMOOTH",
"757 578 OFFCURVE",
"757 567 OFFCURVE",
"753 557 CURVE SMOOTH",
"729 505 OFFCURVE",
"682 502 OFFCURVE",
"657 501 CURVE SMOOTH",
"650 501 LINE SMOOTH",
"641 500 OFFCURVE",
"631 499 OFFCURVE",
"621 499 CURVE SMOOTH"
);
},
{
closed = 1;
nodes = (
"713 676 OFFCURVE",
"662 708 OFFCURVE",
"642 756 CURVE",
"634 770 OFFCURVE",
"622 789 OFFCURVE",
"629 812 CURVE SMOOTH",
"633 823 OFFCURVE",
"641 837 OFFCURVE",
"663 847 CURVE SMOOTH",
"668 850 OFFCURVE",
"674 851 OFFCURVE",
"680 851 CURVE",
"680 851 OFFCURVE",
"681 851 OFFCURVE",
"681 851 CURVE SMOOTH",
"728 851 LINE SMOOTH",
"767 851 OFFCURVE",
"806 851 OFFCURVE",
"845 851 CURVE SMOOTH",
"853 851 OFFCURVE",
"878 851 OFFCURVE",
"894 831 CURVE SMOOTH",
"909 810 OFFCURVE",
"902 786 OFFCURVE",
"899 778 CURVE SMOOTH",
"882 720 OFFCURVE",
"842 685 OFFCURVE",
"784 677 CURVE SMOOTH",
"778 676 OFFCURVE",
"772 676 OFFCURVE",
"766 676 CURVE SMOOTH"
);
},
{
closed = 1;
nodes = (
"726 759 OFFCURVE",
"751 747 OFFCURVE",
"774 750 CURVE SMOOTH",
"795 753 OFFCURVE",
"810 761 OFFCURVE",
"819 777 CURVE",
"788 777 OFFCURVE",
"758 777 OFFCURVE",
"728 777 CURVE"
);
}
);
width = 1280;
}
);
note = uniF017;
unicode = F017;
},
{
glyphname = uniF018;
layers = (
{
layerId = "3FC06E6C-760F-451F-9A2A-A44F9A2B57A0";
name = Regular;
paths = (
{
closed = 1;
nodes = (
"768 547.98 LINE",
"640 677.98 LINE",
"510 547.98 LINE",
"427 630.98 LINE",
"631 837.98 LINE",
"640.02 829.99 LINE",
"646 837.98 LINE",
"853 630.98 LINE"
);
},
{
closed = 1;
nodes = (
"510 449.98 LINE",
"640 319.99 LINE",
"768 449.98 LINE",
"852.99 364.98 LINE",
"645.99 159.98 LINE",
"640.01 165.98 LINE",
"630.99 159.98 LINE",
"426.99 364.98 LINE"
);
}
);
width = 1280;
}
);
note = uniF018;
unicode = F018;
},
{
glyphname = uniF019;
layers = (
{
layerId = "3FC06E6C-760F-451F-9A2A-A44F9A2B57A0";
name = Regular;
paths = (
{
closed = 1;
nodes = (
"637.99 654.99 LINE",
"842.99 449.99 LINE",
"758.98 366.99 LINE",
"628.98 494.99 LINE",
"498.99 366.99 LINE",
"415.98 449.99 LINE",
"620.98 654.99 LINE",
"628.97 648.99 LINE"
);
}
);
width = 1280;
}
);
note = uniF019;
unicode = F019;
},
{
glyphname = uniF020;
layers = (
{
layerId = "3FC06E6C-760F-451F-9A2A-A44F9A2B57A0";
name = Regular;
paths = (
{
closed = 1;
nodes = (
"791 630.99 LINE",
"874.99 547.99 LINE",
"669.99 343 LINE",
"661 349.99 LINE",
"655 343 LINE",
"448.01 547.99 LINE",
"533 630.99 LINE",
"661 502.99 LINE"
);
}
);
width = 1280;
}
);
note = uniF020;
unicode = F020;
},
{
glyphname = uniF021;
layers = (
{
layerId = "3FC06E6C-760F-451F-9A2A-A44F9A2B57A0";
name = Regular;
paths = (
{
closed = 1;
nodes = (
"652.98 601.99 LINE",
"944.98 893.99 LINE",
"1025.98 810.99 LINE",
"735.98 520.99 LINE",
"1025.98 227.98 LINE",
"944.98 146.98 LINE",
"652.98 436.98 LINE",
"362.98 146.98 LINE",
"278.99 227.98 LINE",
"571.98 520.99 LINE",
"278.99 810.99 LINE",
"362.98 893.99 LINE"
);
}
);
width = 1280;
}
);
note = uniF021;
unicode = F021;
},
{
glyphname = uniF022;
lastChange = "2016-11-27 22:52:17 +0000";
layers = (
{
layerId = "3FC06E6C-760F-451F-9A2A-A44F9A2B57A0";
name = Regular;
paths = (
{
closed = 1;
nodes = (
"948.98 658.98 LINE SMOOTH",
"955.98 658.98 OFFCURVE",
"962.98 657.98 OFFCURVE",
"968.98 656.99 CURVE",
"1051.98 633.99 OFFCURVE",
"1078.97 548.98 OFFCURVE",
"1061.97 512.98 CURVE SMOOTH",
"1052.97 494.98 OFFCURVE",
"1047.95 483.98 OFFCURVE",
"1044.96 479.98 CURVE",
"1034.96 370.99 LINE",
"1032.96 370.99 LINE",
"1049.96 333.99 OFFCURVE",
"1051.96 304.99 OFFCURVE",
"1038.96 284 CURVE",
"1024.95 267 OFFCURVE",
"1014.95 255 OFFCURVE",
"1008.95 250 CURVE SMOOTH",
"1002.95 244.98 OFFCURVE",
"999.96 237.99 OFFCURVE",
"1000.95 229.99 CURVE",
"999.96 199.99 OFFCURVE",
"986.96 174.99 OFFCURVE",
"961.96 153.99 CURVE",
"944.96 136.99 OFFCURVE",
"916.96 125.99 OFFCURVE",
"877.96 122.99 CURVE SMOOTH",
"838.94 120 OFFCURVE",
"814.94 117 OFFCURVE",
"803.94 116.01 CURVE",
"782.95 113.01 OFFCURVE",
"757.95 114.01 OFFCURVE",
"750.95 117 CURVE",
"703.97 117 LINE",
"696.97 120 OFFCURVE",
"686.95 122 OFFCURVE",
"673.96 122 CURVE",
"641.96 123.99 LINE",
"618.96 125.99 LINE",
"470.97 146.98 LINE",
"455.96 136.99 OFFCURVE",
"441.97 131.99 OFFCURVE",
"428.97 131.99 CURVE SMOOTH",
"317.97 131.99 LINE SMOOTH",
"278.97 131.99 OFFCURVE",
"259.97 150.99 OFFCURVE",
"259.97 189.99 CURVE SMOOTH",
"259.97 496.99 LINE SMOOTH",
"259.97 533.99 OFFCURVE",
"282.97 556.99 OFFCURVE",
"317.97 556.99 CURVE SMOOTH",
"428.97 556.99 LINE SMOOTH",
"445.97 556.99 OFFCURVE",
"459.96 551.99 OFFCURVE",
"468.97 541.97 CURVE",
"470.97 541.97 LINE SMOOTH",
"492.97 541.97 OFFCURVE",
"507.97 550.98 OFFCURVE",
"515.97 569.98 CURVE SMOOTH",
"538.97 619.98 OFFCURVE",
"552.96 651.97 OFFCURVE",
"558.96 665.97 CURVE",
"573.97 705.97 OFFCURVE",
"598.97 736.97 OFFCURVE",
"633.97 758.97 CURVE",
"654.97 776.97 OFFCURVE",
"666.97 815.96 OFFCURVE",
"671.97 874.96 CURVE",
"671.97 893.96 LINE",
"673.97 908.95 LINE SMOOTH",
"676.96 932.95 OFFCURVE",
"688.96 948.95 OFFCURVE",
"709.96 957.96 CURVE",
"832.96 1004.96 OFFCURVE",
"890.96 843.96 OFFCURVE",
"854.97 754.97 CURVE SMOOTH",
"825.97 684.97 LINE",
"814.95 665.97 LINE",
"814.95 663.97 OFFCURVE",
"813.96 661.98 OFFCURVE",
"812.96 658.96 CURVE"
);
},
{
closed = 1;
nodes = (
"776.96 575.98 LINE SMOOTH",
"737.96 575.98 OFFCURVE",
"718.96 596.97 OFFCURVE",
"718.96 639.97 CURVE",
"719.96 652.95 OFFCURVE",
"732.96 684.95 OFFCURVE",
"756.95 735.95 CURVE SMOOTH",
"778.97 782.95 LINE",
"795.97 829.95 OFFCURVE",
"765.97 871.95 OFFCURVE",
"756.96 878.94 CURVE",
"754.97 878.94 LINE",
"754.97 865.95 LINE",
"739.95 756.93 OFFCURVE",
"725.96 717.93 OFFCURVE",
"684.96 692.93 CURVE SMOOTH",
"664.96 679.94 OFFCURVE",
"648.96 660.94 OFFCURVE",
"635.96 633.94 CURVE",
"619.96 585.94 OFFCURVE",
"582.96 491.94 OFFCURVE",
"522.97 466.93 CURVE",
"513.96 463.94 OFFCURVE",
"502.96 461.94 OFFCURVE",
"488.96 458.95 CURVE",
"488.96 227.93 LINE",
"586.98 212.94 LINE",
"648.98 206.94 LINE",
"682.98 204.94 LINE",
"709.98 200.95 LINE",
"752.98 200.95 LINE",
"759.98 199.95 OFFCURVE",
"771.98 198.95 OFFCURVE",
"786.97 197.95 CURVE",
"876.98 204.95 LINE",
"904.98 209.95 OFFCURVE",
"911.98 215.95 OFFCURVE",
"916.98 236.96 CURVE",
"917.98 273.95 OFFCURVE",
"932.97 300.96 OFFCURVE",
"961.97 319.97 CURVE",
"963.97 321.96 LINE",
"950.97 351.96 LINE SMOOTH",
"939.97 377.97 OFFCURVE",
"948.96 404.97 OFFCURVE",
"976.98 432.97 CURVE",
"975.98 433.97 OFFCURVE",
"973.98 435.97 OFFCURVE",
"971.98 439.97 CURVE SMOOTH",
"969.99 443.97 OFFCURVE",
"967.99 446.97 OFFCURVE",
"965.99 447.97 CURVE",
"947 472.96 OFFCURVE",
"948.99 496.96 OFFCURVE",
"971.01 517.96 CURVE",
"976.01 524.96 OFFCURVE",
"980.01 531.96 OFFCURVE",
"981.01 537.96 CURVE",
"984 537.96 OFFCURVE",
"983.01 542.96 OFFCURVE",
"977.99 553.96 CURVE SMOOTH",
"972.99 564.96 OFFCURVE",
"963 571.96 OFFCURVE",
"948.99 575.98 CURVE"
);
},
{
closed = 1;
nodes = (
"343 214.98 LINE",
"405 214.98 LINE",
"405 473.97 LINE",
"343 473.97 LINE"
);
}
);
width = 1280;
}
);
note = uniF022;
unicode = F022;
},
{
glyphname = uniF023;
layers = (
{
layerId = "3FC06E6C-760F-451F-9A2A-A44F9A2B57A0";
name = Regular;
paths = (
{
closed = 1;
nodes = (
"1083.98 772.99 OFFCURVE",
"995.98 846.99 OFFCURVE",
"873.98 856.99 CURVE",
"865.99 856.99 OFFCURVE",
"855.97 858.99 OFFCURVE",
"845.97 860.99 CURVE",
"444.97 860.99 LINE",
"416.97 852.99 OFFCURVE",
"386.97 850.99 OFFCURVE",
"359.97 844.99 CURVE",
"251.96 814.99 OFFCURVE",
"179.97 722.99 OFFCURVE",
"169.95 610.99 CURVE",
"169.95 603 OFFCURVE",
"167.96 591 OFFCURVE",
"165.96 581 CURVE",
"165.96 180 LINE",
"173.96 145.98 OFFCURVE",
"175.95 116.98 OFFCURVE",
"183.96 86.99 CURVE",
"217.96 -19.01 OFFCURVE",
"307.97 -87 OFFCURVE",
"416.97 -95.01 CURVE",
"428.97 -95.01 OFFCURVE",
"436.96 -97 OFFCURVE",
"448.96 -99 CURVE",
"841.97 -99 LINE",
"869.97 -95 OFFCURVE",
"897.97 -93 OFFCURVE",
"925.97 -85 CURVE SMOOTH",
"1037.97 -57 OFFCURVE",
"1113.97 36.98 OFFCURVE",
"1121.98 151.98 CURVE",
"1121.98 159.98 OFFCURVE",
"1123.97 171.98 OFFCURVE",
"1125.97 183.98 CURVE",
"1125.97 576.97 LINE",
"1121.97 602.98 OFFCURVE",
"1119.97 630.98 OFFCURVE",
"1111.97 654.98 CURVE"
);
},
{
closed = 1;
nodes = (
"869.98 576.97 OFFCURVE",
"841.98 606.97 OFFCURVE",
"843.97 636.97 CURVE",
"843.97 668.97 OFFCURVE",
"871.99 694.96 OFFCURVE",
"901.98 692.96 CURVE",
"936 692.96 OFFCURVE",
"960 666.97 OFFCURVE",
"960 634.97 CURVE",
"958 602.98 OFFCURVE",
"931.99 576.97 OFFCURVE",
"901.99 576.97 CURVE SMOOTH"
);
},
{
closed = 1;
nodes = (
"508.99 131.98 OFFCURVE",
"401 241.98 OFFCURVE",
"399 379.98 CURVE",
"399 517.98 OFFCURVE",
"509 624.98 OFFCURVE",
"645 626.98 CURVE SMOOTH",
"783 626.98 OFFCURVE",
"890 517.96 OFFCURVE",
"894 381.97 CURVE SMOOTH",
"894 243.97 OFFCURVE",
"785 131.97 OFFCURVE",
"646.98 131.97 CURVE SMOOTH"
);
},
{
closed = 1;
nodes = (
"558.97 537.97 OFFCURVE",
"488.97 467.97 OFFCURVE",
"486.98 381.97 CURVE SMOOTH",
"486.98 291.96 OFFCURVE",
"558.97 221.96 OFFCURVE",
"646.97 221.96 CURVE SMOOTH",
"734.97 221.96 OFFCURVE",
"804.97 291.96 OFFCURVE",
"804.97 379.96 CURVE SMOOTH",
"804.97 467.96 OFFCURVE",
"734.97 539.97 OFFCURVE",
"644.98 539.97 CURVE SMOOTH"
);
}
);
width = 1280;
}
);
note = uniF023;
unicode = F023;
},
{
glyphname = Quit;
lastChange = "2016-11-27 14:09:45 +0000";
layers = (
{
layerId = "3FC06E6C-760F-451F-9A2A-A44F9A2B57A0";
name = Regular;
paths = (
{
closed = 1;
nodes = (
"990.99 176.99 OFFCURVE",
"1003.99 182.99 OFFCURVE",
"1018.98 182.99 CURVE SMOOTH",
"1047.98 182.99 OFFCURVE",
"1075 162.98 OFFCURVE",
"1076 110 CURVE SMOOTH",
"1076.99 57 OFFCURVE",
"1084.99 -21.99 OFFCURVE",
"1044.99 -62.99 CURVE SMOOTH",
"1024.98 -84 OFFCURVE",
"999.99 -94 OFFCURVE",
"970.99 -94 CURVE SMOOTH",
"249.99 -94 LINE SMOOTH",
"225.99 -94 OFFCURVE",
"200.99 -83 OFFCURVE",
"174.98 -61.98 CURVE",
"154.99 -38.98 OFFCURVE",
"144.99 -14.98 OFFCURVE",
"144.99 11.01 CURVE SMOOTH",
"145.98 331.99 OFFCURVE",
"145.98 653.99 OFFCURVE",
"144.99 974.99 CURVE",
"144.99 1029.98 OFFCURVE",
"200.99 1079.98 OFFCURVE",
"249.99 1078.98 CURVE SMOOTH",
"970.99 1078.98 LINE SMOOTH",
"1000.98 1078.98 OFFCURVE",
"1025.98 1067.98 OFFCURVE",
"1044.98 1044.98 CURVE",
"1065.97 1025.98 OFFCURVE",
"1076.97 998.98 OFFCURVE",
"1075.98 962.98 CURVE SMOOTH",
"1074.98 926.98 OFFCURVE",
"1074.98 894.99 OFFCURVE",
"1075.98 865.99 CURVE SMOOTH",
"1076.97 815.97 OFFCURVE",
"1058.97 790.98 OFFCURVE",
"1019.98 790.98 CURVE SMOOTH",
"991.98 790.98 OFFCURVE",
"963.98 814.97 OFFCURVE",
"963.98 846.97 CURVE SMOOTH",
"963.98 965.96 LINE",
"255.99 965.96 LINE",
"256.97 649.97 OFFCURVE",
"256.97 333.97 OFFCURVE",
"255.99 16.98 CURVE",
"492.98 17.97 OFFCURVE",
"728.98 17.97 OFFCURVE",
"963.98 16.98 CURVE",
"963.98 127.98 LINE SMOOTH",
"963.98 141.97 OFFCURVE",
"968.98 154.97 OFFCURVE",
"979.98 165.97 CURVE SMOOTH"
);
},
{
closed = 1;
nodes = (
"982.98 436.96 LINE",
"545.98 436.96 LINE SMOOTH",
"514.98 436.96 OFFCURVE",
"490.98 461.96 OFFCURVE",
"490.98 493.96 CURVE SMOOTH",
"490.98 525.95 OFFCURVE",
"517.98 551.96 OFFCURVE",
"546 552.95 CURVE",
"983 552.95 LINE",
"911 622.95 LINE SMOOTH",
"870 663.95 OFFCURVE",
"888 742.96 OFFCURVE",
"956 729.96 CURVE",
"977.01 722.96 OFFCURVE",
"991 710.96 OFFCURVE",
"996 694.96 CURVE",
"1129 564.96 LINE",
"1164 527.97 OFFCURVE",
"1173.01 455.97 OFFCURVE",
"1116.01 411.98 CURVE",
"1073.01 367.96 OFFCURVE",
"1031.01 324.97 OFFCURVE",
"988.02 283.97 CURVE",
"975.02 272.97 OFFCURVE",
"964.02 266.97 OFFCURVE",
"954.02 266.97 CURVE",
"951.02 263.97 OFFCURVE",
"946.02 262.97 OFFCURVE",
"939.02 261.97 CURVE",
"884.03 261.97 OFFCURVE",
"873.01 312.99 OFFCURVE",
"885.01 339.98 CURVE SMOOTH",
"891.01 352.98 OFFCURVE",
"901.03 362.98 OFFCURVE",
"915.02 368.98 CURVE"
);
}
);
width = 1280;
}
);
note = uniE002;
unicode = E002;
},
